<?xml version="1.0" encoding="utf-8"?>
<!-- Generator: Adobe Illustrator 21.0.0, SVG Export Plug-In . SVG Version: 6.00 Build 0)  -->
<svg version="1.1" id="Capa_1" xmlns="http://www.w3.org/2000/svg" xmlns:xlink="http://www.w3.org/1999/xlink" x="0px" y="0px"
	 viewBox="0 0 548.5 131.8" style="enable-background:new 0 0 548.5 131.8;" xml:space="preserve">
<style type="text/css">
	.st0{enable-background:new    ;}
	.st1{fill:#62113A;}
</style>
<title>logo</title>
<g class="st0">
	<path d="M168.1,62.3c-1.4,0.8-3.4,1.7-5.9,2.5c9.8,2,14.7,7.5,14.7,16.6c0,5.8-2,10.1-5.9,13.1c-3.3,2.5-8.1,3.8-14.5,3.8
		c-2.2,0-4.7-0.1-7.5-0.2l-6.2-0.3c-2.7-0.1-4.5-0.2-5.5-0.2h-2.5c-1,0-2.6,0.1-4.7,0.3c-2.1,0.2-3.6,0.3-4.6,0.3h-0.4
		c-1.3,0-1.9-0.3-1.9-1c0-0.9,0.7-1.3,2-1.3c0.1,0,0.8,0.1,2.2,0.2c1.4,0.1,2.3,0.2,2.9,0.2c1.8,0,3-0.6,3.6-1.8
		c0.4-0.8,0.7-2.2,0.7-4.3v-6.8V45.9c-0.1-2.1-0.3-3.5-0.6-4.3c-0.7-1.2-1.9-1.8-3.7-1.8c-0.5,0-1.4,0.1-2.9,0.2
		c-0.7,0.1-1.4,0.1-2.2,0.1c-1.3,0-2-0.4-2-1.2c0-0.8,0.6-1.2,1.9-1.2h0.4l2,0.2c0.8,0,2.1,0.1,3.6,0.3c1.6,0.2,2.8,0.3,3.6,0.3h2.5
		c0.9,0,3.4-0.1,7.5-0.4c4.1-0.2,7.6-0.4,10.5-0.4c6,0,10.5,1,13.4,2.9c3.7,2.5,5.6,6,5.6,10.5C174.3,56.2,172.2,59.9,168.1,62.3z
		 M137.3,60.2c0,2.2,0.6,3.4,1.7,3.8c0.6,0.2,1.6,0.3,2.9,0.3h8.3c4.1,0,7-0.1,8.5-0.3c3.1-0.4,5.8-1.4,7.9-2.9c3.3-2.2,5-5.4,5-9.5
		c0-4.2-1.7-7.4-5.2-9.5c-2.4-1.5-6.2-2.2-11.2-2.2c-2.7,0-5.3,0.1-7.7,0.2l-5.6,0.3c-2,0.1-3.3,0.4-3.7,0.9c-0.5,0.5-0.7,2-0.7,4.4
		V60.2z M137.4,91.5c0,1.9,0.5,3.1,1.4,3.6c0.6,0.4,2.1,0.6,4.4,0.7l5.8,0.4c1.9,0.1,3.6,0.2,5,0.2c3.6,0,6.2-0.1,7.8-0.4
		c2.9-0.5,5.2-1.5,7.1-3c3.5-2.9,5.2-6.9,5.2-12c0-8.3-4.2-13.2-12.7-14.5c-2.7-0.4-5.8-0.6-9.2-0.6c-0.4,0-1,0-1.7,0
		c-0.9,0.1-1.5,0.2-1.8,0.2h-5.8c-1.4,0-2.3,0-2.7,0.1c-1.3,0.1-2,0.4-2.3,0.7c-0.3,0.4-0.5,1-0.6,1.9L137.4,91.5z"/>
	<path d="M226,72.8c0,1.3-0.3,2-0.9,2.2c-0.6,0.2-1.5,0.4-2.7,0.4h-31.9c-0.8,0-1.4,0.1-1.6,0.4c-0.2,0.2-0.3,0.8-0.3,1.8
		c0,6,1.6,10.8,4.9,14.5c3.3,3.7,7.5,5.5,12.8,5.5c5.7,0,10.2-2,13.4-6c1.3-1.6,2.2-3.3,2.7-5.1c0-0.2,0.1-0.9,0.5-2.2
		c0.2-1,0.7-1.5,1.3-1.5c0.7,0,1.1,0.4,1.1,1.3c0,1-0.3,2.4-1,4c-1.4,3.6-3.7,6.4-6.9,8.4c-3.1,2-6.8,3-11,3c-6.1,0-11-2.1-14.8-6.2
		c-3.7-4.1-5.6-9.6-5.6-16.4c0-7,1.9-12.7,5.8-17.1c3.9-4.4,8.9-6.6,15-6.6c5.3,0,9.8,1.9,13.5,5.7C224.2,62.6,226,67.2,226,72.8z
		 M189.1,72c0,0.9,0.7,1.3,2,1.3h31c1,0,1.5-0.5,1.5-1.4c0-3.8-1.3-7.5-4-11c-3.1-4-7.3-6-12.8-6c-4.1,0-7.7,1.2-10.7,3.5
		c-3,2.3-5.1,5.6-6.3,9.8C189.3,69.7,189.1,70.9,189.1,72z"/>
	<path d="M246.1,56.3v5.4c3.1-5.8,8.1-8.6,14.8-8.6c5.3,0,9.1,1.4,11.6,4.3c1.1,1.3,2.1,3.1,3,5.6c1.3-2.5,2.5-4.4,3.8-5.7
		c2.9-2.8,6.8-4.2,11.5-4.2c3.5,0,6.6,0.7,9,2.2c2.5,1.5,4.1,3.5,4.9,6.1c0.4,1.4,0.7,3,0.7,5c0.1,1.9,0.1,4,0.1,6.4v8.9
		c0,7,0.2,11.2,0.7,12.6c0.5,1.5,1.9,2.2,4.1,2.2c0.4,0,1,0,1.9,0c0.8,0,1.5,0,1.9,0h0.4c1.3,0,2,0.3,2,1c0,0.7-0.5,1.1-1.6,1.1
		h-0.4l-3.1-0.3l-3.7-0.3h-2.5h-1.8h-2.6l-3.7,0.3l-3.1,0.3c-0.1,0-0.2,0-0.3,0c-1.1,0-1.7-0.3-1.7-1c0-0.7,0.7-1.1,2-1.1h0.5
		c0.4,0,1,0,1.9,0c0.8,0,1.5,0,1.9,0c2.3,0,3.7-0.7,4.2-2.1c0.5-1.4,0.7-5.7,0.7-12.7v-9.7c0-4.6-0.1-7.4-0.3-8.6
		c-0.2-1.2-0.8-2.4-1.8-3.8c-2.2-3.1-5.8-4.6-10.7-4.6c-5.5,0-9.4,2.1-12,6.3c-1.6,2.6-2.3,6.8-2.3,12.4v8c0,7.1,0.2,11.3,0.7,12.7
		c0.5,1.4,1.9,2.1,4.3,2.1c0.4,0,1,0,1.9,0c0.8,0,1.5,0,1.9,0h0.4c1.3,0,2,0.3,2,1c0,0.7-0.5,1.1-1.6,1.1h-0.4l-3.1-0.3l-3.7-0.3
		h-2.7h-1.7h-2.5l-3.8,0.3l-3.1,0.3c-0.1,0-0.2,0-0.3,0c-1.1,0-1.7-0.3-1.7-1c0-0.7,0.7-1.1,2-1.1h0.4c0.4,0,1.1,0,1.9,0
		c0.9,0,1.5,0,1.9,0c2.3,0,3.7-0.7,4.1-2.2c0.5-1.4,0.7-5.7,0.7-12.7V70.3c0-2.9-0.1-4.9-0.2-5.8c-0.3-2-1.1-3.7-2.4-5.3
		c-2.4-2.9-5.9-4.4-10.5-4.4c-5.1,0-9.1,1.9-12,5.6c-1.8,2.4-2.7,5.9-2.7,10.6v10.5c0,7,0.2,11.2,0.7,12.7c0.5,1.4,1.8,2.2,4.2,2.2
		c0.4,0,1.1,0,2,0c0.9,0,1.5,0,2,0h0.5c1.3,0,2,0.3,2,1c0,0.7-0.6,1.1-1.7,1.1h-0.3l-3.2-0.3l-3.8-0.3h-2.3h-1.9h-2.5l-3.8,0.3
		l-3.2,0.3c-0.1,0-0.2,0-0.3,0c-1.1,0-1.7-0.3-1.7-1c0-0.7,0.7-1.1,2-1.1h0.5c0.4,0,1,0,1.9,0c0.8,0,1.5,0,1.9,0
		c2.3,0,3.7-0.7,4.2-2.2c0.5-1.4,0.7-5.7,0.7-12.7V67.5c0-4.4,0-6.3,0-5.7c-0.1-3.1-0.6-4.9-1.4-5.4c-0.4-0.3-1.2-0.5-2.2-0.5
		c-0.4,0-1.4,0.1-3,0.2l-2.4,0.2c-0.1,0-0.2,0-0.3,0c-1.2,0-1.8-0.4-1.8-1.2c0-0.8,0.5-1.2,1.5-1.2h0.3l2.6,0.3h4
		c0.4,0,0.9,0,1.7-0.1c0.8-0.1,1.4-0.1,1.7-0.1C245.6,54,246.1,54.7,246.1,56.3z"/>
</g>
<g class="st0">
	<path class="st1" d="M338.1,84.9c0,3.5,0.4,5.6,1.1,6.3c0.5,0.5,1.2,0.9,2.1,1c0.9,0.1,2.8,0.2,5.9,0.2h7.9c4.1,0,6.9-0.5,8.3-1.6
		c1.4-1.1,2.1-3.3,2.1-6.6c0-0.9,0-1.9-0.1-3.1c-0.1-2.3-0.2-3.7-0.2-4.2c0-2.6,1-3.9,3.1-3.9c2.5,0,3.8,1.2,3.8,3.6
		c0,0.7,0,1.3-0.1,1.7l-0.6,4.6c-0.2,1.3-0.3,2.7-0.3,4.1c0,0.8,0.1,2.1,0.2,3.7c0.1,1.7,0.2,2.9,0.2,3.7c0,2.7-1.5,4.1-4.6,4.1
		c-0.6,0-2-0.1-4.1-0.3c-1.4-0.1-3.7-0.2-6.7-0.3h-6.8H335c-1.4,0-3.8,0.1-7.2,0.4c-0.5,0-1.3,0-2.5,0.1c-1.2,0.1-2.1,0.1-2.7,0.1
		c-2.5,0-3.8-1.1-3.8-3.2c0-1.9,0.9-2.9,2.8-2.9c0.5,0,1.2,0.1,2.2,0.3c1,0.2,1.7,0.3,2.2,0.3c3.1,0,4.6-2.2,4.6-6.8V50
		c0-4.4-1.5-6.7-4.6-6.7c-0.8,0-1.5,0.1-1.9,0.2c-1,0.2-1.8,0.3-2.4,0.3c-0.8,0-1.4-0.3-2-0.9c-0.5-0.6-0.8-1.3-0.8-2.1
		c0-2.1,1.3-3.1,3.9-3.1c0.4,0,0.8,0,1.3,0.1l4.8,0.5c2.6,0.3,4.6,0.5,5.9,0.5c1.6,0,3.5-0.1,5.8-0.5l4.1-0.5
		c0.5-0.1,0.9-0.1,1.2-0.1c2.7,0,4,1,4,3.1c0,0.8-0.3,1.5-0.8,2.1c-0.5,0.6-1.2,0.9-2,0.9c-0.6,0-1.4-0.1-2.4-0.3
		c-0.4-0.1-1-0.2-1.9-0.2c-3.1,0-4.6,2.2-4.6,6.6V84.9z"/>
	<path class="st1" d="M418.7,71.6c0,2.3-0.2,3.7-0.4,4.2c-0.3,0.5-1.2,0.8-2.6,0.8H387c-0.8,0-1.3,0.1-1.5,0.3
		c-0.2,0.2-0.4,0.6-0.4,1c0,4.5,1.4,8.3,4.1,11.2c2.7,3,6.1,4.5,10.1,4.5c2.6,0,5.1-0.7,7.2-2.2c2.2-1.4,3.6-3.3,4.3-5.5l0.8-2.6
		c0.4-1.4,1.4-2.2,3-2.2c2.2,0,3.3,1.1,3.3,3.4c0,3.9-2,7.4-5.9,10.4c-4,3-8.5,4.5-13.5,4.5c-6.3,0-11.3-2.1-15-6.3
		c-3.7-4.2-5.6-9.9-5.6-17.1c0-7.3,2-13.3,5.9-17.8c4-4.6,9.1-6.8,15.5-6.8c5.6,0,10.3,1.9,13.9,5.7C416.9,61,418.7,65.8,418.7,71.6
		z M386,69.3c0,0.8,0.7,1.3,2,1.3h21.5c1.3,0,1.9-0.4,1.9-1.3c0-3.2-1.2-5.9-3.6-8.3c-2.4-2.3-5.2-3.5-8.5-3.5
		c-3.4,0-6.4,1.2-9.2,3.6C387.4,63.5,386,66.3,386,69.3z"/>
</g>
<g class="st0">
	<path class="st1" d="M446.7,51.5c1.6,0,3.3,0.2,5.3,0.7c0.3-5.9,3.7-8.8,10.3-8.8c2.8,0,5.1,0.7,6.9,2.2c1.9,1.4,2.8,3.3,2.8,5.5
		c0,1.4-0.5,2.7-1.4,3.7c-0.9,1-2,1.5-3.3,1.5c-1,0-1.8-0.3-2.5-1c-0.7-0.7-1.1-1.4-1.1-2.3c0-1,0.7-1.9,2-3c-1-1.2-2.2-1.8-3.7-1.8
		c-3.2,0-4.8,2-4.9,5.9c4.6,3.1,6.8,7.2,6.8,12.3c0,4.1-1.6,7.6-4.7,10.3c-3.1,2.8-7,4.1-11.7,4.1c-3.3,0-6.7-0.8-10.3-2.3
		c-1-0.4-1.8-0.6-2.4-0.6c-0.8,0-1.6,0.4-2.3,1.1c-0.7,0.8-1,1.6-1,2.7c0,3.1,3.2,4.7,9.5,4.7h0.5c0.5,0,1,0,1.6,0c0.6,0,1,0,1.1,0
		c5.7,0,10.3,0.5,13.9,1.6c3.3,1,5.9,2.6,7.8,4.8c1.9,2.2,2.9,4.6,2.9,7.3c0,4.4-2,7.8-6.1,10.4c-4,2.5-9.5,3.8-16.4,3.8
		c-6.9,0-12.3-1.2-16.2-3.6c-3.9-2.4-5.9-5.7-5.9-9.9c0-4.9,2.7-8.3,8.2-10.4c-4.9-1.9-7.4-4.8-7.4-8.6c0-4.2,2.5-7.1,7.4-8.6
		c-1.6-2.1-2.3-4.6-2.3-7.4c0-4.1,1.6-7.5,4.7-10.2C438,52.9,441.9,51.5,446.7,51.5z M447,92.4c-4.8,0-8.6,0.7-11.3,2.2
		c-2.8,1.4-4.1,3.4-4.1,5.8c0,2.5,1.3,4.4,4,5.8c2.7,1.4,6.3,2.1,10.9,2.1c4.8,0,8.6-0.7,11.4-2.2c2.8-1.4,4.2-3.4,4.2-5.8
		c0-2.5-1.3-4.5-4-5.9C455.5,93.1,451.8,92.4,447,92.4z M447,57.5c-2.6,0-4.9,0.8-6.8,2.3c-1.9,1.6-2.9,3.5-3.1,5.8v0.5
		c0,2.6,0.9,4.8,2.7,6.4s4.1,2.4,7,2.4c3,0,5.4-0.8,7.3-2.4c1.9-1.6,2.8-3.7,2.8-6.2c0-2.6-1-4.7-2.9-6.4
		C452.2,58.3,449.8,57.5,447,57.5z"/>
</g>
<g class="st0">
	<path class="st1" d="M512.1,99.2c-4.9,0-8-2.1-9.1-6.4c-3.1,4.5-7.9,6.8-14.4,6.8c-4.9,0-8.7-1.2-11.7-3.6
		c-2.9-2.4-4.4-5.6-4.4-9.6c0-5,2.1-8.6,6.4-11c1.6-0.9,3-1.5,4.2-1.8c1.2-0.3,3.5-0.6,7.1-1c5-0.5,8.3-1.3,9.9-2.2
		c1.5-1,2.3-2.7,2.3-5.3c0-2.5-0.9-4.4-2.6-5.8c-1.7-1.4-4.1-2.1-7.2-2.1c-2.7,0-5.2,0.8-7.6,2.2c-0.9,0.6-1.4,1.2-1.4,1.9
		c0,0.2,0.3,0.5,0.8,0.9c0.8,0.6,1.3,1.6,1.3,3.1c0,1.2-0.4,2.2-1.3,3c-0.9,0.8-2,1.2-3.3,1.2c-1.6,0-2.9-0.5-3.9-1.6
		c-1.1-1.1-1.6-2.4-1.6-4c0-3.4,1.7-6.2,5-8.6c3.3-2.4,7.4-3.6,12.1-3.6c10.9,0,16.4,5.2,16.4,15.7v18.1c0,2.9,0.1,4.6,0.2,5.1
		c0.4,2.1,1.4,3.1,3.1,3.1c2.1,0,3.2-1.9,3.2-5.7v-4.4c0-1.9,0.9-2.9,2.7-2.9c1.9,0,2.9,1.4,2.9,4.3v0.5v5.1
		C521.2,96.3,518.1,99.2,512.1,99.2z M502.1,81.3v-6.4c-1.3,1.2-2.7,2-4.2,2.5c-1.5,0.5-4.1,0.9-7.8,1.3c-6.8,0.7-10.2,3.2-10.2,7.6
		c0,2.3,0.8,4.1,2.5,5.4c1.6,1.3,3.9,2,6.7,2c4,0,7.2-1.1,9.5-3.3C500.9,88.2,502.1,85.2,502.1,81.3z"/>
	<path class="st1" d="M538.3,60.5v27.9c0.1,3.1,0.9,4.6,2.5,4.6c0.4,0,1.1-0.1,2.3-0.5c0.7-0.1,1.2-0.2,1.5-0.2c2,0,3,1,3,3.1
		c0,2-1.2,3-3.7,3c-1,0-2.5-0.1-4.6-0.4c-2.1-0.2-3.7-0.4-4.8-0.4c-1,0-2.4,0.1-4.3,0.4c-1.9,0.2-3.3,0.4-4.2,0.4h-0.4
		c-2.5,0-3.8-1.1-3.8-3.2c0-1.9,1-2.8,3.1-2.8c0.1,0,0.3,0,0.6,0c0.4,0.1,0.6,0.1,0.8,0.1c1.5,0.3,2.4,0.5,2.6,0.5
		c1.1,0,1.8-0.5,2-1.4c0.3-0.9,0.4-3.4,0.5-7.3l0.1-6.3V64V47.9c-0.1-1.8-0.2-3-0.3-3.6c-0.4-1.4-1.3-2.1-2.5-2.1
		c-0.2,0-1,0.1-2.3,0.4c-0.7,0.1-1.2,0.2-1.6,0.2c-2,0-3.1-1-3.1-2.9c0-2,1.2-3,3.6-3c0.7,0,1.2,0,1.7,0.1l2.2,0.3
		c1,0.1,1.8,0.2,2.4,0.2c0.6,0,1.5-0.1,2.7-0.3c1.2-0.2,2.1-0.3,2.7-0.3c1.4,0,2.1,0.9,2.1,2.6c0,0.6,0,1-0.1,1.3
		C538.5,45.5,538.3,52,538.3,60.5z"/>
</g>
<g>
	<path class="st1" d="M52.8,122.2v9.5H105V48.1h-9.1v74.1H52.8z"/>
</g>
<g>
	<path class="st1" d="M52.8,9.8V0H0v86.2h9.2V9.8H52.8z"/>
</g>
<g class="st0">
	<path d="M25,33.1c0-1.9,0-6.7-6.6-6.7h-4.8v-4.4h38.5c24.8,0,29.2,12.8,29.2,20.8c0,12.3-9.3,18.4-19.3,22.2l3.6,0.8
		c11.8,2.5,20,10,20,22.1c0,21.8-19.8,26.7-36,26.7h-36V110h4.9c3.8,0,6.4-1.6,6.4-6.3V33.1z M37.2,26.4c-5.5,0-6.1,3.7-6.1,6.7
		v30.4h14.5c12.4,0,29.7-5.1,29.7-20.8c0-8.1-5.5-16.3-23.1-16.3H37.2z M31.1,67.9v35.7c0,4.8,1.4,6.3,6.6,6.3h12
		c23.3,0,29.9-12,29.9-22.3c0-5.1-1.5-9.1-4.8-12.2c-6-6.3-20.3-7.6-24.7-7.6H31.1z"/>
</g>
</svg>
