<?xml version="1.0" encoding="utf-8"?>
<!-- Generator: Adobe Illustrator 21.0.0, SVG Export Plug-In . SVG Version: 6.00 Build 0)  -->
<svg version="1.1" id="Layer_1" xmlns="http://www.w3.org/2000/svg" xmlns:xlink="http://www.w3.org/1999/xlink" x="0px" y="0px"
	 viewBox="0 0 400 600" style="enable-background:new 0 0 400 600;" xml:space="preserve">
<style type="text/css">
	.st0{fill:#720838;}
	.st1{fill:#FFFFFF;}
	.st2{fill:#D6D6D6;}
	.st3{fill:#EFEFEF;}
	.st4{fill:#AFCDD7;}
	.st5{fill:#F7CEB1;}
	.st6{fill:#8E3960;}
	.st7{fill:#98A1A6;}
	.st8{fill:#D2E3E8;}
	.st9{fill:#CE521F;}
	.st10{fill:#2C3B52;}
	.st11{fill:#EBEBEB;}
	.st12{fill:#BABABA;}
	.st13{fill:#E7E6E6;}
	.st14{fill:#8E96A3;}
	.st15{fill:#52677A;}
	.st16{fill:#3D4D5C;}
	.st17{fill:#B7CDD8;}
	.st18{fill:#C79CAF;}
	.st19{fill:#A56180;}
	.st20{fill:#EFF0F0;}
	.st21{fill:#B7D9AB;}
	.st22{fill:#7194AF;}
	.st23{fill:#5F7E93;}
	.st24{fill:#EBCBA2;}
	.st25{fill:#B2B185;}
	.st26{fill:#F2B864;}
	.st27{fill:#7F6E60;}
	.st28{fill:#755C44;}
	.st29{fill:none;stroke:#54636A;stroke-width:0.381;stroke-miterlimit:10;}
	.st30{fill:#3B4C54;}
	.st31{fill:#8C9195;}
	.st32{fill:none;stroke:#8C9195;stroke-width:1.16;stroke-miterlimit:10;}
	.st33{fill:none;stroke:#C90000;stroke-width:1.16;stroke-miterlimit:10;}
	.st34{fill:#545864;}
	.st35{fill:#49423C;}
	.st36{fill:#5A636D;}
	.st37{opacity:0.3;}
	.st38{clip-path:url(#SVGID_2_);}
	.st39{clip-path:url(#SVGID_4_);fill:#FFFFFF;}
	.st40{fill:#FDC07E;}
	.st41{clip-path:url(#SVGID_6_);fill:url(#SVGID_7_);}
	.st42{fill:#FF8C10;}
	.st43{fill:#FFB31E;}
	.st44{fill:#FF9400;}
	.st45{fill:#E2E4E4;}
	.st46{fill:#FCAF5C;}
	.st47{fill:#916D4D;}
	.st48{fill:#C5C9C9;}
	.st49{fill:#94736A;}
	.st50{filter:url(#Adobe_OpacityMaskFilter);}
	.st51{enable-background:new    ;}
	.st52{filter:url(#Adobe_OpacityMaskFilter_1_);}
	.st53{clip-path:url(#SVGID_10_);mask:url(#SVGID_8_);fill:url(#SVGID_11_);}
	.st54{opacity:0.2;}
	.st55{clip-path:url(#SVGID_13_);}
	.st56{clip-path:url(#SVGID_15_);fill:url(#SVGID_16_);}
	.st57{fill-rule:evenodd;clip-rule:evenodd;fill:#AFCDD7;}
	.st58{fill-rule:evenodd;clip-rule:evenodd;fill:#85D98D;}
	.st59{fill-rule:evenodd;clip-rule:evenodd;fill:#FFE4E7;}
	.st60{fill-rule:evenodd;clip-rule:evenodd;fill:#EE6A55;}
	.st61{fill-rule:evenodd;clip-rule:evenodd;fill:#7194AF;}
	.st62{fill-rule:evenodd;clip-rule:evenodd;fill:#5F7E93;}
	.st63{fill:#00333C;}
	.st64{fill:#E0A961;}
	.st65{opacity:0.7;}
	.st66{clip-path:url(#SVGID_18_);}
	.st67{clip-path:url(#SVGID_20_);fill:#D7D7D7;}
	.st68{fill:#787878;}
	.st69{fill:#D35959;}
	.st70{fill:#213F55;}
	.st71{fill:#CCC352;}
	.st72{fill:#FBF6E0;}
	.st73{fill:#BC4444;}
	.st74{clip-path:url(#SVGID_22_);}
	.st75{clip-path:url(#SVGID_24_);fill:#ECECEC;}
	.st76{clip-path:url(#SVGID_26_);}
	.st77{clip-path:url(#SVGID_28_);fill:#ECECEC;}
	.st78{fill:#2A6855;}
	.st79{fill:#34826C;}
</style>
<rect x="409.7" y="215.9" class="st0" width="175.7" height="104.2"/>
<path class="st1" d="M912.7,576.8L912.7,576.8c-1.1-0.2-1.8-1.5-1.5-2.9l0.9-6.3c0-0.2,0.1-0.3,0.3-0.3c0.1,0,0.2,0.2,0.2,0.3
	l-1,6.3c-0.2,1.1,0.3,2.2,1.1,2.3l0.1,0c0.8,0.1,1.6-0.7,1.8-1.8l1.2-8.2c0.1-0.8-0.3-1.6-0.9-1.7c-0.6-0.1-1.2,0.5-1.3,1.4l-1,6.4
	c-0.1,0.5,0.1,0.9,0.5,0.9l0.1,0c0.3,0.1,0.6-0.3,0.7-0.7l0.6-4.2c0-0.2,0.1-0.3,0.3-0.3c0.1,0,0.2,0.2,0.2,0.3l-0.6,4.2
	c-0.1,0.8-0.7,1.4-1.2,1.3l-0.1,0c-0.6-0.1-0.9-0.8-0.8-1.6l1-6.4c0.2-1.2,1-2,1.8-1.9c0.8,0.1,1.4,1.2,1.2,2.4l-1.3,8.2
	C914.7,575.9,913.7,577,912.7,576.8"/>
<g>
	<g>
		<path class="st2" d="M268,174.4c0.6-1.1,1.6-1.9,2.7-2.2c1.2-0.4,2.4-0.2,3.5,0.4l60.1,32.5c2.2,1.2,3.1,4,1.9,6.2l-44.6,82.6
			c-1.2,2.2-4,3.1-6.2,1.9l-60.1-32.5c-1.1-0.6-1.9-1.6-2.2-2.7c-0.4-1.2-0.2-2.4,0.4-3.5L268,174.4z"/>
		
			<rect x="220.6" y="200.2" transform="matrix(0.4114 -0.9115 0.9115 0.4114 -57.6319 388.6342)" class="st3" width="103.1" height="77.6"/>
		<path class="st4" d="M310.1,232.7c-0.5,1.2-1.9,1.7-3,1.1l-16.4-7.4c-1.2-0.5-1.7-1.9-1.1-3l8.7-19.2c0.5-1.2,1.9-1.7,3-1.1
			l16.4,7.4c1.2,0.5,1.7,1.9,1.1,3L310.1,232.7z"/>
		<path class="st5" d="M309.5,218.5c-1.6,3.5-3.3,6.9-5.9,5.8c-0.9-0.4-3.4-1.9-3.9-2.9c-0.9-1.7-0.1-4,0.9-6.2
			c1.6-3.5,3.8-4.8,6.4-3.6C310.1,212.9,311.1,215,309.5,218.5"/>
		<path class="st5" d="M301.8,216.9c-0.5,1.2-1.5,1.9-2.2,1.6c-0.7-0.3-0.8-1.5-0.3-2.7c0.5-1.2,1.5-1.9,2.2-1.6
			C302.2,214.5,302.3,215.7,301.8,216.9"/>
		<polygon class="st5" points="310.6,216 309,221.1 307.3,220.3 309,215.2 		"/>
		<path class="st6" d="M310,215.8l-2.4-1.1c0,0-2.9-1.7-3.5-0.8c-0.6,0.9-0.9,0.8-1,1.4c-0.2,1.2-0.5,1.5-0.5,1.5l-1-0.6
			c0,0,1-1.1,0.3-1.7c-0.5-0.5-1-0.4-1.3-0.2c1-1.7,2.1-5.4,5.3-4c3.2,1.4,5.2,1.8,6.2,2.5C312.8,213.4,312.7,216.2,310,215.8"/>
		<path class="st6" d="M290.6,226.4l17.1,7.7c0.7-1.6,0.8-3.4,0.1-5c-0.6-1.6-1.8-2.9-3.4-3.6l-5.2-2.3c-1.6-0.7-3.4-0.8-5-0.1
			C292.6,223.6,291.3,224.8,290.6,226.4"/>
		<polygon class="st5" points="298.9,223.4 300.4,227.3 303.2,225.3 304.5,222.5 300.1,220.5 		"/>
		<rect x="268.4" y="182" transform="matrix(0.4125 -0.911 0.911 0.4125 -15.6234 357.5059)" class="st4" width="2" height="17.7"/>
		
			<rect x="269.1" y="185.4" transform="matrix(0.4124 -0.911 0.911 0.4124 -21.4456 362.2379)" class="st4" width="2" height="24.7"/>
		
			<rect x="253.4" y="215.1" transform="matrix(0.4124 -0.911 0.911 0.4124 -54.5553 363.2751)" class="st7" width="2" height="17.7"/>
		
			<rect x="267.8" y="225.3" transform="matrix(0.4125 -0.911 0.911 0.4125 -52.0406 380.2172)" class="st7" width="2" height="10.3"/>
		
			<rect x="254.1" y="218.4" transform="matrix(0.4125 -0.911 0.911 0.4125 -60.386 367.9882)" class="st4" width="2" height="24.7"/>
		
			<rect x="279.3" y="229.8" transform="matrix(0.4125 -0.911 0.911 0.4125 -55.9814 397.5895)" class="st4" width="2" height="24.7"/>
		
			<rect x="253.2" y="222.6" transform="matrix(0.4124 -0.911 0.911 0.4124 -66.0663 370.4487)" class="st4" width="2" height="27.6"/>
		<rect x="253.3" y="226.1" transform="matrix(0.4125 -0.911 0.911 0.4125 -71.5668 374.163)" class="st4" width="2" height="33"/>
		<rect x="273" y="239.7" transform="matrix(0.4124 -0.911 0.911 0.4124 -62.5881 393.8107)" class="st4" width="2" height="11.4"/>
		<rect x="249" y="233.8" transform="matrix(0.4124 -0.911 0.911 0.4124 -79.9573 373.9827)" class="st7" width="2" height="30.3"/>
		<rect x="269.1" y="253" transform="matrix(0.4125 -0.911 0.911 0.4125 -76.4331 397.705)" class="st7" width="2" height="10.3"/>
		
			<rect x="241.4" y="242.5" transform="matrix(0.4124 -0.911 0.911 0.4124 -87.2388 368.9081)" class="st4" width="2" height="19.1"/>
		
			<rect x="266.5" y="248.3" transform="matrix(0.4124 -0.911 0.911 0.4124 -82.8393 398.4957)" class="st4" width="2" height="30.4"/>
		<rect x="243" y="245.1" transform="matrix(0.4125 -0.911 0.911 0.4125 -92.4848 374.3549)" class="st4" width="2" height="27.6"/>
		
			<rect x="239.9" y="250.6" transform="matrix(0.4125 -0.911 0.911 0.4125 -98.5419 374.2953)" class="st4" width="2" height="25.9"/>
		
			<rect x="262.8" y="262.2" transform="matrix(0.4125 -0.911 0.911 0.4125 -89.0099 397.7108)" class="st4" width="2" height="11.4"/>
		<path class="st8" d="M281.1,286.9c1-2.1,0.2-4.5-1.7-5.4c-1.9-0.9-4.2,0.2-5.2,2.3c-1,2.1-0.2,4.5,1.7,5.4
			C277.8,290.1,280.1,289.1,281.1,286.9"/>
		<path class="st8" d="M239.5,255.9c1-2.1,0.2-4.5-1.7-5.4c-1.9-0.9-4.2,0.2-5.2,2.3c-1,2.1-0.2,4.5,1.7,5.4
			C236.2,259,238.5,258,239.5,255.9"/>
	</g>
	<ellipse class="st0" cx="205.5" cy="406.4" rx="122.4" ry="32.9"/>
	<path class="st1" d="M112.7,351.6l-26.8-9.9c-1.5-0.5-2.2-2.2-1.7-3.7l8.1-22c0.9-2.4,3.6-3.6,6-2.8l23.5,8.6
		c2.4,0.9,3.6,3.6,2.8,6l-8.1,22C115.8,351.4,114.2,352.2,112.7,351.6z"/>
	<path class="st0" d="M123.3,331.1l-32.2-11.9h0c1.5-4.2,6.2-6.3,10.3-4.8l17.1,6.3C122.7,322.3,124.8,327,123.3,331.1L123.3,331.1z
		"/>
	<path class="st9" d="M98.3,315.8L98.3,315.8c-0.4-0.1-0.5-0.5-0.4-0.9l0.6-1.5l1.3,0.5l-0.6,1.5C99.1,315.8,98.7,316,98.3,315.8z"
		/>
	<path class="st9" d="M106.1,318.7L106.1,318.7c-0.4-0.1-0.5-0.5-0.4-0.9l0.6-1.5l1.3,0.5l-0.6,1.5
		C106.8,318.6,106.4,318.8,106.1,318.7z"/>
	<path class="st9" d="M113.3,321.4L113.3,321.4c-0.4-0.1-0.5-0.5-0.4-0.9l0.6-1.5l1.3,0.5l-0.6,1.5
		C114.1,321.3,113.7,321.5,113.3,321.4z"/>
	<path class="st9" d="M120.6,324L120.6,324c-0.4-0.1-0.5-0.5-0.4-0.9c0,0,0.5-1.4,0.6-1.5c0-0.1,1.3,0.5,1.3,0.5l-0.6,1.5
		C121.4,324,121,324.2,120.6,324z"/>
	<path class="st10" d="M105.9,318.4L105.9,318.4c-0.4-0.1-0.5-0.5-0.4-0.9l0.6-1.7c0.1-0.4,0.5-0.5,0.9-0.4l0,0
		c0.4,0.1,0.5,0.5,0.4,0.9l-0.6,1.7C106.7,318.3,106.3,318.5,105.9,318.4z"/>
	<path class="st11" d="M113.2,321.1L113.2,321.1c-0.4-0.1-0.5-0.5-0.4-0.9l0.6-1.7c0.1-0.4,0.5-0.5,0.9-0.4l0,0
		c0.4,0.1,0.5,0.5,0.4,0.9l-0.6,1.7C114,321,113.6,321.2,113.2,321.1z"/>
	<path class="st11" d="M120.5,323.7L120.5,323.7c-0.4-0.1-0.5-0.5-0.4-0.9l0.6-1.7c0.1-0.4,0.5-0.5,0.9-0.4l0,0
		c0.4,0.1,0.5,0.5,0.4,0.9l-0.6,1.7C121.2,323.7,120.8,323.9,120.5,323.7z"/>
	<path class="st12" d="M115.7,343.5l-10.6,5.2c0,0,0.8-1.3,1.1-2.2c0.2-0.6,0.3-1.1,0.5-1.9c0.7-2.3,2.3-2.4,3-2.5
		c1.1-0.2,2.6,0.8,3.5,1.1C113.7,343.3,115.2,343.8,115.7,343.5z"/>
	<path class="st13" d="M118.4,343.9l-13.3,4.8c0,0,1.1-1.4,1.6-2.4c0.3-0.6,0.4-1.3,0.8-2.2c1.1-2.6,3-2.5,3.9-2.6
		c1.4,0,3,1.3,4.2,1.7C116,343.4,117.8,344.2,118.4,343.9z"/>
	
		<rect x="92.2" y="325.4" transform="matrix(0.9384 0.3456 -0.3456 0.9384 118.7867 -12.5271)" class="st14" width="4.6" height="3"/>
	
		<rect x="90.4" y="330.4" transform="matrix(0.9384 0.3456 -0.3456 0.9384 120.3866 -11.5913)" class="st14" width="4.6" height="3"/>
	
		<rect x="97.2" y="332.9" transform="matrix(0.9384 0.3456 -0.3456 0.9384 121.6772 -13.7977)" class="st14" width="4.6" height="3"/>
	
		<rect x="104.1" y="335.4" transform="matrix(0.9384 0.3456 -0.3456 0.9384 122.9671 -16.0041)" class="st14" width="4.6" height="3"/>
	
		<rect x="110.8" y="337.9" transform="matrix(0.9384 0.3456 -0.3456 0.9384 124.2335 -18.1678)" class="st14" width="4.6" height="3"/>
	
		<rect x="88.6" y="335.3" transform="matrix(0.9384 0.3456 -0.3456 0.9384 121.9865 -10.6555)" class="st14" width="4.6" height="3"/>
	
		<rect x="95.4" y="337.8" transform="matrix(0.9384 0.3456 -0.3456 0.9384 123.2764 -12.8619)" class="st0" width="4.6" height="3"/>
	
		<rect x="102.3" y="340.3" transform="matrix(0.9384 0.3456 -0.3456 0.9384 124.567 -15.0682)" class="st0" width="4.6" height="3"/>
	
		<rect x="99.1" y="327.9" transform="matrix(0.9384 0.3456 -0.3456 0.9384 120.0766 -14.7335)" class="st14" width="4.6" height="3"/>
	
		<rect x="105.9" y="330.4" transform="matrix(0.9384 0.3456 -0.3456 0.9384 121.3672 -16.9399)" class="st14" width="4.6" height="3"/>
	
		<rect x="112.7" y="333" transform="matrix(0.9384 0.3456 -0.3456 0.9384 122.6578 -19.1462)" class="st14" width="4.6" height="3"/>
	<path class="st10" d="M98.2,315.5L98.2,315.5c-0.4-0.1-0.5-0.5-0.4-0.9l0.6-1.7c0.1-0.4,0.5-0.5,0.9-0.4l0,0
		c0.4,0.1,0.5,0.5,0.4,0.9l-0.6,1.7C98.9,315.5,98.5,315.6,98.2,315.5z"/>
	<path class="st15" d="M205.7,253.7l-3.6-1.6c0.5-2.5,0.4-4.6,0.1-6.8l0-0.1l3.7-1.5c0.8-0.3,1.2-1.3,0.9-2.1l-2.6-6.4
		c-0.3-0.8-1.3-1.2-2.1-0.9l-4,1.3c-1.3-1.9-2.1-3.1-5-4.9l0,0l1.9-3.5c0.3-0.8,0-1.6-0.8-2l-6.3-2.7c-0.8-0.3-1.3,0.1-1.7,0.9
		l-1.5,3.7c-2.5-0.5-4.7-0.5-6.9-0.1l-0.1-0.1l-1.5-3.7c-0.3-0.8-1.3-1.2-2.1-0.9l-6.4,2.6c-0.8,0.3-1.2,1.3-0.9,2.1l1.4,3.9
		c-1.9,1.3-3.1,2.1-4.9,5l0,0l-3.6-1.7c-0.8-0.3-1.4-0.2-1.8,0.7l-2.7,6.3c-0.3,0.8-0.1,1.6,0.7,1.9l3.6,1.6
		c-0.5,2.5-0.4,4.5-0.1,6.7l0,0l-3.7,1.5c-0.8,0.3-1.2,1.3-0.9,2.1l2.6,6.4c0.3,0.8,1.3,1.2,2.1,0.9l3.8-1.4
		c1.3,1.9,2.7,3.4,4.9,4.8l0,0l-1.6,3.6c-0.3,0.8-0.3,1.7,0.5,2l6.3,2.7c0.8,0.3,1.8-0.1,2.2-0.9l1.3-3.7c2.5,0.5,4.4,0.3,6.4-0.1
		l0,0l1.7,3.8c0.3,0.8,1.4,1.3,2.2,0.9l6.5-2.5c0.8-0.3,1.2-1.2,0.9-2.1l-1.4-3.9c1.9-1.3,3-2,4.9-4.9l0,0l3.6,1.7
		c0.8,0.3,1.9,0.2,2.2-0.6l2.7-6.3C207.2,254.8,206.5,254,205.7,253.7z M173.6,255.1c-0.1-0.1-0.1-0.2-0.2-0.2
		c-0.2-0.2-0.4-0.5-0.6-0.8c-0.1-0.1-0.2-0.3-0.3-0.4c-0.1-0.1-0.2-0.3-0.2-0.4c0-0.1-0.1-0.1-0.1-0.2c-0.2-0.4-0.4-0.8-0.6-1.3
		c-0.2-0.4-0.3-0.9-0.4-1.3c0-0.2-0.1-0.4-0.1-0.5c-0.1-0.5-0.1-1.1-0.1-1.7c0-1.3,0.3-2.6,0.8-3.9c1.2-2.7,3.3-4.6,5.9-5.5
		c0.2-0.1,0.5-0.1,0.7-0.2c0.1,0,0.2,0,0.2-0.1c0.2,0,0.3-0.1,0.5-0.1c0.5-0.1,0.9-0.1,1.4-0.2c0.2,0,0.3,0,0.5,0
		c1.3,0,2.6,0.3,3.9,0.8c1.5,0.6,2.8,1.6,3.7,2.8c0.1,0.1,0.2,0.2,0.3,0.4c0.1,0.2,0.3,0.4,0.4,0.6c0.1,0.1,0.2,0.3,0.2,0.4
		c0,0.1,0.1,0.1,0.1,0.2c0.1,0.1,0.1,0.3,0.2,0.4c0.1,0.2,0.2,0.4,0.3,0.7c0.1,0.1,0.1,0.3,0.2,0.4c0.1,0.4,0.2,0.8,0.3,1.1
		c0,0.2,0.1,0.3,0.1,0.5c0,0.2,0,0.3,0.1,0.5c0,0.2,0,0.5,0.1,0.7c0.1,1.4-0.2,2.9-0.8,4.3c-0.3,0.8-0.8,1.5-1.3,2.2
		c-0.1,0.1-0.2,0.3-0.3,0.4c-0.2,0.2-0.3,0.4-0.5,0.5c-0.1,0.1-0.2,0.2-0.3,0.3c-0.1,0.1-0.2,0.1-0.2,0.2c-0.2,0.1-0.3,0.3-0.5,0.4
		c-0.1,0.1-0.3,0.2-0.4,0.3c-0.1,0.1-0.2,0.1-0.3,0.2c-0.1,0.1-0.2,0.1-0.3,0.2c-0.1,0-0.1,0.1-0.2,0.1c-0.1,0.1-0.3,0.1-0.4,0.2
		c-0.1,0-0.1,0.1-0.2,0.1c-0.1,0.1-0.3,0.1-0.4,0.2c-0.1,0-0.1,0.1-0.2,0.1c-0.3,0.1-0.6,0.2-0.9,0.3c-0.1,0-0.2,0-0.2,0.1
		c-0.2,0-0.3,0.1-0.5,0.1c-0.2,0-0.3,0.1-0.5,0.1c-0.1,0-0.2,0-0.2,0c-0.2,0-0.3,0-0.5,0c-1.5,0.1-3.1-0.1-4.6-0.8
		c-1.2-0.5-2.3-1.2-3.1-2.1C173.8,255.2,173.7,255.2,173.6,255.1z"/>
	<path class="st16" d="M322,434.6H89.6c-2.6,0-5.3-1.3-5.6-5.1v-3.5l25.4-47c1.4-2.8,4.2-4.5,7.3-4.5h177.9c3.3,0,10.6,6.5,12.1,9.5
		l21,42.8v1.5C327.7,432.8,324.8,434.6,322,434.6z"/>
	<path class="st17" d="M322,429.7H89.6c-2.6,0-6.8-2.3-5.2-5l25.1-50.5c1.4-2.8,4.2-4.5,7.3-4.5h177.9c3.3,0,6.4,1.9,7.8,4.8
		l24.8,49.7C329,427.4,324.9,429.7,322,429.7z"/>
	<rect x="109.4" y="244.4" class="st16" width="190.3" height="120.3"/>
	<rect x="116.7" y="250.9" class="st18" width="175.7" height="104.2"/>
	<path class="st15" d="M239.5,427.5H171c-0.8,0-1.3-0.7-1.2-1.4l2.9-18c0.2-1,1-1.7,2-1.7h61.8c0.9,0,1.6,0.6,1.7,1.5l2.6,18.1
		C240.9,426.8,240.3,427.5,239.5,427.5z"/>
	<path class="st15" d="M127,380.4h-7.4c-1,0-1.8-0.3-1.6-0.7l0.5-1.1c0.2-0.4,1.1-0.7,2.1-0.7h7.3c1,0,1.7,0.3,1.6,0.7l-0.4,1.1
		C129,380.1,128.1,380.4,127,380.4z"/>
	<path class="st15" d="M139.6,380.4h-7.4c-1,0-1.8-0.3-1.6-0.7l0.4-1.1c0.1-0.4,1.1-0.7,2.1-0.7h7.3c1,0,1.8,0.3,1.7,0.7l-0.3,1.1
		C141.5,380.1,140.6,380.4,139.6,380.4z"/>
	<path class="st15" d="M152.1,380.4h-7.4c-1,0-1.8-0.3-1.7-0.7l0.3-1.1c0.1-0.4,1-0.7,2-0.7h7.3c1,0,1.8,0.3,1.7,0.7l-0.3,1.1
		C154.1,380.1,153.1,380.4,152.1,380.4z"/>
	<path class="st15" d="M164.6,380.4h-7.4c-1,0-1.8-0.3-1.7-0.7l0.3-1.1c0.1-0.4,1-0.7,2-0.7h7.3c1,0,1.8,0.3,1.7,0.7l-0.2,1.1
		C166.6,380.1,165.7,380.4,164.6,380.4z"/>
	<path class="st15" d="M177.2,380.4h-7.4c-1,0-1.8-0.3-1.8-0.7l0.2-1.1c0.1-0.4,0.9-0.7,2-0.7h7.3c1,0,1.8,0.3,1.8,0.7l-0.1,1.1
		C179.1,380.1,178.2,380.4,177.2,380.4z"/>
	<path class="st15" d="M189.7,380.4h-7.4c-1,0-1.8-0.3-1.8-0.7l0.1-1.1c0-0.4,0.9-0.7,1.9-0.7h7.3c1,0,1.8,0.3,1.8,0.7l-0.1,1.1
		C191.6,380.1,190.7,380.4,189.7,380.4z"/>
	<path class="st15" d="M202.2,380.4h-7.4c-1,0-1.9-0.3-1.8-0.7l0.1-1.1c0-0.4,0.9-0.7,1.9-0.7h7.3c1,0,1.9,0.3,1.9,0.7l0,1.1
		C204.1,380.1,203.3,380.4,202.2,380.4z"/>
	<path class="st15" d="M214.8,380.4h-7.4c-1,0-1.9-0.3-1.9-0.7l0-1.1c0-0.4,0.8-0.7,1.9-0.7h7.3c1,0,1.9,0.3,1.9,0.7l0.1,1.1
		C216.6,380.1,215.8,380.4,214.8,380.4z"/>
	<path class="st15" d="M227.3,380.4h-7.4c-1,0-1.9-0.3-1.9-0.7l-0.1-1.1c0-0.4,0.8-0.7,1.8-0.7h7.3c1,0,1.9,0.3,1.9,0.7l0.1,1.1
		C229.1,380.1,228.3,380.4,227.3,380.4z"/>
	<path class="st15" d="M239.8,380.4h-7.4c-1,0-1.9-0.3-2-0.7l-0.1-1.1c0-0.4,0.7-0.7,1.8-0.7h7.3c1,0,1.9,0.3,2,0.7l0.2,1.1
		C241.7,380.1,240.9,380.4,239.8,380.4z"/>
	<path class="st15" d="M252.4,380.4h-7.4c-1,0-1.9-0.3-2-0.7l-0.2-1.1c-0.1-0.4,0.7-0.7,1.7-0.7h7.3c1,0,1.9,0.3,2,0.7l0.3,1.1
		C254.2,380.1,253.4,380.4,252.4,380.4z"/>
	<path class="st15" d="M264.9,380.4h-7.4c-1,0-1.9-0.3-2-0.7l-0.3-1.1c-0.1-0.4,0.7-0.7,1.7-0.7h7.3c1,0,1.9,0.3,2.1,0.7l0.3,1.1
		C266.7,380.1,265.9,380.4,264.9,380.4z"/>
	<path class="st15" d="M277.4,380.4H270c-1,0-2-0.3-2.1-0.7l-0.3-1.1c-0.1-0.4,0.6-0.7,1.7-0.7h7.3c1,0,2,0.3,2.1,0.7l0.4,1.1
		C279.2,380.1,278.5,380.4,277.4,380.4z"/>
	<path class="st15" d="M290,380.4h-7.4c-1,0-2-0.3-2.1-0.7l-0.4-1.1c-0.1-0.4,0.6-0.7,1.6-0.7h7.3c1,0,2,0.3,2.1,0.7l0.5,1.1
		C291.7,380.1,291,380.4,290,380.4z"/>
	<path class="st15" d="M126.4,384.6h-9.5c-0.2,0-0.4-0.1-0.4-0.2l1.4-3.5c0-0.1,0.3-0.2,0.5-0.2h9.3c0.2,0,0.4,0.1,0.4,0.2l-1.2,3.5
		C126.8,384.5,126.6,384.6,126.4,384.6z"/>
	<path class="st15" d="M143.9,389.2h-9.7c-0.2,0-0.4-0.1-0.4-0.2l1.2-3.6c0-0.1,0.2-0.2,0.5-0.2h9.5c0.2,0,0.4,0.1,0.4,0.2l-1,3.6
		C144.3,389.1,144.1,389.2,143.9,389.2z"/>
	<path class="st15" d="M145.5,393.9h-9.9c-0.2,0-0.4-0.1-0.4-0.2l1.2-3.8c0-0.1,0.2-0.2,0.5-0.2h9.7c0.2,0,0.4,0.1,0.4,0.2l-1,3.8
		C145.9,393.8,145.7,393.9,145.5,393.9z"/>
	<path class="st15" d="M151,398.9h-10.1c-0.3,0-0.4-0.1-0.4-0.2l1.1-3.9c0-0.1,0.2-0.2,0.5-0.2h9.9c0.2,0,0.4,0.1,0.4,0.2l-0.9,3.9
		C151.5,398.8,151.3,398.9,151,398.9z"/>
	<path class="st15" d="M119.1,404.6h-10.3c-0.3,0-0.5-0.1-0.4-0.2l1.9-4.7c0-0.1,0.3-0.2,0.6-0.2H121c0.3,0,0.5,0.1,0.4,0.2
		l-1.7,4.7C119.7,404.5,119.4,404.6,119.1,404.6z"/>
	<path class="st15" d="M132.9,404.6h-10.3c-0.3,0-0.5-0.1-0.4-0.2l1.6-4.7c0-0.1,0.3-0.2,0.6-0.2h10.1c0.3,0,0.5,0.1,0.4,0.2
		l-1.4,4.7C133.4,404.5,133.2,404.6,132.9,404.6z"/>
	<path class="st15" d="M146.2,404.6h-10.3c-0.3,0-0.5-0.1-0.4-0.2l1.4-4.7c0-0.1,0.3-0.2,0.5-0.2h10.1c0.3,0,0.5,0.1,0.4,0.2
		l-1.1,4.7C146.7,404.5,146.5,404.6,146.2,404.6z"/>
	<path class="st15" d="M163,404.6h-13.6c-0.3,0-0.5-0.1-0.5-0.2l1.1-4.6c0-0.1,0.3-0.2,0.6-0.2h13.3c0.3,0,0.5,0.1,0.5,0.2l-0.8,4.6
		C163.6,404.5,163.4,404.6,163,404.6z"/>
	<path class="st15" d="M246.6,404.6H233c-0.3,0-0.6-0.1-0.6-0.2l-0.5-4.6c0-0.1,0.2-0.2,0.5-0.2h13.3c0.3,0,0.6,0.1,0.6,0.2l0.8,4.6
		C247.2,404.5,246.9,404.6,246.6,404.6z"/>
	<path class="st15" d="M260.4,404.6h-10.2c-0.3,0-0.5-0.1-0.5-0.2l-0.9-4.7c0-0.1,0.2-0.2,0.4-0.2h9.9c0.3,0,0.5,0.1,0.5,0.2
		l1.1,4.7C260.9,404.5,260.7,404.6,260.4,404.6z"/>
	<path class="st15" d="M229.7,404.6H167c-0.7,0-1.2-0.2-1.1-0.5l0.7-4.1c0-0.3,0.6-0.5,1.2-0.5h61.4c0.6,0,1.2,0.2,1.2,0.5l0.5,4.1
		C230.8,404.4,230.3,404.6,229.7,404.6z"/>
	<path class="st15" d="M164.1,398.9H154c-0.3,0-0.4-0.1-0.4-0.2l0.9-3.9c0-0.1,0.2-0.2,0.5-0.2h9.9c0.2,0,0.4,0.1,0.4,0.2l-0.7,3.9
		C164.6,398.8,164.4,398.9,164.1,398.9z"/>
	<path class="st15" d="M177.3,398.9h-10.1c-0.3,0-0.4-0.1-0.4-0.2l0.6-3.9c0-0.1,0.2-0.2,0.5-0.2h9.9c0.2,0,0.4,0.1,0.4,0.2
		l-0.5,3.9C177.7,398.8,177.5,398.9,177.3,398.9z"/>
	<path class="st15" d="M190.4,398.9h-10.1c-0.3,0-0.4-0.1-0.4-0.2l0.4-3.9c0-0.1,0.2-0.2,0.5-0.2h9.9c0.2,0,0.4,0.1,0.4,0.2
		l-0.2,3.9C190.8,398.8,190.6,398.9,190.4,398.9z"/>
	<path class="st15" d="M203.5,398.9h-10.1c-0.3,0-0.5-0.1-0.4-0.2l0.2-3.9c0-0.1,0.2-0.2,0.5-0.2h9.9c0.2,0,0.4,0.1,0.4,0.2l0,3.9
		C204,398.8,203.8,398.9,203.5,398.9z"/>
	<path class="st15" d="M216.6,398.9h-10.1c-0.3,0-0.5-0.1-0.5-0.2l0-3.9c0-0.1,0.2-0.2,0.4-0.2h9.9c0.2,0,0.5,0.1,0.5,0.2l0.2,3.9
		C217.1,398.8,216.9,398.9,216.6,398.9z"/>
	<path class="st15" d="M229.8,398.9h-10.1c-0.3,0-0.5-0.1-0.5-0.2l-0.3-3.9c0-0.1,0.2-0.2,0.4-0.2h9.9c0.2,0,0.5,0.1,0.5,0.2
		l0.4,3.9C230.2,398.8,230,398.9,229.8,398.9z"/>
	<path class="st15" d="M242.9,398.9h-10.1c-0.3,0-0.5-0.1-0.5-0.2l-0.5-3.9c0-0.1,0.2-0.2,0.4-0.2h9.9c0.2,0,0.5,0.1,0.5,0.2
		l0.7,3.9C243.3,398.8,243.1,398.9,242.9,398.9z"/>
	<path class="st15" d="M256,398.9h-10.1c-0.3,0-0.5-0.1-0.5-0.2l-0.7-3.9c0-0.1,0.2-0.2,0.4-0.2h9.9c0.2,0,0.5,0.1,0.5,0.2l0.9,3.9
		C256.4,398.8,256.2,398.9,256,398.9z"/>
	<path class="st15" d="M272.6,404.7h-7.9c-1,0-1.9-0.3-2-0.7l-0.3-1.2c-0.1-0.4,0.6-0.7,1.6-0.7h7.8c1,0,1.9,0.3,2,0.7l0.3,1.2
		C274.3,404.4,273.6,404.7,272.6,404.7z"/>
	<path class="st15" d="M286.1,404.7h-7.9c-1,0-1.9-0.3-2-0.7l-0.4-1.2c-0.1-0.4,0.6-0.7,1.6-0.7h7.8c1,0,1.9,0.3,2,0.7l0.4,1.2
		C287.8,404.4,287.1,404.7,286.1,404.7z"/>
	<path class="st15" d="M285,401.7h-7.8c-1,0-1.9-0.3-2-0.7l-0.3-1.2c-0.1-0.4,0.6-0.7,1.6-0.7h7.7c1,0,1.9,0.3,2,0.7l0.4,1.2
		C286.7,401.4,286,401.7,285,401.7z"/>
	<path class="st15" d="M299.5,404.7h-7.9c-1,0-1.9-0.3-2.1-0.7l-0.4-1.2c-0.1-0.4,0.5-0.7,1.5-0.7h7.8c1,0,1.9,0.3,2.1,0.7l0.5,1.2
		C301.2,404.4,300.6,404.7,299.5,404.7z"/>
	<path class="st15" d="M158.4,393.9h-9.9c-0.2,0-0.4-0.1-0.4-0.2l0.9-3.8c0-0.1,0.2-0.2,0.5-0.2h9.7c0.2,0,0.4,0.1,0.4,0.2l-0.8,3.8
		C158.9,393.8,158.7,393.9,158.4,393.9z"/>
	<path class="st15" d="M171.4,393.9h-9.9c-0.2,0-0.4-0.1-0.4-0.2l0.7-3.8c0-0.1,0.2-0.2,0.5-0.2h9.7c0.2,0,0.4,0.1,0.4,0.2l-0.5,3.8
		C171.8,393.8,171.6,393.9,171.4,393.9z"/>
	<path class="st15" d="M184.3,393.9h-9.9c-0.2,0-0.4-0.1-0.4-0.2l0.5-3.8c0-0.1,0.2-0.2,0.5-0.2h9.7c0.2,0,0.4,0.1,0.4,0.2l-0.3,3.8
		C184.8,393.8,184.6,393.9,184.3,393.9z"/>
	<path class="st15" d="M197.2,393.9h-9.9c-0.2,0-0.4-0.1-0.4-0.2l0.3-3.8c0-0.1,0.2-0.2,0.5-0.2h9.7c0.2,0,0.4,0.1,0.4,0.2l-0.1,3.8
		C197.7,393.8,197.5,393.9,197.2,393.9z"/>
	<path class="st15" d="M210.2,393.9h-9.9c-0.2,0-0.4-0.1-0.4-0.2l0.1-3.8c0-0.1,0.2-0.2,0.4-0.2h9.7c0.2,0,0.4,0.1,0.4,0.2l0.1,3.8
		C210.6,393.8,210.4,393.9,210.2,393.9z"/>
	<path class="st15" d="M222.6,393.9h-9.9c-0.2,0-0.4-0.1-0.5-0.2l-0.1-3.8c0-0.1,0.2-0.2,0.4-0.2h9.7c0.2,0,0.4,0.1,0.5,0.2l0.3,3.8
		C223,393.8,222.8,393.9,222.6,393.9z"/>
	<path class="st15" d="M235.4,393.9h-9.9c-0.2,0-0.5-0.1-0.5-0.2l-0.3-3.8c0-0.1,0.2-0.2,0.4-0.2h9.7c0.2,0,0.4,0.1,0.5,0.2l0.5,3.8
		C235.9,393.8,235.7,393.9,235.4,393.9z"/>
	<path class="st15" d="M248.3,393.9h-9.9c-0.2,0-0.5-0.1-0.5-0.2l-0.6-3.8c0-0.1,0.2-0.2,0.4-0.2h9.7c0.2,0,0.5,0.1,0.5,0.2l0.7,3.8
		C248.7,393.8,248.5,393.9,248.3,393.9z"/>
	<path class="st15" d="M261,393.9h-9.9c-0.2,0-0.5-0.1-0.5-0.2l-0.8-3.8c0-0.1,0.2-0.2,0.4-0.2h9.7c0.2,0,0.5,0.1,0.5,0.2l0.9,3.8
		C261.5,393.8,261.3,393.9,261,393.9z"/>
	<path class="st15" d="M273.8,393.9h-9.9c-0.2,0-0.5-0.1-0.5-0.2l-1-3.8c0-0.1,0.2-0.2,0.4-0.2h9.7c0.2,0,0.5,0.1,0.5,0.2l1.2,3.8
		C274.2,393.8,274,393.9,273.8,393.9z"/>
	<path class="st15" d="M269,398.9h-10.1c-0.3,0-0.5-0.1-0.5-0.2l-0.9-3.9c0-0.1,0.2-0.2,0.4-0.2h9.9c0.2,0,0.5,0.1,0.5,0.2l1.1,3.9
		C269.4,398.8,269.2,398.9,269,398.9z"/>
	<path class="st15" d="M296.4,393.9h-19.1c-0.3,0-0.6-0.1-0.7-0.2l-1.2-3.6c0-0.1,0.2-0.2,0.5-0.2h18.7c0.3,0,0.6,0.1,0.7,0.2
		l1.5,3.6C297,393.8,296.7,393.9,296.4,393.9z"/>
	<path class="st15" d="M298.3,398.9h-26.2c-0.4,0-0.8-0.1-0.8-0.3l-1.1-3.7c0-0.2,0.2-0.3,0.6-0.3h25.7c0.4,0,0.8,0.1,0.8,0.3
		l1.5,3.7C299,398.7,298.7,398.9,298.3,398.9z"/>
	<path class="st15" d="M132.6,393.9h-19.3c-0.3,0-0.6-0.1-0.5-0.2l1.5-3.6c0.1-0.1,0.4-0.2,0.7-0.2h18.9c0.3,0,0.6,0.1,0.5,0.2
		l-1.1,3.6C133.2,393.8,132.9,393.9,132.6,393.9z"/>
	<path class="st15" d="M137.7,398.9h-26.5c-0.4,0-0.7-0.1-0.6-0.3l1.5-3.7c0.1-0.2,0.4-0.3,0.8-0.3H139c0.4,0,0.7,0.1,0.6,0.3
		l-1.1,3.7C138.5,398.7,138.1,398.9,137.7,398.9z"/>
	<path class="st15" d="M156.5,389.2h-9.7c-0.2,0-0.4-0.1-0.4-0.2l0.9-3.6c0-0.1,0.2-0.2,0.5-0.2h9.5c0.2,0,0.4,0.1,0.4,0.2L157,389
		C156.9,389.1,156.7,389.2,156.5,389.2z"/>
	<path class="st15" d="M169,389.2h-9.7c-0.2,0-0.4-0.1-0.4-0.2l0.7-3.6c0-0.1,0.2-0.2,0.5-0.2h9.5c0.2,0,0.4,0.1,0.4,0.2l-0.6,3.6
		C169.5,389.1,169.3,389.2,169,389.2z"/>
	<path class="st15" d="M181.7,389.2H172c-0.2,0-0.4-0.1-0.4-0.2l0.5-3.6c0-0.1,0.2-0.2,0.5-0.2h9.5c0.2,0,0.4,0.1,0.4,0.2l-0.4,3.6
		C182.1,389.1,181.9,389.2,181.7,389.2z"/>
	<path class="st15" d="M194.3,389.2h-9.7c-0.2,0-0.4-0.1-0.4-0.2l0.3-3.6c0-0.1,0.2-0.2,0.4-0.2h9.5c0.2,0,0.4,0.1,0.4,0.2l-0.2,3.6
		C194.7,389.1,194.5,389.2,194.3,389.2z"/>
	<path class="st15" d="M206.8,389.2h-9.7c-0.2,0-0.4-0.1-0.4-0.2l0.1-3.6c0-0.1,0.2-0.2,0.4-0.2h9.5c0.2,0,0.4,0.1,0.4,0.2l0,3.6
		C207.3,389.1,207.1,389.2,206.8,389.2z"/>
	<path class="st15" d="M219.1,389.2h-9.7c-0.2,0-0.4-0.1-0.4-0.2l-0.1-3.6c0-0.1,0.2-0.2,0.4-0.2h9.5c0.2,0,0.4,0.1,0.4,0.2l0.2,3.6
		C219.5,389.1,219.3,389.2,219.1,389.2z"/>
	<path class="st15" d="M231.8,389.2h-9.7c-0.2,0-0.4-0.1-0.4-0.2l-0.3-3.6c0-0.1,0.2-0.2,0.4-0.2h9.5c0.2,0,0.4,0.1,0.4,0.2l0.5,3.6
		C232.3,389.1,232.1,389.2,231.8,389.2z"/>
	<path class="st15" d="M244.4,389.2h-9.7c-0.2,0-0.4-0.1-0.5-0.2l-0.5-3.6c0-0.1,0.2-0.2,0.4-0.2h9.5c0.2,0,0.4,0.1,0.5,0.2l0.7,3.6
		C244.8,389.1,244.6,389.2,244.4,389.2z"/>
	<path class="st15" d="M256.8,389.2h-9.7c-0.2,0-0.5-0.1-0.5-0.2l-0.7-3.6c0-0.1,0.2-0.2,0.4-0.2h9.5c0.2,0,0.4,0.1,0.5,0.2l0.9,3.6
		C257.2,389.1,257,389.2,256.8,389.2z"/>
	<path class="st15" d="M269.6,389.2H260c-0.2,0-0.5-0.1-0.5-0.2l-0.9-3.6c0-0.1,0.2-0.2,0.4-0.2h9.5c0.2,0,0.5,0.1,0.5,0.2l1.1,3.6
		C270.1,389.1,269.9,389.2,269.6,389.2z"/>
	<path class="st15" d="M282,389.2h-9.7c-0.2,0-0.5-0.1-0.5-0.2l-1.1-3.6c0-0.1,0.1-0.2,0.4-0.2h9.5c0.2,0,0.5,0.1,0.5,0.2l1.3,3.6
		C282.4,389.1,282.2,389.2,282,389.2z"/>
	<path class="st15" d="M294.6,389.2H285c-0.2,0-0.5-0.1-0.5-0.2l-1.3-3.6c0-0.1,0.1-0.2,0.4-0.2h9.5c0.2,0,0.5,0.1,0.5,0.2l1.5,3.6
		C295,389.1,294.9,389.2,294.6,389.2z"/>
	<path class="st15" d="M138.9,384.6h-9.5c-0.2,0-0.4-0.1-0.4-0.2l1.2-3.5c0-0.1,0.2-0.2,0.5-0.2h9.3c0.2,0,0.4,0.1,0.4,0.2l-1,3.5
		C139.4,384.5,139.1,384.6,138.9,384.6z"/>
	<path class="st15" d="M151.1,384.6h-9.5c-0.2,0-0.4-0.1-0.4-0.2l1-3.5c0-0.1,0.2-0.2,0.5-0.2h9.3c0.2,0,0.4,0.1,0.4,0.2l-0.8,3.5
		C151.5,384.5,151.3,384.6,151.1,384.6z"/>
	<path class="st15" d="M163.5,384.6H154c-0.2,0-0.4-0.1-0.4-0.2l0.8-3.5c0-0.1,0.2-0.2,0.5-0.2h9.3c0.2,0,0.4,0.1,0.4,0.2l-0.6,3.5
		C164,384.5,163.8,384.6,163.5,384.6z"/>
	<path class="st15" d="M175.7,384.6h-9.5c-0.2,0-0.4-0.1-0.4-0.2l0.6-3.5c0-0.1,0.2-0.2,0.4-0.2h9.3c0.2,0,0.4,0.1,0.4,0.2l-0.5,3.5
		C176.1,384.5,175.9,384.6,175.7,384.6z"/>
	<path class="st15" d="M188.2,384.6h-9.5c-0.2,0-0.4-0.1-0.4-0.2l0.4-3.5c0-0.1,0.2-0.2,0.4-0.2h9.3c0.2,0,0.4,0.1,0.4,0.2l-0.3,3.5
		C188.7,384.5,188.5,384.6,188.2,384.6z"/>
	<path class="st15" d="M200.3,384.6h-9.5c-0.2,0-0.4-0.1-0.4-0.2l0.2-3.5c0-0.1,0.2-0.2,0.4-0.2h9.3c0.2,0,0.4,0.1,0.4,0.2l-0.1,3.5
		C200.7,384.5,200.5,384.6,200.3,384.6z"/>
	<path class="st15" d="M212.8,384.6h-9.5c-0.2,0-0.4-0.1-0.4-0.2l0-3.5c0-0.1,0.2-0.2,0.4-0.2h9.3c0.2,0,0.4,0.1,0.4,0.2l0.1,3.5
		C213.2,384.5,213,384.6,212.8,384.6z"/>
	<path class="st15" d="M225,384.6h-9.5c-0.2,0-0.4-0.1-0.4-0.2l-0.2-3.5c0-0.1,0.2-0.2,0.4-0.2h9.3c0.2,0,0.4,0.1,0.4,0.2l0.3,3.5
		C225.4,384.5,225.2,384.6,225,384.6z"/>
	<path class="st15" d="M237.4,384.6H228c-0.2,0-0.4-0.1-0.4-0.2l-0.4-3.5c0-0.1,0.2-0.2,0.4-0.2h9.3c0.2,0,0.4,0.1,0.4,0.2l0.5,3.5
		C237.9,384.5,237.7,384.6,237.4,384.6z"/>
	<path class="st15" d="M249.9,384.6h-9.5c-0.2,0-0.4-0.1-0.5-0.2l-0.6-3.5c0-0.1,0.2-0.2,0.4-0.2h9.3c0.2,0,0.4,0.1,0.5,0.2l0.7,3.5
		C250.3,384.5,250.1,384.6,249.9,384.6z"/>
	<path class="st15" d="M262.3,384.6h-9.5c-0.2,0-0.4-0.1-0.5-0.2l-0.8-3.5c0-0.1,0.2-0.2,0.4-0.2h9.3c0.2,0,0.4,0.1,0.5,0.2l0.9,3.5
		C262.7,384.5,262.5,384.6,262.3,384.6z"/>
	<path class="st15" d="M274.1,384.6h-9.5c-0.2,0-0.4-0.1-0.5-0.2l-1-3.5c0-0.1,0.1-0.2,0.4-0.2h9.3c0.2,0,0.4,0.1,0.5,0.2l1.1,3.5
		C274.5,384.5,274.3,384.6,274.1,384.6z"/>
	<path class="st15" d="M291.9,384.6h-14.2c-0.7,0-1.3-0.2-1.3-0.4l-1-2.9c-0.1-0.2,0.4-0.4,1-0.4h13.9c0.6,0,1.2,0.2,1.3,0.4
		l1.2,2.9C293,384.4,292.5,384.6,291.9,384.6z"/>
	<path class="st15" d="M130.3,389.2h-14.5c-0.7,0-1.1-0.2-1-0.5l1.2-3c0.1-0.2,0.7-0.4,1.4-0.4h14.2c0.7,0,1.1,0.2,1,0.4l-1,3
		C131.6,388.9,131,389.2,130.3,389.2z"/>
	<rect x="122.3" y="364.7" class="st15" width="28.3" height="5"/>
	<rect x="258.3" y="364.6" class="st15" width="28.3" height="5.1"/>
	<path class="st0" d="M144.2,270.8L93,289.6l-5.1,9.5l-1.9-6.9l-3.6,1.3c-1.6,0.6-3.3-0.2-3.9-1.8l-13.6-37
		c-0.6-1.6,0.2-3.3,1.8-3.9l61.8-22.7c1.6-0.6,3.3,0.2,3.9,1.8l13.6,37C146.6,268.5,145.8,270.2,144.2,270.8z"/>
	<path class="st19" d="M126.2,291.6l41.5-15.3l8.1,3.1l-2.4-5.2l2.9-1.1c1.3-0.5,1.9-1.9,1.5-3.1L167,240.4
		c-0.5-1.2-1.9-1.9-3.1-1.4l-50.1,18.4c-1.3,0.5-1.9,1.9-1.5,3.1l10.9,29.6C123.6,291.4,125,292,126.2,291.6z"/>
	
		<ellipse transform="matrix(0.9387 -0.3449 0.3449 0.9387 -84.5597 63.2333)" class="st1" cx="135.5" cy="269.3" rx="2.7" ry="2.7"/>
	
		<ellipse transform="matrix(0.9387 -0.3449 0.3449 0.9387 -82.7104 66.4032)" class="st1" cx="145.3" cy="265.7" rx="2.7" ry="2.7"/>
	
		<ellipse transform="matrix(0.9387 -0.3449 0.3449 0.9387 -80.9766 69.3747)" class="st1" cx="154.5" cy="262.3" rx="2.7" ry="2.7"/>
	<polygon class="st0" points="281.5,316.4 303.1,296.7 324.8,316.1 324.6,342.8 282.2,342.9 	"/>
	
		<rect x="285.4" y="306.3" transform="matrix(1 -2.286309e-03 2.286309e-03 1 -0.7394 0.6944)" class="st1" width="35.9" height="34.9"/>
	<polygon class="st0" points="281.6,346.9 324.8,346.8 309.5,332.5 296.9,332.5 	"/>
	<polygon class="st6" points="281.6,346.9 281.6,317.2 297,332.5 	"/>
	<polygon class="st6" points="324.9,346.8 324.8,317.1 309.5,332.5 	"/>
	<g>
		<path class="st19" d="M200.7,265.3l-18.5,17.9c1.3,1.4,3,3.4,5.2,5.7c-1,1-2,0.8-3.2,2.5c-1.4,1.9-0.7,4.1,1.2,5.5
			c1.9,1.4,4.4,1.5,5.8-0.4c1-1.3,0.7-2.2,0.7-3c2.7,2.7,5.8,5.8,9.4,9c4-4,7.7-7.5,10.9-10.4c-1.2-0.6-2.3,0.2-3.8-1.4
			c-1.6-1.7-1.1-4.1,0.6-5.8c1.7-1.6,4-2,5.6-0.3c1.5,1.5,1.1,2.5,1.9,3.6c2-1.7,3.7-3.2,5.1-4.3l-18-18.6
			C202.8,264.5,201.5,264.5,200.7,265.3"/>
		<path class="st1" d="M205.7,279.5c0-2.7-2.2-4.8-4.8-4.8s-4.8,2.2-4.8,4.8c0,2.5,1.8,4.5,4.2,4.8v0.4h0v0.2h-0.1
			c-0.2,0-0.3,0.1-0.3,0.3l-0.4,6.4c0,0.1,0,0.2,0.1,0.2c0.1,0.1,0.1,0.1,0.2,0.1h2.1c0.1,0,0.2,0,0.2-0.1c0.1-0.1,0.1-0.1,0.1-0.2
			l-0.4-6.4c0-0.2-0.1-0.3-0.3-0.3h-0.1v-0.6C203.9,284,205.7,282,205.7,279.5 M197.6,279.5c0-1.8,1.5-3.3,3.3-3.3
			c1.8,0,3.3,1.5,3.3,3.3c0,1.8-1.5,3.3-3.3,3.3C199.1,282.8,197.6,281.4,197.6,279.5"/>
		<path class="st1" d="M201.2,302.5c-3.5-3.3-6.7-6.3-9.4-9c0.1,0.9,0.3,1.7-0.7,3c-1.4,1.9-3.9,1.8-5.8,0.4
			c-1.9-1.4-2.6-3.6-1.2-5.5c1.3-1.7,2.3-1.5,3.2-2.5c-2.2-2.4-4-4.3-5.2-5.7l-18.4,17.8c-0.8,0.8-0.8,2.1-0.1,2.9l18.1,18.7
			c0.9-0.9,1.9-1.9,2.9-3c0.4,0.7,0.6,1.5,1.9,2.5c1.9,1.4,4.1,0.6,5.5-1.2c1.4-1.9,1.5-4.4-0.4-5.8c-0.8-0.6-1.4-0.7-1.9-0.7
			c2.8-2.9,5.9-6.1,9.5-9.7C199.9,303.8,200.6,303.1,201.2,302.5"/>
		<path class="st17" d="M181.1,304.2c0-0.5,0.3-0.9,0.8-1.2c-0.1-0.3-0.2-0.6-0.3-0.8c-0.5,0.1-0.9-0.1-1.3-0.4
			c-0.4-0.4-0.5-0.8-0.3-1.3c-0.3-0.1-0.5-0.2-0.8-0.3c-0.3,0.5-0.8,0.8-1.3,0.8c-0.5,0-1-0.3-1.3-0.8c-0.3,0.1-0.5,0.2-0.8,0.3
			c0.1,0.5,0,0.9-0.3,1.3c-0.4,0.4-0.8,0.6-1.3,0.4c-0.1,0.3-0.2,0.5-0.3,0.8c0.5,0.3,0.8,0.7,0.8,1.2c0,0.5-0.3,1-0.8,1.3
			c0.1,0.3,0.2,0.5,0.3,0.8c0.5-0.1,0.9,0,1.3,0.3c0.4,0.4,0.5,0.8,0.3,1.3c0.3,0.1,0.5,0.2,0.8,0.3c0.3-0.5,0.8-0.8,1.3-0.8
			c0.5,0,1,0.3,1.3,0.8c0.3-0.1,0.5-0.2,0.8-0.3c-0.1-0.5,0-0.9,0.3-1.3c0.4-0.4,0.8-0.6,1.3-0.4c0.1-0.3,0.2-0.5,0.3-0.8
			C181.4,305.1,181.1,304.7,181.1,304.2 M177.8,306.3c-1.2,0-2.1-0.9-2.1-2.1c0-1.2,0.9-2.1,2.1-2.1c1.2,0,2.1,0.9,2.1,2.1
			C179.9,305.3,179,306.3,177.8,306.3"/>
		<path class="st17" d="M189.7,305.6c0-0.6,0.3-1,0.9-1.3c-0.1-0.3-0.2-0.6-0.4-0.9c-0.6,0.1-1.1-0.1-1.4-0.5
			c-0.4-0.4-0.5-0.9-0.4-1.4c-0.3-0.2-0.6-0.3-0.9-0.4c-0.3,0.5-0.8,0.9-1.4,0.9c-0.6,0-1.1-0.3-1.4-0.9c-0.3,0.1-0.6,0.2-0.9,0.4
			c0.2,0.6,0,1-0.4,1.4c-0.4,0.4-0.9,0.6-1.4,0.5c-0.2,0.3-0.3,0.6-0.4,0.9c0.5,0.3,0.9,0.7,0.9,1.3c0,0.6-0.3,1.1-0.9,1.4
			c0.1,0.3,0.2,0.6,0.4,0.9c0.6-0.1,1.1,0,1.4,0.4c0.4,0.4,0.5,0.9,0.4,1.4c0.3,0.2,0.6,0.3,0.9,0.4c0.3-0.5,0.9-0.9,1.4-0.9
			c0.6,0,1.1,0.3,1.4,0.9c0.3-0.1,0.6-0.2,0.9-0.4c-0.2-0.6,0-1.1,0.4-1.4c0.4-0.4,0.9-0.6,1.4-0.5c0.2-0.3,0.3-0.6,0.4-0.9
			C190.1,306.6,189.7,306.2,189.7,305.6 M186.1,307.6c-1.1,0-1.9-0.9-1.9-1.9c0-1.1,0.9-1.9,1.9-1.9c1.1,0,1.9,0.9,1.9,1.9
			C188,306.7,187.2,307.6,186.1,307.6"/>
		<path class="st20" d="M178.6,304.2c0-0.4-0.3-0.8-0.8-0.8c-0.4,0-0.8,0.3-0.8,0.8c0,0.4,0.3,0.8,0.8,0.8
			C178.2,304.9,178.6,304.6,178.6,304.2"/>
		<path class="st16" d="M213.9,314.4c0,0.9,0.3,1.8-0.9,3.2c-1.5,1.8-4,1.5-5.8,0c-1.8-1.5-2.4-3.8-0.9-5.6c1.2-1.5,2.1-1.4,3-2
			c-1.7-1.7-3.6-3.4-5.5-5.1c-0.9-0.8-1.8-1.6-2.7-2.4c-0.7,0.7-1.3,1.3-2,2c-3.5,3.6-6.7,6.9-9.5,9.7c0.5,0,1.2,0.2,1.9,0.7
			c1.9,1.4,1.8,3.9,0.4,5.8c-1.4,1.9-3.6,2.6-5.5,1.2c-1.3-0.9-1.5-1.7-1.9-2.5c-1,1.1-2,2.1-2.9,3l17.6,18.2c0.8,0.8,2.1,0.8,2.9,0
			l19.1-18.5C219.3,320,216.8,317.3,213.9,314.4"/>
		<path class="st20" d="M200.7,317.8c0.1,0,0.2-0.1,0.2-0.2V316c0-0.1-0.1-0.2-0.2-0.2c-0.1,0-0.2,0.1-0.2,0.2v1.6
			C200.5,317.7,200.6,317.8,200.7,317.8"/>
		<path class="st20" d="M195.5,317.8c-0.1-0.1-0.2-0.1-0.3,0c-0.1,0.1-0.1,0.2,0,0.3l1.2,1.1c0,0,0.1,0.1,0.2,0.1
			c0.1,0,0.1,0,0.2-0.1c0.1-0.1,0.1-0.2,0-0.3L195.5,317.8z"/>
		<path class="st20" d="M206.4,317.8c-0.1-0.1-0.2-0.1-0.3,0l-1.2,1.1c-0.1,0.1-0.1,0.2,0,0.3c0,0,0.1,0.1,0.2,0.1
			c0.1,0,0.1,0,0.2-0.1l1.2-1.1C206.5,318,206.5,317.9,206.4,317.8"/>
		<path class="st20" d="M206.2,325.7c-0.1-0.1-0.2-0.1-0.3,0c-0.1,0.1-0.1,0.2,0,0.3l1.2,1.1c0,0,0.1,0.1,0.2,0.1
			c0.1,0,0.1,0,0.2-0.1c0.1-0.1,0.1-0.2,0-0.3L206.2,325.7z"/>
		<path class="st20" d="M195.5,325.3l-1.2,1.1c-0.1,0.1-0.1,0.2,0,0.3c0,0,0.1,0.1,0.2,0.1c0.1,0,0.1,0,0.2-0.1l1.2-1.1
			c0.1-0.1,0.1-0.2,0-0.3C195.7,325.2,195.6,325.2,195.5,325.3"/>
		<path class="st20" d="M207.9,322.4l-1.6,0.1c-0.1,0-0.2,0.1-0.2,0.2c0,0.1,0.1,0.2,0.2,0.2h0l1.6-0.1c0.1,0,0.2-0.1,0.2-0.2
			C208.1,322.4,208,322.4,207.9,322.4"/>
		<path class="st20" d="M195.3,322.6c0-0.1-0.1-0.2-0.2-0.2l-1.6,0.1c-0.1,0-0.2,0.1-0.2,0.2c0,0.1,0.1,0.2,0.2,0.2h0l1.6-0.1
			C195.2,322.8,195.3,322.7,195.3,322.6"/>
		<path class="st20" d="M202.5,323.7l-0.1-0.2c0,0,0,0-0.1,0H202l-0.1-0.7l-0.6,0.7l-0.5-1.2l-0.5,1.2l-0.7-0.8l-0.1,0.9h-0.4
			c-0.1,0-0.1,0-0.1-0.1l-0.1,0.1c0,0,0,0,0,0c0,0.1,0,0.3,0.1,0.5l1.5,3.7h0.8l1.1-3.4C202.4,324.2,202.5,323.9,202.5,323.7"/>
		<path class="st20" d="M199,328.7h3.3c0-0.1,0-0.2,0-0.4H199C199,328.5,199,328.6,199,328.7"/>
		<path class="st20" d="M200.7,319.2c-2.2,0-4,1.6-4,3.8c0,0.5,0.1,1,0.3,1.5c0,0,0,0,0,0c0.2,0.4,0.9,1.8,1.1,2.1
			c0.4,0.6,0.7,1,0.8,1.4h1.1l-1.4-3.6c-0.1-0.3-0.2-0.8,0-1c0.1-0.1,0.2-0.1,0.4,0c0,0,0,0,0.1,0h0.1l0.2-1.3l0.8,0.9l0.6-1.4
			l0.6,1.4l0.8-0.9l0.1,1.1h0c0.1,0,0.1,0.1,0.1,0.1c0.1,0,0.2,0,0.3,0c0.2,0.2,0.1,0.6-0.1,1.2l-1.1,3.3h0.9
			c0.1-0.4,0.3-0.8,0.8-1.4c0.6-0.9,1.2-2.2,1.2-2.2c0.2-0.4,0.3-0.9,0.3-1.4C204.7,320.8,202.9,319.2,200.7,319.2"/>
		<path class="st20" d="M199.3,329.9c0.3,0.2,0.9,0.6,1.3,0.6h0.1c0.5,0,1-0.4,1.3-0.6c0.1,0,0.1-0.1,0.1-0.2h-3
			C199.2,329.9,199.3,329.9,199.3,329.9"/>
		<path class="st20" d="M199.2,329.4h3c0-0.1,0-0.2,0.1-0.3h-3.2C199.1,329.2,199.2,329.3,199.2,329.4"/>
		<path class="st21" d="M227.8,295.7c0,0-0.1,0.8-0.9,1.5c0.5-0.4,1.3-1,1.3-1.3C228.2,295.5,227.8,295.7,227.8,295.7"/>
		<path class="st0" d="M226,286.9c-0.6-1.3,0-2.1-1.2-3.9c-1.3-2-3.6-2.1-5.6-0.8c-2,1.3-3,3.6-1.7,5.5c1.2,1.9,2.4,1.3,3.5,2.1
			c-3.7,2.3-8,4.9-12.7,8.1c0.7,1,1.4,1.9,2.1,2.9c1.6,2.1,3,4.1,4.4,6.1c-1,0.4-1.9,0.2-3.4,1.4c-1.8,1.5-1.7,3.8-0.2,5.6
			c1.5,1.8,3.9,2.6,5.7,1.1c1.4-1.1,1.3-2,1.5-2.9c2.3,3.4,4.2,6.5,5.8,9.3l20.8-13.4c1-0.6,1.2-1.9,0.6-2.8l-13.8-21.5
			C230.3,284.5,228.3,285.6,226,286.9"/>
		<path class="st1" d="M231.4,304.2l-0.7,0.5l-0.4-0.5l0,0c1.4-0.9,0.8-2.6-0.3-4.5l0.4-0.3l-2.6-2.9l-0.2,0.1c0,0-0.1-0.1-0.1-0.1
			c1.1-1.4-0.6-2.7-1.2-2.5c-0.8,0.3-1.8,1.5-3.9,2.9c-1.5,1-0.9,2.4-0.2,3.6c0.1,0.4,0.4,0.7,0.6,1.1c-0.2,0.4-0.1,1.1,0.4,1.8
			c0.5,0.8,1.4,1.2,1.8,0.9c0,0,0,0,0,0c0.6,0.6,1.2,1,1.8,1.3l0.8,1.2c-2.2,1.6-2.7,4.6-1.2,6.8l11.9-8
			C236.7,303.2,233.6,302.6,231.4,304.2"/>
	</g>
</g>
<path class="st5" d="M838.2,544.7c0.9-0.2,2.4,0.3,2.9,1.1c2,3.6,2.8,8.5,2.8,8.5l0.6,0l-1.1-5.9c-0.1-0.5,0-1,0.3-1.5
	c0.3-0.4,0.8-0.7,1.3-0.8l1.2-0.2c0.9-0.1,1.8,0.4,2.1,1.3c0.3,1.2,0.8,2.7,0.8,3.5c0.1,1.5,0.4,4,0.4,4l0.6,0
	c0-0.8-0.2-2.2-0.4-3.8c-0.1-0.5,0.1-1,0.4-1.4c0.3-0.4,0.8-0.6,1.3-0.7l0.7,0c1-0.1,1.8,0.7,2,1.6c0.5,3.1,0.9,6.2,0.9,6.2l1.4,18
	l1,2.3L841,584l-1.7-2.1l-16.2-10.3c0,0-4.7-2.7-6.6-7.6c-1.2-3.2-2.8-3.1-2.9-4.2c0.6-0.3,1.5-1.4,2.1-1.7c5-2.1,6.7,3.9,9.3,5.9
	c1.1,0.8,2.6,1.8,4.3,1.2c1.1-0.4,4.8-6.6-1.5-14.7c-2.5-3.2-6-6.1-6-6.1c-1.5-1.8-0.3-3.4,1.5-3.7c0,0,1.6-0.1,3.2,0.7
	c1.5,0.7,3.3,2.2,5.2,3.9c3.4,3,5.5,9.3,5.5,9.3l0.6-0.1c0,0,0.2-1.8-1.4-4.8c-0.4-0.8-0.7-1.4-1-2c-0.2-0.5-0.2-1.1,0.1-1.7
	c0.3-0.5,0.8-0.9,1.3-1L838.2,544.7z"/>
<polygon class="st22" points="850.4,619.1 839.2,584.7 860.1,575.7 878.6,619.1 "/>
<polygon class="st1" points="858.9,574.1 859.6,575.9 839.9,584.4 839.1,582.7 "/>
<polygon class="st23" points="868.5,619.1 878.6,619.1 860.1,575.7 852.6,579 "/>
<path class="st1" d="M859.5,579.7c0-0.5-0.4-1-0.9-1c-0.5,0-1,0.4-1,0.9c0,0.5,0.4,1,0.9,1C859,580.6,859.4,580.2,859.5,579.7"/>
<path class="st1" d="M861.3,583.2c0-0.5-0.4-1-0.9-1c-0.5,0-1,0.4-1,0.9c0,0.5,0.4,1,0.9,1C860.8,584.2,861.3,583.8,861.3,583.2"/>
<path class="st5" d="M712.8,527.4c1.2-1.6,1.6-3.1,0.1-4.2c-1-0.6-6.2,3-9.5,5.5c-4.5,1.3-9,2.8-9,2.8l-5.9,13.5l-4.7,14.5
	c0,0,8.4,1.7,17,3.6l0.6-1.6l9.9-8.1c3.5-8.3,3.7-10.1,3.1-11.6c0,0-2.2-0.7-4.4,0l-4,6.2c0,0,0,0,0,0c0,0,0,0,0,0l-4.5-3
	c-0.4-1,0.9-8.2,1.7-8.9c1.3-1.1,9.7-2.6,13.9-4.6C721.3,529.4,716.5,527.9,712.8,527.4"/>
<polygon class="st22" points="697.1,619.1 703.5,563.7 680.6,558.9 671.3,619.1 "/>
<path class="st1" d="M682.8,562.6c-0.1-0.5,0.3-1,0.8-1.1c0.5-0.1,1,0.3,1.1,0.8c0.1,0.5-0.3,1-0.8,1.1
	C683.3,563.5,682.8,563.1,682.8,562.6"/>
<path class="st1" d="M681.8,566.3c-0.1-0.5,0.3-1,0.8-1.1c0.5-0.1,1,0.3,1.1,0.8c0.1,0.5-0.3,1-0.8,1.1
	C682.4,567.2,681.9,566.8,681.8,566.3"/>
<polygon class="st23" points="697.1,619.1 684.7,619.1 693.7,561.7 703.5,563.7 "/>
<polygon class="st1" points="701.8,563.4 682.4,559.3 682.8,557.7 702.3,562 "/>
<path class="st1" d="M969,607.5c0-0.5-0.4-0.9-0.8-0.9c-0.5,0-0.9,0.4-0.9,0.8c0,0.5,0.4,0.9,0.8,0.9
	C968.5,608.4,968.9,608,969,607.5"/>
<rect x="943.8" y="459.6" transform="matrix(0.7666 -0.6421 0.6421 0.7666 -98.0872 749.7144)" class="st1" width="77.1" height="100.5"/>
<path class="st5" d="M970.5,525.4c2.7,3.2,5.3,6.6,2.9,8.6c-0.9,0.7-3.5,2.4-4.7,2.5c-2.2,0.1-4-1.8-5.7-3.9c-2.7-3.2-2.9-6-0.5-8
	C965.2,522.2,967.8,522.2,970.5,525.4"/>
<path class="st5" d="M965.2,532.3c0.9,1.1,1.1,2.4,0.5,2.9c-0.6,0.5-1.9,0.1-2.8-1c-0.9-1.1-1.1-2.4-0.5-2.9
	C963,530.8,964.3,531.2,965.2,532.3"/>
<polygon class="st24" points="968.5,523.1 972.9,527.2 971.2,528.6 967,524.4 "/>
<path class="st22" d="M968.1,523.7l-2.2,1.8c0,0-3.1,2.1-2.5,3.1c0.6,1,0.3,1.2,0.9,1.7c1.1,0.8,1.3,1.3,1.3,1.3l-1.1,0.7
	c0,0-0.6-1.5-1.6-1.1c-0.8,0.3-0.9,0.8-0.9,1.2c-1.2-1.8-4.4-4.7-1.5-7.1c2.9-2.5,4.3-4.3,5.5-5C967,519.7,969.8,521.3,968.1,523.7"
	/>
<path class="st23" d="M969.2,548l15.8-13.2h0c-1.2-1.5-3-2.4-4.9-2.5c-1.9-0.2-3.8,0.4-5.2,1.6l-4.8,4
	C967.1,540.5,966.7,545,969.2,548L969.2,548z"/>
<polygon class="st5" points="970.2,538.4 974.8,538.7 974.2,535 972,532.4 968,535.7 "/>
<path class="st24" d="M954.9,510c1,1.2,1.8,2.7,2.4,3.8c0.3,0.6-0.5,1-1.1,1.5c-0.5,0.4-1.7,1.3-2.4,1.3c-1.3,0.1-2.4-1.1-3.4-2.3
	c-1.6-1.9-1.8-3.6-0.3-4.8C951.7,508.1,953.3,508.1,954.9,510"/>
<path class="st24" d="M951.9,514.4c0.4,0.5,0.5,1.1,0.2,1.3c-0.3,0.2-0.9,0-1.3-0.5c-0.4-0.5-0.5-1.1-0.2-1.3
	C950.9,513.7,951.5,513.9,951.9,514.4"/>
<polygon class="st24" points="954,509.4 956.8,511.3 955.8,512.5 953.3,510 "/>
<path class="st25" d="M954.1,523.5l9.4-7.9c-1.5-1.8-4.2-2.1-6-0.5l-2.9,2.4c-0.9,0.7-1.4,1.8-1.5,2.9
	C953,521.5,953.4,522.6,954.1,523.5"/>
<polygon class="st24" points="954.7,517.7 957.5,517.9 957.1,515.7 955.8,514.2 953.4,516.2 "/>
<path class="st26" d="M950.5,514.6c0,0-0.3-1.2,0.8-0.7l0.8,0.9l0.5-0.4c0,0-2.1-2.9-1.5-3.3l0.6-0.5c0,0-0.1-1,1.5-1.3
	c1.5-0.2,1.3-1,1.3-1.3c0-0.4-0.4,0.3-0.9,0.2c-0.6-0.1-0.7-0.6-0.7-0.6s-3.3,0.6-3.6,2.5C949,512,947.4,511.7,950.5,514.6"/>
<polygon class="st1" points="957.1,515.7 957.9,515.8 957.7,516.4 958.1,516.9 958.2,518.8 955.7,518.9 955.3,518.5 953.7,518.5 
	954,518 954.5,517.6 957.3,517.8 "/>
<path class="st24" d="M941.7,494.5c1.1,1.1,2,2.4,2.6,3.6c0.3,0.6-1.6,1.6-2.1,2c-0.5,0.4-0.9,0.1-1.6,0.1c-1.2,0.1-2.2-0.4-3.2-1.6
	c-1.6-1.9-1.7-3.5-0.3-4.6C938.7,492.6,939.9,492.7,941.7,494.5"/>
<path class="st24" d="M941.7,494.4c0,0,0.4,0.4,0.9,0.8c0.3,0.2,0.5,0.4,0.7,0.5c0.1,0,0.1,0.1,0.1,0.2c0,0.1,0,0.1,0,0.2l-0.7,1
	l-2.5-2.4L941.7,494.4z"/>
<path class="st22" d="M941,507.5l9.1-7.6c-0.7-0.8-1.7-1.4-2.8-1.5c-1.1-0.1-2.2,0.2-3,0.9l-2.8,2.3c-0.8,0.7-1.4,1.7-1.5,2.8
	C939.9,505.6,940.3,506.7,941,507.5"/>
<polygon class="st24" points="941.8,501.7 944.1,502.2 943.6,500.2 942.3,498.7 940.6,500.2 "/>
<path class="st27" d="M937.3,498.3c0,0-0.1-0.6,1-0.1c0.8,0.8,0,0,0,0l2.5,0.3c0,0-2.8-0.5-2.7-3.1c0-0.8,2.1-3.1,2.7-1.4
	c0.6,1.4,0.5-1.3,0.2-1.6c-0.4-0.6-1-0.7-1.6-0.7C938.6,491.6,933,494.5,937.3,498.3"/>
<polygon class="st1" points="943.5,500 944.6,500 944.4,500.6 945,501.2 944.9,503 942.5,503.1 942.3,502.5 940.6,502.7 941,502.1 
	941.7,501.5 944.1,502 "/>
<path class="st24" d="M938.6,498.1c0.4,0.5,0.5,1.1,0.2,1.3c-0.3,0.2-0.8,0-1.2-0.4c-0.4-0.5-0.5-1.1-0.2-1.3
	C937.7,497.4,938.2,497.6,938.6,498.1"/>
<path class="st28" d="M936,496.7c0,0,0,3.9,3,5c1.5,0,2.5-1.8,2.5-2c-0.2-1.6-3.7-1.5-3.9-2.6C937.5,495.9,936,496.7,936,496.7"/>
<polygon class="st24" points="985.4,545.6 988.2,547.4 987,548.9 983.9,545.9 "/>
<path class="st24" d="M986,546.1c1.4,1.4,2.5,3,3.6,4.3c0.5,0.6-2.3,2.3-3,2.8c-0.6,0.5-1.1,0.1-2,0.2c-1.6,0.1-2.8-0.5-4.1-2
	c-2-2.4-2.1-4.4-0.4-5.9C983.5,542.6,983.5,543.6,986,546.1"/>
<path class="st4" d="M983.9,547.5c-0.2-0.2-0.5-0.2-0.7-0.1c-0.2,0.2-0.2,0.5-0.1,0.7c0.2,0.2,0.5,0.2,0.7,0.1
	C984,548,984,547.7,983.9,547.5"/>
<path class="st23" d="M985.1,562.6l11.5-9.7l0,0c-1.9-2.2-5.2-2.5-7.4-0.7l-3.5,2.9C983.5,557.1,983.2,560.4,985.1,562.6
	L985.1,562.6z"/>
<polygon class="st24" points="986.2,555.3 989.8,557.1 988.4,553.4 986.8,551.5 984.6,553.3 "/>
<path class="st24" d="M981.6,551.1c0.5,0.6,0.6,1.3,0.3,1.6c-0.3,0.3-1,0-1.5-0.6c-0.5-0.6-0.6-1.3-0.3-1.6
	C980.4,550.3,981.1,550.5,981.6,551.1"/>
<path class="st29" d="M986.5,546.1c0.1,0.2,0.5,0.1,0.9-0.2l0.2-0.1c0.3-0.3,0.5-0.6,0.4-0.8l-0.6-0.7c-0.1-0.2-0.5,0-0.9,0.2
	l-0.2,0.1c-0.3,0.3-0.5,0.6-0.4,0.8L986.5,546.1z"/>
<path class="st29" d="M984.6,547.6c0.1,0.2,0.5,0.1,0.9-0.2l0.2-0.1c0.3-0.3,0.5-0.6,0.4-0.8l-0.6-0.7c-0.1-0.2-0.5,0-0.9,0.2
	l-0.2,0.1c-0.3,0.3-0.5,0.6-0.4,0.8L984.6,547.6z"/>
<path class="st4" d="M980,550.6c0,0,0.5-0.5,1.3,0.2c0.8,0.8,0.5,0.6,0.5,0.6l0.7-0.5c0,0-1.9-2.6-2-2.7c0-0.1-1.4,0.9-1.4,0.9
	s-0.5,0.6,0.7,1.9C979.9,550.7,980,550.6,980,550.6"/>
<polygon class="st30" points="986,555 985.2,555.8 986.8,556 987.9,558.1 990.9,557.8 990.8,555.4 990.1,555 989.3,552.3 
	988.3,553.1 989.8,557.1 "/>
<polygon class="st1" points="988.3,553.1 986,555 989.8,557.1 "/>
<polygon class="st26" points="987.2,554 988,556 989.8,557.1 989.1,555.1 "/>
<polygon class="st31" points="963.1,473.2 948.3,485.5 949,486.4 963.9,474.1 "/>
<rect x="950.9" y="484.6" transform="matrix(0.7699 -0.6381 0.6381 0.7699 -88.5917 724.5803)" class="st31" width="19.3" height="1.2"/>
<polygon class="st31" points="955.6,494.3 961.1,489.8 960.4,488.9 954.9,493.4 "/>
<polygon class="st31" points="950.3,488 951.1,488.8 954.9,485.7 954.2,484.8 "/>
<rect x="955.6" y="481.7" transform="matrix(0.768 -0.6405 0.6405 0.768 -86.5505 725.5833)" class="st31" width="5" height="1.2"/>
<rect x="961.1" y="477.1" transform="matrix(0.7699 -0.6382 0.6382 0.7699 -83.1096 724.8596)" class="st31" width="5" height="1.2"/>
<rect x="972.3" y="464.2" transform="matrix(0.7664 -0.6423 0.6423 0.7664 -72.7611 736.6296)" class="st32" width="8.4" height="8.2"/>
<rect x="959.4" y="494.6" transform="matrix(0.7698 -0.6383 0.6383 0.7698 -92.9992 732.4989)" class="st31" width="19.3" height="1.2"/>
<rect x="963.8" y="500" transform="matrix(0.7698 -0.6383 0.6383 0.7698 -95.4102 736.5602)" class="st31" width="19.3" height="1.2"/>
<rect x="967.3" y="506.4" transform="matrix(0.7698 -0.6383 0.6383 0.7698 -100.0919 736.5024)" class="st31" width="7.1" height="1.2"/>
<polygon class="st31" points="963.2,503.4 964,504.3 967.8,501.1 967.1,500.2 "/>
<rect x="968.5" y="497.1" transform="matrix(0.7708 -0.637 0.637 0.7708 -94.4878 732.6515)" class="st31" width="5" height="1.2"/>
<rect x="974.1" y="492.5" transform="matrix(0.7697 -0.6384 0.6384 0.7697 -89.8798 737.0481)" class="st31" width="5" height="1.2"/>
<rect x="985.2" y="479.6" transform="matrix(0.7665 -0.6422 0.6422 0.7665 -79.6916 748.323)" class="st32" width="8.4" height="8.2"/>
<rect x="980.5" y="510.3" transform="matrix(0.7716 -0.6362 0.6362 0.7716 -99.6203 744.4177)" class="st31" width="12.4" height="1.2"/>
<polygon class="st31" points="995.6,511.9 986,519.8 986.8,520.7 996.3,512.8 "/>
<rect x="987.7" y="519.9" transform="matrix(0.7696 -0.6385 0.6385 0.7696 -103.9737 752.8749)" class="st31" width="7.1" height="1.2"/>
<rect x="983.4" y="515.1" transform="matrix(0.7703 -0.6376 0.6376 0.7703 -102.421 747.0836)" class="st31" width="5" height="1.2"/>
<polygon class="st31" points="989.1,512.3 989.9,513.2 988.4,514.5 987.6,513.6 "/>
<rect x="989.1" y="510.5" transform="matrix(0.7694 -0.6388 0.6388 0.7694 -97.7735 751.2973)" class="st31" width="5" height="1.2"/>
<rect x="1000.2" y="497.6" transform="matrix(0.7667 -0.6421 0.6421 0.7667 -87.7691 761.9645)" class="st32" width="8.4" height="8.2"/>
<rect x="991.1" y="532.5" transform="matrix(0.7698 -0.6382 0.6382 0.7698 -109.9032 761.4014)" class="st31" width="19.3" height="1.2"/>
<rect x="995.6" y="537.9" transform="matrix(0.7699 -0.6382 0.6382 0.7699 -112.3209 765.431)" class="st31" width="19.3" height="1.2"/>
<polygon class="st31" points="1000.3,547.6 1005.8,543.1 1005,542.2 999.5,546.7 "/>
<polygon class="st31" points="995,541.3 995.7,542.2 999.6,539 998.8,538.1 "/>
<rect x="1000.3" y="535" transform="matrix(0.7703 -0.6376 0.6376 0.7703 -111.188 762.407)" class="st31" width="5" height="1.2"/>
<polygon class="st31" points="1009.8,529 1006,532.1 1006.7,533 1010.6,529.8 "/>
<polyline class="st33" points="1004.8,498.4 1005.4,502.7 1002.8,503.1 "/>
<rect x="1016.9" y="517.6" transform="matrix(0.7666 -0.6422 0.6422 0.7666 -96.6386 777.4966)" class="st32" width="8.4" height="8.2"/>
<polygon class="st31" points="976.6,520.7 981.8,516.4 980.5,514.8 975.3,519.1 "/>
<rect x="978.4" y="519" transform="matrix(0.7665 -0.6422 0.6422 0.7665 -104.7202 751.9454)" class="st31" width="6.7" height="2"/>
<rect x="981.1" y="522.2" transform="matrix(0.7667 -0.642 0.642 0.7667 -106.2335 754.0823)" class="st31" width="6.7" height="2"/>
<rect x="973.3" y="556.9" transform="matrix(0.9653 -0.2612 0.2612 0.9653 -112.4889 274.5417)" class="st34" width="6.5" height="7.1"/>
<path class="st35" d="M979.4,595.6c0.1,0.4,0.4,0.8,0.7,1c0.4,0.2,0.8,0.3,1.2,0.2l10.6-2.9c0.4-0.1,0.8-0.4,1-0.8
	c0.2-0.4,0.2-0.8,0.1-1.3l-10.5-31.7c-0.3-0.8-1.1-1.3-1.9-1l-7,1.9c-0.8,0.2-1.3,1-1.1,1.8L979.4,595.6z"/>
<polygon class="st36" points="979.3,558.4 973,560.1 973.3,561.1 979.6,559.4 "/>
<g class="st37">
	<g>
		<defs>
			<rect id="SVGID_1_" x="962" y="517.3" width="24.7" height="31.5"/>
		</defs>
		<clipPath id="SVGID_2_">
			<use xlink:href="#SVGID_1_"  style="overflow:visible;"/>
		</clipPath>
		<g class="st38">
			<defs>
				<rect id="SVGID_3_" x="962" y="517.3" width="24.7" height="31.5"/>
			</defs>
			<clipPath id="SVGID_4_">
				<use xlink:href="#SVGID_3_"  style="overflow:visible;"/>
			</clipPath>
			<path class="st39" d="M962,519.3c8.1-4.4,18.3-1.4,22.7,6.8c4.4,8.1,1.4,18.3-6.8,22.7c0,0,0.6-6.7-5.9-16.3
				C965.6,522.9,962,519.3,962,519.3"/>
		</g>
	</g>
</g>
<path class="st35" d="M945.4,540.5c-3.6-13.4,4.3-27.1,17.7-30.7c13.4-3.6,27.1,4.3,30.7,17.7c3.6,13.4-4.3,27.1-17.7,30.7
	C962.8,561.8,949.1,553.9,945.4,540.5 M974.4,551.5c9.7-2.6,15.4-12.6,12.8-22.3c-2.6-9.7-12.6-15.4-22.3-12.8
	c-9.7,2.6-15.4,12.6-12.8,22.3C954.7,548.4,964.7,554.2,974.4,551.5"/>
<path class="st5" d="M974.1,570.4c-3.6,1.5-6,9-6,9l2,16.7l-0.7,8.1c0,0,3.7-0.2,13.7-0.7c0,0-0.4-3,3-7.6
	c3.4-4.6-0.6-10.8-0.6-10.8c0.3-11.8,1.6-17.4,0.9-19.3c0,0-0.5-1.8-2.2-1.9c-2.5-0.2-4.7,0.3-4.7,4l-0.2,2.9l-2.3,13.6
	C975.7,577.9,974.1,570.4,974.1,570.4"/>
<path class="st5" d="M988,576.5c0,0,2.8-0.6,4-0.7c1.4-0.1,2.9,3.3,0.7,4c-1.4,0.4-3.5,0.5-3.5,0.5L988,576.5z"/>
<path class="st5" d="M986.5,572c0,0,0.7,0,2-0.1c1.4-0.1,2.9,3.3,0.7,4c-1.4,0.4-1.3,0.3-1.3,0.3L986.5,572z"/>
<path class="st5" d="M989.4,580.9c0,0,1.3-0.2,2.6-0.4c1.4-0.1,2.9,3.3,0.7,4c-1.4,0.4-1.8,0.6-1.8,0.6L989.4,580.9z"/>
<path class="st5" d="M991,585.6c0,0,0.3,0.1,1.2,0c1.1-0.1,2.1,2.4,0.5,2.9c-1,0.3-0.7,0.2-0.7,0.2L991,585.6z"/>
<polygon class="st22" points="987.7,603.3 965.1,604.5 965.1,619.1 988.2,619.1 "/>
<path class="st40" d="M980.4,568c0,0-0.1-2.6,1.2-3.1c1.5-0.7,3.6-0.1,4,0.6c0.3,0.8,0.2,2.5,0.2,2.5s-1.6,0.6-2.7,0.5
	C981.9,568.5,980.4,568,980.4,568"/>
<polygon class="st1" points="966.2,602.7 986.3,601.8 986.4,603.4 966.3,604.4 "/>
<polygon class="st23" points="987.7,603.3 977.1,603.9 977.1,619.1 988.2,619.1 "/>
<g>
	<defs>
		<polygon id="SVGID_5_" points="1026.6,536.4 1029.8,538.5 1050.6,506.7 1050.2,506.1 1048.9,506 1048.2,504.8 1047.4,504.6 		"/>
	</defs>
	<clipPath id="SVGID_6_">
		<use xlink:href="#SVGID_5_"  style="overflow:visible;"/>
	</clipPath>
	
		<radialGradient id="SVGID_7_" cx="-105.7719" cy="587.3948" r="1" gradientTransform="matrix(8.316 5.4399 8.439 -12.9038 -3037.3855 8674.418)" gradientUnits="userSpaceOnUse">
		<stop  offset="0" style="stop-color:#F96E1A"/>
		<stop  offset="1" style="stop-color:#EF610E"/>
	</radialGradient>
	<polygon class="st41" points="1033.8,493.6 1066.2,514.8 1043.4,549.5 1011.1,528.3 	"/>
</g>
<polygon class="st42" points="1047.5,504.6 1047.4,504.6 1026.6,536.4 1027.3,536.8 1048.2,504.8 "/>
<polygon class="st43" points="1048.2,504.8 1027.3,536.8 1028.2,537.5 1048.8,506 "/>
<polygon class="st44" points="1048.8,506 1028.2,537.5 1029.2,538.1 1050.2,506.1 "/>
<polygon class="st42" points="1029.2,538.1 1029.8,538.5 1050.6,506.7 1050.6,506.7 1050.2,506.1 "/>
<polygon class="st45" points="1052.5,501.5 1051.4,500.9 1047.8,504.2 1048.5,504.4 1049.2,505.6 1050.5,505.7 1050.9,506.2 "/>
<polygon points="1053.2,499.2 1051.4,500.9 1052.5,501.5 "/>
<path class="st5" d="M1063.5,514.5l-0.5-0.1c-1.1-0.3-2.1,0.4-2.4,1.5l-0.2,0.9l-0.7-0.1l0.7-3.4c0.3-2.3-0.4-2.7-2.3-3.1l-0.5,0
	c-1.5,0-2,0.7-2.2,2.1l-0.5,3l-0.6-0.1l0.6-6c0.1-0.8-0.2-1.6-0.7-2.2c-0.6-0.6-1.3-1-2.2-0.9c-1.6,0-2.9,1.2-3.1,2.8l-0.5,5.2
	l-0.6-0.1l0-3.3c0-0.9-0.4-1.8-1-2.5c-0.6-0.6-1-0.7-1.8-0.8l-0.5,0c-1.8,0-2.7,1.2-2.8,3l-0.9,5.1c0.5,5.2,0.2,7.7-1,7.9l-5.2,8
	l5,7l3.6,5l5.7,8.2l12.8-9.2l-2.7-3.3l2-6l4.2-16.1C1065.3,515.8,1064.6,514.8,1063.5,514.5"/>
<path class="st46" d="M1032.2,528c0,0,1.1-3.3,3.2-8.2c2-4.8,3.4-5.2,4.4-4.7c1,0.5-1.2,3.1-1.2,3.1l-6,9L1032.2,528z"/>
<path class="st1" d="M1029.7,538.7l-3.2-2.1c0,0-0.6,0.8-0.2,1.5c0.6,1.2,2.3,1.4,2.6,1.3L1029.7,538.7z"/>
<polygon class="st1" points="1047.6,552.3 1063.9,540.6 1062.8,539.3 1046.5,550.4 "/>
<path class="st1" d="M1066.8,544.9c0-0.5-0.4-0.9-0.8-0.9c-0.5,0-0.9,0.4-0.9,0.8c0,0.5,0.4,0.9,0.8,0.9
	C1066.4,545.8,1066.8,545.4,1066.8,544.9"/>
<rect x="878.1" y="530.8" transform="matrix(0.97 -0.2431 0.2431 0.97 -102.3298 233.582)" class="st47" width="34.6" height="1.3"/>
<path class="st47" d="M882.5,535c0,0-2.8,2.6-2.5,3.8c0.5,1.6,1.1,0.9,1.1,0.9s2.2-3.7,3.1-4.7c0.2-0.2-0.8-0.2-0.8-0.2L882.5,535z"
	/>
<path class="st47" d="M908.7,528.4c0,0,3.7,0.9,4,2.2c0.4,1.7-0.5,1.3-0.5,1.3s-3.7-2.2-5-2.7c-0.3-0.1,0.6-0.6,0.6-0.6L908.7,528.4
	z"/>
<path class="st35" d="M914.1,524.6l0.5,2.1c-1.6,1-0.7,4.9-0.7,4.9s0.5,5.6-5.8,7.2c-7.4,1.9-10.2-4.8-10.7-5.9
	c-0.5-0.9-1.4-0.8-1.6-0.7c-0.2,0.1-1.1,0.4-1.1,1.4c0,1.2,0.7,8.4-6.7,10.2c-6.1,1.5-8.2-3.7-8.2-3.7s-1.5-3.8-3.3-3.9l-0.5-2.1
	c0,0,1.5-1.2,6.3-2.4c4.8-1.2,7.8-1.2,7.8-1.2s3.8-0.2,5.1-0.5c1.3-0.4,4.7-2,4.7-2s2.6-1.4,7.5-2.6
	C912.2,524.2,914.1,524.6,914.1,524.6 M888,531.5c0,0-2.5,0-5.9,1.5c-3.4,1.5-2.6,3.8-1.9,5.3c0.7,1.5,2.2,6.1,8.1,4.4
	c2.2-0.7,5.3-3.1,5.3-7.9C893.5,530.8,888,531.5,888,531.5 M899,533.4c2.2,4.3,6.1,4.9,8.4,4.5c6-1.3,5.1-6.1,5-7.7
	c-0.1-1.6-0.5-4.1-4.2-3.8c-3.7,0.3-5.9,1.4-5.9,1.4S897.2,529.9,899,533.4"/>
<path class="st20" d="M882,535.5l-2.3,0.6c0,0.3,0.1,0.6,0.1,0.9c0.1,0.4,0.2,0.7,0.4,1C880.4,537.2,881.3,536.1,882,535.5
	 M892.8,532.8l-8.6,2.2c0,0,0,0,0,0c-0.9,1-3.1,4.7-3.1,4.7s-0.1,0.1-0.2,0.1c1,1.8,2.8,4,7,2.9c0.1,0,0.2-0.1,0.3-0.1
	c2.2-0.7,5.3-3.1,5.3-7.9c0-0.3,0-0.6-0.1-0.8C893.3,533.5,893.1,533.1,892.8,532.8 M885.3,531.9c-0.9,0.2-2,0.6-3.2,1.1
	c-1.1,0.5-1.8,1.1-2.1,1.7l11.4-2.8c-1.5-0.6-3.3-0.4-3.3-0.4S886.9,531.5,885.3,531.9"/>
<path class="st48" d="M891.3,531.8l-11.4,2.8c-0.3,0.5-0.4,1-0.4,1.4l2.3-0.6c0.3-0.3,0.6-0.5,0.6-0.5l0.9-0.2c0,0,1,0,0.8,0.2
	l8.6-2.2C892.5,532.3,891.9,532,891.3,531.8"/>
<path class="st48" d="M883.4,534.8l-0.9,0.2c0,0-0.2,0.2-0.6,0.5c-0.6,0.6-1.5,1.7-1.9,2.5c0,0.1,0.1,0.2,0.1,0.2
	c0.2,0.4,0.4,0.9,0.7,1.5c0.1,0,0.2-0.1,0.2-0.1s2.2-3.7,3.1-4.7c0,0,0,0,0,0C884.4,534.7,883.4,534.8,883.4,534.8"/>
<path class="st49" d="M885.3,531.9c-0.9,0.2-2,0.6-3.2,1.1c-2.5,1.1-2.7,2.7-2.4,4c-0.1-0.3-0.1-0.6-0.1-0.9c0-0.5,0.1-1,0.4-1.4
	c0.4-0.6,1-1.2,2.1-1.7C883.3,532.5,884.4,532.1,885.3,531.9c1.7-0.4,2.7-0.4,2.7-0.4s1.8-0.2,3.3,0.4c0.6,0.2,1.1,0.5,1.5,1
	c0.3,0.3,0.5,0.7,0.6,1.1c-0.8-3-5.4-2.5-5.4-2.5S886.9,531.5,885.3,531.9"/>
<path class="st20" d="M907.2,529.2l-8.5,2.1c-0.1,0.4-0.1,0.8,0,1.3c0.1,0.3,0.2,0.5,0.3,0.8c2.2,4.3,6.1,4.9,8.4,4.5
	c0.1,0,0.2-0.1,0.3-0.1c0,0,0,0,0,0c4.2-1,4.8-3.8,4.8-5.9c0,0,0,0,0,0c-0.1,0-0.3,0-0.3,0S908.5,529.7,907.2,529.2
	C907.2,529.2,907.2,529.2,907.2,529.2 M911.9,528l-2.4,0.6c0.9,0.3,2.3,0.8,2.9,1.4c0-0.4-0.1-0.8-0.2-1.2
	C912.1,528.6,912.1,528.3,911.9,528 M904.9,527C904.9,527,904.9,527,904.9,527c-1.7,0.4-2.6,0.9-2.6,0.9c0,0-1.7,0.7-2.8,1.9
	l11.4-2.8c-0.6-0.4-1.5-0.6-2.7-0.5c0,0,0,0,0,0C906.9,526.5,905.8,526.7,904.9,527C904.9,527,904.9,527,904.9,527"/>
<path class="st48" d="M910.9,526.9l-11.4,2.8c-0.4,0.5-0.7,1-0.9,1.6l8.5-2.1c-0.2-0.1,0.6-0.6,0.6-0.6l0.9-0.2c0,0,0.3,0.1,0.7,0.2
	l2.5-0.6C911.7,527.6,911.4,527.2,910.9,526.9"/>
<path class="st48" d="M908.7,528.4l-0.9,0.2c0,0-0.9,0.4-0.6,0.6c0,0,0,0,0,0c1.3,0.5,5,2.7,5,2.7s0.1,0.1,0.3,0c0,0,0,0,0,0
	c0-0.7-0.1-1.3-0.1-1.7c0,0,0-0.1,0-0.1c-0.6-0.7-2.1-1.2-2.9-1.4C909,528.5,908.7,528.4,908.7,528.4"/>
<path class="st49" d="M907.7,537.8C907.7,537.8,907.7,537.8,907.7,537.8C907.7,537.8,907.7,537.8,907.7,537.8 M907.4,537.9
	c0.1,0,0.2-0.1,0.3-0.1C907.6,537.8,907.5,537.8,907.4,537.9 M908.2,526.4L908.2,526.4c1.2-0.1,2.1,0.1,2.7,0.5
	c0.5,0.3,0.8,0.7,1,1.1c0.1,0.3,0.2,0.5,0.3,0.8C911.9,527.5,911,526.2,908.2,526.4 M902.3,527.9L902.3,527.9c0,0-4.4,1.7-3.6,4.7
	c-0.1-0.5-0.1-0.9,0-1.3c0.1-0.6,0.5-1.1,0.9-1.6C900.6,528.5,902.3,527.9,902.3,527.9 M904.9,527c0.9-0.2,2-0.4,3.2-0.5
	C906.9,526.5,905.8,526.7,904.9,527 M904.9,527C904.9,527,904.9,527,904.9,527C904.9,527,904.9,527,904.9,527"/>
<path class="st45" d="M899.9,534.8l7.3-5.6l5.3,2.7c0,0,0.1,4.4-4.3,5.7C903.8,538.9,902.2,536.2,899.9,534.8"/>
<path class="st28" d="M643.7,590.6c0.6,1.1,0.3,2.4-0.7,2.9l-17.1,9.1c-1,0.5-2.2,0-2.8-1l-17.2-32.5c-0.6-1.1-0.3-2.4,0.7-2.9
	l17.1-9.1c1-0.5,2.2,0,2.8,1L643.7,590.6z"/>
<rect x="614.2" y="562.7" transform="matrix(0.8835 -0.4685 0.4685 0.8835 -198.2333 359.7362)" class="st1" width="19.5" height="31.3"/>
<defs>
	<filter id="Adobe_OpacityMaskFilter" filterUnits="userSpaceOnUse" x="596.8" y="547" width="54.3" height="53.5">
		<feFlood  style="flood-color:white;flood-opacity:1" result="back"/>
		<feBlend  in="SourceGraphic" in2="back" mode="normal"/>
	</filter>
</defs>
<mask maskUnits="userSpaceOnUse" x="596.8" y="547" width="54.3" height="53.5" id="SVGID_8_">
	<g class="st50">
		<g class="st51">
			<g>
				<defs>
					<polygon id="SVGID_9_" points="608,569.4 636.9,592.2 626.3,562.7 					"/>
				</defs>
				<clipPath id="SVGID_10_">
					<use xlink:href="#SVGID_9_"  style="overflow:visible;"/>
				</clipPath>
				<defs>
					<filter id="Adobe_OpacityMaskFilter_1_" filterUnits="userSpaceOnUse" x="596" y="551" width="52.9" height="52.9">
						<feFlood  style="flood-color:white;flood-opacity:1" result="back"/>
						<feBlend  in="SourceGraphic" in2="back" mode="normal"/>
					</filter>
				</defs>
				<mask maskUnits="userSpaceOnUse" x="596" y="551" width="52.9" height="52.9" id="SVGID_8_">
					<g class="st52">
						<g class="st51">
						</g>
					</g>
				</mask>
				
					<linearGradient id="SVGID_11_" gradientUnits="userSpaceOnUse" x1="-170.5951" y1="554.2586" x2="-169.5951" y2="554.2586" gradientTransform="matrix(-13.0754 -25.6238 -25.6238 13.0754 12604.3701 -11020.7383)">
					<stop  offset="0" style="stop-color:#231F20"/>
					<stop  offset="1" style="stop-color:#FFFFFF"/>
				</linearGradient>
				<polygon class="st53" points="613.9,604 596,568.8 631,551 648.9,586.1 				"/>
			</g>
		</g>
	</g>
</mask>
<g class="st54">
	<g>
		<defs>
			<rect id="SVGID_12_" x="608" y="559.9" width="31.9" height="27.7"/>
		</defs>
		<clipPath id="SVGID_13_">
			<use xlink:href="#SVGID_12_"  style="overflow:visible;"/>
		</clipPath>
		<g class="st55">
			<defs>
				<polygon id="SVGID_14_" points="608,569.1 639.9,587.6 625.2,559.9 				"/>
			</defs>
			<clipPath id="SVGID_15_">
				<use xlink:href="#SVGID_14_"  style="overflow:visible;"/>
			</clipPath>
			
				<linearGradient id="SVGID_16_" gradientUnits="userSpaceOnUse" x1="-171.4109" y1="552.9863" x2="-170.4109" y2="552.9863" gradientTransform="matrix(-12.216 -23.9396 -23.9396 12.216 11778.4121 -10265.0684)">
				<stop  offset="0" style="stop-color:#FFFFFF"/>
				<stop  offset="1" style="stop-color:#CCA888"/>
			</linearGradient>
			<polygon class="st56" points="614.6,600.5 596.8,565.6 633.3,547 651.1,581.9 			"/>
		</g>
	</g>
</g>
<path class="st57" d="M616.2,576.6c-0.2-0.4-0.7-0.6-1.2-0.4c-0.4,0.2-0.6,0.7-0.3,1.1c0.2,0.4,0.7,0.6,1.1,0.4
	C616.2,577.5,616.4,577,616.2,576.6"/>
<path class="st58" d="M617.8,579.7c-0.2-0.4-0.7-0.6-1.1-0.4c-0.4,0.2-0.6,0.7-0.4,1.1c0.2,0.4,0.7,0.6,1.1,0.4
	C617.9,580.6,618,580.1,617.8,579.7"/>
<path class="st59" d="M619.4,582.7c-0.2-0.4-0.7-0.6-1.2-0.4c-0.4,0.2-0.6,0.7-0.3,1.1c0.2,0.4,0.7,0.6,1.1,0.4
	C619.5,583.6,619.7,583.1,619.4,582.7"/>
<path class="st60" d="M621.2,586.1c-0.2-0.4-0.7-0.6-1.1-0.4c-0.4,0.2-0.6,0.7-0.4,1.1c0.2,0.4,0.7,0.6,1.1,0.4
	C621.3,587.1,621.5,586.5,621.2,586.1"/>
<rect x="613.9" y="562.9" transform="matrix(0.8835 -0.4684 0.4684 0.8835 -191.985 354.2211)" class="st57" width="4.6" height="0.3"/>
<rect x="607.5" y="564.2" transform="matrix(0.8835 -0.4684 0.4684 0.8835 -193.1005 355.0883)" class="st61" width="19.5" height="3"/>
<rect x="620.4" y="587.6" transform="matrix(0.8835 -0.4685 0.4685 0.8835 -202.9807 363.9843)" class="st62" width="19.5" height="4.8"/>
<path class="st4" d="M630.9,588.4l-0.8,1.5l-1.7-0.1c0,0,0,0,0,0l0.8,1.4c0,0.1,0.1,0.1,0.2,0.1l2.2-1.2c0.1,0,0.1-0.1,0.1-0.2
	L630.9,588.4C630.9,588.4,630.9,588.4,630.9,588.4"/>
<path class="st4" d="M630.7,588.2C630.6,588.2,630.6,588.2,630.7,588.2l-2.2,1.2c0,0,0,0,0,0l1.6,0.1L630.7,588.2z"/>
<rect x="620.9" y="578.6" transform="matrix(0.8834 -0.4686 0.4686 0.8834 -198.3729 361.1176)" class="st23" width="11.2" height="1.3"/>
<rect x="623" y="582.3" transform="matrix(0.8834 -0.4686 0.4686 0.8834 -199.868 362.5344)" class="st23" width="11.2" height="1.3"/>
<path class="st62" d="M623.5,574L623.5,574c0.3-0.5,0-1.3-0.4-2c-0.5-1.1-1-1.7-2.2-1c-1.1,0.6-0.9,1.3-0.4,2.4
	c0.4,0.8,0.7,1.4,1.5,1.5c-0.3,0.2-0.7,0.5-0.9,0.8c-0.3,0.5-0.1,1,0.2,1.5l0.2,0.3l4.6-2.3l-0.2-0.3C625.4,574,625,573.3,623.5,574
	"/>
<rect x="1060.6" y="414.2" transform="matrix(0.2369 -0.9715 0.9715 0.2369 401.9363 1358.2953)" class="st35" width="9.9" height="18.2"/>
<rect x="1079.2" y="433" transform="matrix(0.2369 -0.9715 0.9715 0.2369 402.878 1385.5625)" class="st35" width="8.6" height="6.7"/>
<rect x="1083" y="417.4" transform="matrix(0.2368 -0.9715 0.9715 0.2368 420.9486 1377.4474)" class="st35" width="8.6" height="6.7"/>
<path class="st35" d="M1086.5,443.7c0.3,0.1,0.6,0,0.8-0.1s0.4-0.4,0.5-0.7l2.5-10.3c0.1-0.6-0.2-1.2-0.8-1.3l-2.5-0.6l-3,12.5
	L1086.5,443.7z"/>
<rect x="1074.1" y="434.1" transform="matrix(0.237 -0.9715 0.9715 0.237 400.7063 1381.9445)" class="st35" width="12.1" height="3.6"/>
<rect x="1078" y="417.7" transform="matrix(0.237 -0.9715 0.9715 0.237 419.6046 1373.3763)" class="st35" width="12.1" height="3.6"/>
<polygon class="st28" points="1088.1,406.9 1056.2,394.7 1052.9,408.3 1085.4,417.9 "/>
<polygon class="st27" points="1052.9,408.3 1050.7,417.2 1083.5,425.7 1085.4,417.9 "/>
<polygon class="st27" points="1082.4,430.2 1049.4,422.6 1047,432.4 1080,440 "/>
<polygon class="st28" points="1047,432.4 1043.9,445.1 1077.9,449 1080,440 "/>
<path class="st35" d="M1090.2,428.1c0.3,0.1,0.6,0,0.8-0.1c0.2-0.2,0.4-0.4,0.5-0.7l2.5-10.4c0.1-0.6-0.2-1.2-0.8-1.3l-2.5-0.6
	l-3,12.5L1090.2,428.1z"/>
<rect x="1032.9" y="432" transform="matrix(0.2369 -0.9715 0.9715 0.2369 376.8706 1346.4983)" class="st35" width="25.4" height="2.7"/>
<rect x="1039.8" y="403.7" transform="matrix(0.2369 -0.9715 0.9715 0.2369 409.6685 1331.5784)" class="st35" width="25.4" height="2.7"/>
<rect x="1063" y="422" transform="matrix(0.2376 -0.9714 0.9714 0.2376 397.6863 1358.0226)" class="st1" width="1.8" height="7.4"/>
<rect x="1067.6" y="423.8" transform="matrix(0.2369 -0.9715 0.9715 0.2369 404.9378 1364.9148)" class="st63" width="7.4" height="1.8"/>
<rect x="1064.1" y="417.5" transform="matrix(0.2374 -0.9714 0.9714 0.2374 403.0503 1355.7308)" class="st1" width="1.8" height="7.4"/>
<rect x="1054.8" y="420.9" transform="matrix(0.2368 -0.9716 0.9716 0.2368 396.7318 1347.7985)" class="st63" width="2.9" height="1"/>
<rect x="1073.4" y="425.4" transform="matrix(0.2371 -0.9715 0.9715 0.2371 406.2234 1369.1431)" class="st63" width="2.9" height="1"/>
<rect x="1031.8" y="429.9" transform="matrix(0.2368 -0.9715 0.9715 0.2368 374.6001 1342.0439)" class="st35" width="19.5" height="5.4"/>
<rect x="1038.6" y="402.2" transform="matrix(0.2369 -0.9715 0.9715 0.2369 406.6092 1327.4797)" class="st35" width="19.5" height="5.4"/>
<path class="st5" d="M1086.7,406.3c-0.5-0.2,0-0.8-3.9,1.4l-7.8,4l-2.8,1.2c-0.6,0.2-1.3,0.1-1.8-0.2c-0.5-0.3-0.8-0.8-0.9-1.4
	c0-0.4,0-0.9-0.1-1.3c0-0.9,0.6-1.7,1.5-2l3.1-1.4l5.3-3.4l-0.2-0.5c0,0-7.4,3.3-9.1,3.8c-1.7,0.5-4.3,0.9-4.3,0.9
	c-1.4,0.3-2-1.7-1.7-2.9c0.1-0.6,0.6-1.1,1.2-1.4c0.6-0.3,2-0.7,4.3-1.2c2.3-0.5,8.7-3.8,8.7-3.8l-0.1-0.1l-7.7,2.2l-4.1,0.9
	c-1.5,0.2-2.2-0.7-2.2-1.8l0.1-0.5c0.4-1.5,1.3-0.9,3.8-1.8l9.7-3.3l-0.1-0.5l-5.6,2.6c0,0-2.4-2,0.1-3.2l8.8-4.5l13.3,0.2l6.2-0.5
	l-1.9,13.8l-2.9,0.8c0,0-3.2,5.1-4.4,6.4c-0.6,0.7-3.7,0.5-3.5-0.4c0.2-1.1,0.4-1.8,0.4-1.8L1086.7,406.3z"/>
<polygon class="st22" points="1099.6,405.4 1097.3,384.1 1113.6,383.3 1113.7,404.4 "/>
<polygon class="st1" points="1097.4,385 1099.5,404.3 1098.2,404.7 1096,385 "/>
<polygon class="st23" points="1098.5,394.2 1097.3,384.1 1113.6,383.3 1113.3,393.3 "/>
<path class="st1" d="M1103,387.6c0-0.5-0.4-0.9-0.8-0.9c-0.5,0-0.9,0.4-0.9,0.8c0,0.5,0.4,0.9,0.8,0.9
	C1102.6,388.4,1103,388.1,1103,387.6"/>
<polygon class="st26" points="1100,431.4 1105.5,438.6 1113.5,436.1 1113.6,425.6 1103.8,424.6 "/>
<polygon class="st64" points="1101.2,431.4 1113.5,430.6 1113.6,426.4 1104.8,425.6 "/>
<path class="st5" d="M1078.1,448.1c-0.8,0.5-0.3,0.7-3-2.8l-5.5-6.8l-2-2.2c-0.5-0.4-1.1-0.6-1.7-0.5c-0.6,0.1-1.1,0.4-1.4,1
	c-0.2,0.4-0.4,0.8-0.6,1.2c-0.3,0.8-0.1,1.8,0.6,2.4l2.2,2.5l3.5,5.2l-0.3,0.4c0,0-5.3-5.9-6.6-7.2s-3.9-2.5-3.9-2.5
	c-1.4-0.1-2.5,0.7-2.8,2c-0.1,0.6,0.1,1.3,0.5,1.8c0.4,0.5,2.5,1.6,3.6,2.6c1,1,6.3,7.1,6.3,7.1l-0.1,0l-6.3-5.5l-3.7-2.7
	c-1.2-0.4-2.1,0.1-2.5,1.1l-0.2,0.7c-0.3,1.5,0.5,0.7,2.5,2.6l1.4,1.2l6.6,6.2l-0.3,0.5l-4.1-4.6c0,0-3,0.8-1.2,3l6.2,7.7l12.2,5.2
	l5.5,3.1l3.7-13.5l-2.2-1.9c0,0-2.5-6.9-3-8.6c-0.6-1.7-2.8-1.5-2.8-1.5L1078.1,448.1z"/>
<polygon class="st23" points="1088.1,453.5 1082.2,474.1 1113.5,489.6 1113.5,466.1 "/>
<polygon class="st22" points="1084.9,462.4 1082.2,474.1 1113.5,489.6 1113.4,476.4 "/>
<path class="st1" d="M1089.2,472.1c0-0.5-0.4-0.9-0.8-0.9c-0.5,0-0.9,0.4-0.9,0.8c0,0.5,0.4,0.9,0.8,0.9
	C1088.8,473,1089.2,472.6,1089.2,472.1"/>
<polygon class="st1" points="1082.7,472.2 1080.7,471.4 1086.9,453.9 1087.7,454.2 "/>
<path class="st5" d="M530.1,427.1c0.8-0.5,1.4-1.3,1.6-2.2c0.2-0.9,0.1-1.3-0.2-2l-0.3-0.5c-1-1.6-2.4-1.7-4.1-0.9l-2.8,1.6
	c0.3,2.3,0.3,4.7,1.1,6.7L530.1,427.1z"/>
<rect x="525.5" y="410.8" transform="matrix(0.9868 -0.1621 0.1621 0.9868 -61.691 94.6714)" class="st1" width="47.4" height="29"/>
<path class="st22" d="M535.9,419.3c-0.3-1.9-2.1-3.1-3.9-2.8c-1.9,0.3-3.1,2.1-2.8,3.9c0.3,1.9,2.1,3.1,3.9,2.8
	C535,423,536.2,421.2,535.9,419.3"/>
<rect x="540.5" y="420.7" transform="matrix(0.9868 -0.1621 0.1621 0.9868 -61.0817 94.879)" class="st4" width="20.8" height="2.1"/>
<rect x="541.4" y="426.4" transform="matrix(0.9867 -0.1624 0.1624 0.9867 -62.1605 94.5401)" class="st4" width="11.4" height="2.1"/>
<rect x="554.3" y="424.2" transform="matrix(0.9868 -0.162 0.162 0.9868 -61.4893 96.3345)" class="st4" width="11.4" height="2.1"/>
<rect x="541.9" y="430.2" transform="matrix(0.9868 -0.1619 0.1619 0.9868 -62.5474 93.9357)" class="st4" width="6.6" height="1.3"/>
<rect x="550.8" y="428.7" transform="matrix(0.9868 -0.162 0.162 0.9868 -62.2356 95.4289)" class="st4" width="6.6" height="1.3"/>
<rect x="559.6" y="427.2" transform="matrix(0.9868 -0.1621 0.1621 0.9868 -61.9076 96.8899)" class="st4" width="6.6" height="1.3"/>
<path class="st5" d="M530.2,428.5L512,439.2l-0.3-0.6l13.8-8.7c-0.9-2-0.8-4.4-1.1-6.7l-17.6,10c-4.4,3.2-2.9,1.9-3.7,0.9
	c-1.2-1.4,1.4-2.7,2.6-3.5c1.7-1.1,2.4-1.2,4.5-3.2c0.8-0.8,1.3-2,1.4-3.2c0.1-0.7-0.1-1.5-0.5-2.1c-0.3-0.6-0.8-1.2-1.2-1.7
	c-1,0.5-2,1.9-4.5,3.3c-4.8,2.7-8.8,4-8.8,4l-14.3,21.6l-3.9,2.2l8.4,14.3l2.9-1.7l23.1-5.8l8.6-4.7c2.9-1.8-0.5-4.1-0.5-4.1l-5,1.9
	l-0.2-0.7l5.5-2.1l3-1.4c2.3-0.7,2.3-1.5,1.9-3.5l-0.2-0.5c-0.6-1.4-1.5-1.6-3-1.1l-8.5,3.7l-0.2-0.6l19-11.1c0.8-0.4,1.3-1,1.6-1.8
	c0.2-0.8,0.1-1.7-0.3-2.4C533.5,428.4,531.7,427.8,530.2,428.5"/>
<polygon class="st22" points="476.1,447.9 489.5,470.3 450.3,497.3 450.3,464.6 "/>
<polygon class="st1" points="476.8,449.1 488.6,468.7 490.4,467.5 478.5,447.9 "/>
<polygon class="st23" points="482.8,459.6 489.5,470.3 450.3,497.3 450.3,481.1 "/>
<path class="st1" d="M482.6,470.2c0.1-0.5,0.7-0.8,1.2-0.7c0.5,0.1,0.8,0.7,0.7,1.2c-0.1,0.5-0.7,0.8-1.2,0.7
	C482.8,471.3,482.5,470.7,482.6,470.2"/>
<polygon class="st22" points="1065.4,539.5 1046.5,553.2 1092.5,619.1 1107.2,619.1 1056.6,545.8 "/>
<polygon class="st23" points="1065.4,539.5 1056.6,545.8 1107.2,619.1 1107.3,619.2 1113.7,619.2 1113.7,608.3 "/>
<g class="st65">
	<g>
		<defs>
			<rect id="SVGID_17_" x="460.2" y="646.7" width="283.6" height="244.3"/>
		</defs>
		<clipPath id="SVGID_18_">
			<use xlink:href="#SVGID_17_"  style="overflow:visible;"/>
		</clipPath>
		<g class="st66">
			<defs>
				<rect id="SVGID_19_" x="460.2" y="646.7" width="283.6" height="244.3"/>
			</defs>
			<clipPath id="SVGID_20_">
				<use xlink:href="#SVGID_19_"  style="overflow:visible;"/>
			</clipPath>
			<path class="st67" d="M500.7,889c-4.4,0-8.3-3-9.3-7.1l-29-122.9c-0.6-2.6,0.1-5.1,2-7.2c1.5-1.6,3.6-2.5,6.1-2.8l-4.2-5.9
				l23.6-16.8L506,749h23.3c0.1-2.1,0.3-5.6,1-9.9l-1.6-2.3l-1.2-1.6l-16.8-23.6l23.6-16.8l9.3,13c10-12.1,24.4-18.2,42.9-18.2
				c19.7,0,34.7,6.8,44.6,20.3l43.7-60l0.3-0.2c1.1-0.8,2.4-1.2,3.7-1.2c2.1,0,4,1,5.2,2.7l56.6,79.4c1,1.4,1.4,3.1,1.1,4.8
				c-0.3,1.7-1.2,3.2-2.6,4.2l-0.3,0.2l-33.3,10.2c0.8,0.4,1.6,1,2.2,1.7c1.9,2.1,2.6,4.5,2,7.1l-29,123.1c-1,4.1-4.9,7-9.3,7H500.7
				z M663.7,872l2.7-12h-27.3v9.9c0,0.8-0.2,1.4-0.5,2.1H663.7z M505.4,848c0.9-1.3,2.5-2,4.4-2h23.7l-1.9-9h-31.5l2.6,11H505.4z
				 M675,824l2.6-11h-4.7c-0.3,0.9-0.8,1.6-1.6,2.2l-6.7,4.8h2.7c2.4,0,4.3,1.7,4.8,4H675z M529,824l-2.3-11h-32.1l2.6,11H529z
				 M542,820.1c0.3,0,0.6-0.1,0.9-0.1h36.3v-7h-38.6L542,820.1z M649.9,820l-4.6-3l-0.6,3H649.9z M630.7,820l1.5-7h-39v7H630.7z
				 M680.6,799l2.4-10h-17.8l1.1,1.5c1,1.4,1.4,3.1,1.1,4.8c-0.2,1.4-1,2.7-2,3.7H680.6z M579.2,799v-5.6L576,789h-12
				c-2.4,3-5.2,5.6-8.4,7.9c-1.1,0.8-2.2,1.5-3.3,2.1H579.2z M510.6,799c-4.4-2.6-8.3-5.9-11.5-10h-9.9l2.4,10H510.6z M686,778
				l2.7-12h-28.3c-0.2,1.8-1.1,3.5-2.6,4.5l-3.2,2.3l-1,5.2H686z M491.1,778l-7.3-10.2L486,778H491.1z M532.7,775.7
				c2.2-0.2,4.4-1,6.2-2.3c2.5-1.8,4.3-4.4,5-7.3h-13.2L532.7,775.7z M574.2,749l41.3-29.4c-6.9-8.4-16.7-12.7-28.9-12.7
				c-14.1,0-24.8,5.6-31.8,16.7l12,17l-0.1,0.1c1.7,2.6,3.1,5.5,4.1,8.4H574.2z"/>
			<path class="st67" d="M678.8,650.7c1.4,0,2.7,0.6,3.6,1.9L739,732c1.4,2,1,4.8-1,6.2L695.9,751h4.6c2.3,0,4.4,0.6,5.8,2.2
				c1.4,1.6,1.9,3.3,1.5,5.3l-29,123.1c-0.7,3.1-3.8,5.5-7.4,5.5H500.7c-3.6,0-6.6-2.5-7.4-5.6l-29-122.9c-0.5-2,0.1-3.8,1.5-5.4
				c1.4-1.6,3.6-2.2,5.8-2.2h2.6l-5.3-7.4l20.4-14.5L505,751h26.3c0,0-0.1-5.1,1.1-12.4l-3.3-4.6l-0.1,0l-15.6-22l20.4-14.5
				l9.7,13.6c8-10.8,21.2-19.5,43-19.5c23.3,0,36.8,10,44.6,21.8l45.2-62C677,651,677.9,650.7,678.8,650.7 M569.3,751h5.5l43.5-31
				c-6.2-8.4-16-15.1-31.8-15.1c-18,0-28.3,8.9-34.2,18.8l11.7,16.4l-0.1,0C566.3,743.6,568.1,747.3,569.3,751 M651.1,780h36.5
				l3.6-16h-33c0.5,1.8,0,3.8-1.6,4.9l-3.8,2.7L651.1,780 M567.3,780h4.8c-2.7-3.9-1.7-9.3,2.1-12.1l-2.8-3.9h-0.3
				C571,769.6,569.7,775,567.3,780 M531.5,777.8c3,0,6-0.9,8.6-2.7c3.8-2.7,5.9-6.7,6.2-11h-18l2.7,13.7
				C531.2,777.8,531.3,777.8,531.5,777.8 M519.5,771.7L519.5,771.7c0.3,0.2,0.4,0.4,0.6,0.6l-1.7-8.3H514L519.5,771.7 M484.2,780
				h10.8l-10-14.1l0,0l-1.3-1.9h-2.6l3.2,15.1V780 M663.9,801h18.3l3.4-14h-24.2l3.3,4.7c1.4,2,1,4.8-1,6.2c-0.5,0.3-1,0.5-1.5,0.7
				L663.9,801 M542.6,801h38.6v-8.2L577,787h-14c-2.4,3.1-5.2,5.9-8.6,8.3C550.7,797.9,546.7,799.8,542.6,801 M489.9,801h30.3
				c-7.8-2.3-15-7-20.3-14h-13.4L489.9,801 M591.2,801h6.6l-3-4.3c-1.1,0.8-2.3,1.3-3.6,1.5V801 M611.5,801H624l-4.7-3l-1.8-1.2
				L611.5,801 M657.4,821.9c-0.6,0-1.3-0.2-1.8-0.5l-11.8-7.6l-1.7,8.2h25.1c1.8,0,2.9,1.4,2.9,3.2v0.8h6.4l3.6-15H671
				c0.3,0.9,0,2-0.8,2.6l-10.8,7.7C658.8,821.7,658.1,821.9,657.4,821.9 M591.2,822h13.1h28l2.3-11h-43.5V822 M540.6,823
				c0.6-0.6,1.4-0.9,2.3-0.9h38.3v-11h-43.1L540.6,823 M495.6,826h35.9l-3.2-15H492L495.6,826 M636.7,850H671l3.6-15h-4.4v9.4
				c0,1.8-1.1,3.6-2.9,3.6h-30.4l-0.4,1.5C636.6,849.8,636.7,849.8,636.7,850 M501.2,850h5.5c0.4-1.4,1.6-2,3.1-2h26.1l-2.7-13
				h-35.6L501.2,850 M631.3,874h34l3.6-16h-31.8V870c0,1.8-1.8,3.1-3.6,3.1h-2.1L631.3,874 M506.8,874h34.6l-0.2-1h-31.5
				c-1.8,0-3.6-1.3-3.6-3h1.1c0,0-0.1-0.2-0.1-0.2V858h-4L506.8,874 M591.2,874h30.3l0.2-1h-30.5V874 M551.2,874h29.9v-1h-10.3
				h-19.8L551.2,874 M506.2,870C506.2,870,506.2,870,506.2,870L506.2,870L506.2,870 M678.8,646.7c-1.8,0-3.5,0.5-4.9,1.6l-0.5,0.4
				l-0.4,0.5l-41.9,57.6c-10.3-12.6-25.3-19-44.6-19c-18.1,0-32.5,5.7-42.8,16.9l-6.6-9.3l-2.3-3.3l-3.3,2.3l-20.4,14.5l-3.3,2.3
				l2.3,3.3l15.6,22l2.3,3.3l0.1,0l0,0c-0.4,2.9-0.7,5.5-0.8,7.4H507l-14.3-20.2l-2.3-3.3l-3.3,2.3l-20.4,14.5l-3.3,2.3l2.3,3.3
				l1.3,1.8c-1.6,0.6-3.1,1.5-4.2,2.7c-2.3,2.5-3.2,5.8-2.5,9l29,122.9c1.2,5,5.9,8.6,11.3,8.6h170.8c5.3,0,10.1-3.6,11.3-8.6
				l29-123.1c0.7-3,0-5.9-2-8.4l29.5-9l0.6-0.2l0.5-0.4c3.8-2.7,4.7-8,2-11.8l-56.6-79.4C684.1,648,681.5,646.7,678.8,646.7
				 M557.1,723.6c6.6-9.7,16.5-14.7,29.4-14.7c10.8,0,19.6,3.5,26,10.4L573.5,747h-1.4c-0.8-2-1.7-4-2.8-5.8l0.2-0.1l-2.3-3.3
				L557.1,723.6z M662,768h24.2l-1.8,8H656l0.4-2l2.5-1.8C660.4,771.2,661.4,769.7,662,768 M533.2,768h7.8c-0.8,1.4-1.9,2.7-3.3,3.7
				c-1.1,0.8-2.2,1.3-3.5,1.6L533.2,768z M668.9,791h11.6l-1.4,6h-10c0.2-0.4,0.3-0.9,0.4-1.4C669.6,794.1,669.5,792.5,668.9,791
				 M564.9,791h10l2.2,3.1v2.9h-18.4C561,795.2,563.1,793.2,564.9,791 M491.6,791h6.4c1.8,2.2,3.9,4.2,6.1,6h-11.1L491.6,791z
				 M674.2,815h0.9l-1.7,6.9c-0.7-1.5-1.9-2.7-3.4-3.3l2.5-1.8C673.2,816.4,673.8,815.7,674.2,815 M595.2,815h34.5l-0.6,3h-24.8
				h-9.1V815z M543,815h34.2v3h-33.5L543,815z M497,815h28l1.5,7h-27.8L497,815z M502.7,839H530l1,5h-21.2c-2.1,0-4,0.7-5.3,2h-0.2
				L502.7,839z M641.2,862h22.8l-1.8,8h-21V870V862z"/>
		</g>
	</g>
</g>
<path class="st68" d="M504.6,751l14.7,20.7l0.1-0.1c4.7,6.6,13.8,8.1,20.5,3.4c6.7-4.7,8.3-13.8,3.5-20.4l0.1-0.1l-14.7-20.7
	l20.3-14.4l14.7,20.7l-0.1,0c12.7,17.8,8.4,42.5-9.4,55.1c-17.8,12.7-42.5,8.6-55.2-9.3l0,0l-14.7-20.7L504.6,751z"/>
<rect x="474.5" y="733.9" transform="matrix(0.8153 -0.5791 0.5791 0.8153 -342.93 420.0868)" class="st69" width="25" height="27.3"/>
<rect x="518.8" y="702.4" transform="matrix(0.8153 -0.5791 0.5791 0.8153 -316.4045 439.8845)" class="st70" width="25" height="26.9"/>
<polygon class="st71" points="508.4,687.3 508.4,687.3 508.5,687.3 506.9,669.4 512.5,679.6 518.4,681.5 520,699.6 514.2,689.3 
	508.5,687.2 508.4,687.3 "/>
<polygon class="st71" points="463.9,718.6 463.9,718.6 464,718.6 462.4,700.7 468,710.9 473.9,712.9 475.5,730.9 469.7,720.6 
	464.1,718.5 463.9,718.6 "/>
<path class="st72" d="M507,851C507,851,507.1,851,507,851l121.9,0c1.8,0,3.2,1.8,3.2,3.9v10.9c0,2.2-1.4,3.9-3.2,3.9H507.1
	c0,0-0.1,0-0.1,0V851z"/>
<path class="st69" d="M628.8,869.8c1.8,0,3.2-1.8,3.2-3.9v-10.9c0-2.2-1.5-3.9-3.2-3.9H506.4v-0.2c0-1.8,1.4-3.2,3.2-3.2h123.8
	c1.8,0,3.2,1.4,3.2,3.2V870c0,1.8-1.4,3.2-3.2,3.2H509.6c-1.8,0-3.2-1.4-3.2-3.2v-0.2H628.8z"/>
<polygon class="st73" points="518,869 513.3,872.5 513.3,861.1 522.6,861.1 522.6,872.5 "/>
<g>
	<g>
		<defs>
			<rect id="SVGID_21_" x="570.7" y="847.6" width="65.9" height="25.6"/>
		</defs>
		<clipPath id="SVGID_22_">
			<use xlink:href="#SVGID_21_"  style="overflow:visible;"/>
		</clipPath>
		<g class="st74">
			<defs>
				<rect id="SVGID_23_" x="570.7" y="847.6" width="65.9" height="25.6"/>
			</defs>
			<clipPath id="SVGID_24_">
				<use xlink:href="#SVGID_23_"  style="overflow:visible;"/>
			</clipPath>
			<path class="st75" d="M570.7,847.6h62.7c1.8,0,3.2,1.4,3.2,3.2V870c0,1.8-1.4,3.2-3.2,3.2h-62.7V847.6z"/>
		</g>
	</g>
</g>
<path class="st72" d="M540.1,825.4C540.1,825.4,540.2,825.4,540.1,825.4l122.4,0c1.8,0,3.2,1.8,3.2,3.9v10.9c0,2.2-1.4,3.9-3.2,3.9
	H540.2c0,0-0.1,0-0.1,0V825.4z"/>
<path class="st70" d="M662.5,844.3c1.8,0,3.3-1.8,3.3-3.9v-10.9c0-2.2-1.5-3.9-3.3-3.9h-123v-0.2c0-1.8,1.4-3.2,3.2-3.2H667
	c1.8,0,3.2,1.4,3.2,3.2v19.2c0,1.8-1.4,3.2-3.2,3.2H542.7c-1.8,0-3.2-1.4-3.2-3.2v-0.2H662.5z"/>
<g>
	<g>
		<defs>
			<rect id="SVGID_25_" x="604.1" y="822.1" width="66.2" height="25.6"/>
		</defs>
		<clipPath id="SVGID_26_">
			<use xlink:href="#SVGID_25_"  style="overflow:visible;"/>
		</clipPath>
		<g class="st76">
			<defs>
				<rect id="SVGID_27_" x="604.1" y="822.1" width="66.2" height="25.6"/>
			</defs>
			<clipPath id="SVGID_28_">
				<use xlink:href="#SVGID_27_"  style="overflow:visible;"/>
			</clipPath>
			<path class="st77" d="M604.1,822.1h63c1.8,0,3.2,1.4,3.2,3.2v19.2c0,1.8-1.4,3.2-3.2,3.2h-63V822.1z"/>
		</g>
	</g>
</g>
<polygon class="st73" points="676,651.5 659.5,674.2 626.5,719.5 657.4,762.8 711,746.3 737.8,738.1 "/>
<path class="st70" d="M664.5,791.7l-3.9-5.4c-1.4-2-4.2-2.5-6.2-1c-2,1.4-2.5,4.2-1,6.2l3.9,5.4c1.4,2,4.2,2.5,6.2,1
	C665.4,796.5,665.9,793.7,664.5,791.7"/>
<path class="st73" d="M644.3,777.5l-25.3,18l-1.8,1.3l1.9,1.2v0l12.4,8l1.8,1.2l22.2,14.3c1,0.7,2.7,0.6,3.7-0.1l10.8-7.7
	c1-0.7,1.2-2.1,0.5-3.1l-11.6-16.2l-10.3-14.4l-1.3-1.8l-1.3-1.8L644.3,777.5z"/>
<path class="st69" d="M658.5,809.4c-1.4-2-4.2-2.5-6.2-1l-7.9,5.7l8,5.2l5.1-3.6C659.4,814.1,659.9,811.4,658.5,809.4"/>
<path class="st69" d="M650.8,798.5c-1.4-2-4.2-2.5-6.2-1l-12.3,8.7l8,5.2l9.4-6.7C651.7,803.3,652.2,800.5,650.8,798.5"/>
<path class="st69" d="M636.9,786.7L622.4,797c0,0-0.1,0.1-0.1,0.1l-2,1.4l0.6,0.4c0.1-0.2,0.2-0.4,0.3-0.5c-0.1,0.2-0.2,0.3-0.3,0.5
	l7.4,4.8l13.7-9.8c2-1.4,2.5-4.2,1-6.2C641.6,785.7,638.9,785.3,636.9,786.7 M621.5,797.9C621.5,797.9,621.5,797.9,621.5,797.9
	C621.5,797.9,621.5,797.9,621.5,797.9"/>
<path class="st70" d="M657.4,762.8L642,741.1l-15.4-21.6c-1.4-2-4.2-2.4-6.2-1l-50.5,36c-2,1.4-2.5,4.2-1,6.2l15.4,21.6l15.4,21.6
	c1.4,2,4.2,2.5,6.2,1l50.5-36C658.3,767.5,658.8,764.8,657.4,762.8"/>
<path class="st69" d="M574.1,767.9c-4,2.8-4.9,8.4-2.1,12.4l10.3,14.4c2.8,4,8.4,4.9,12.4,2.1L574.1,767.9z"/>
<polygon class="st69" points="676,651.5 659.5,674.2 711,746.3 737.8,738.1 "/>
<path class="st70" d="M676,651.5l5.1,7.2l15.4,21.6l5.1,7.2l10.3,14.4l5.1,7.2l15.4,21.6l5.1,7.2c2-1.4,2.5-4.2,1-6.2l-2.6-3.6
	l-15.4-21.6l-5.1-7.2L705.4,685l-5.1-7.2l-15.4-21.6l-2.6-3.6C680.8,650.6,678,650.1,676,651.5"/>
<path class="st78" d="M707.6,758.5c0.5-2-0.1-3.5-1.5-5.1c-1.4-1.6-3.6-2-5.8-2H471.5c-2.3,0-4.4,0.4-5.8,2c-1.4,1.6-2,3.4-1.5,5.3
	l29,123c0.7,3.1,3.8,5.7,7.4,5.7h170.8c3.6,0,6.6-2.6,7.4-5.7L707.6,758.5z M687.4,780.4h-36.5l3.2-16H691L687.4,780.4z
	 M626.3,850.4H591v-15h38.5L626.3,850.4z M639.3,835.4h35.1l-3.6,15h-34.7L639.3,835.4z M486.4,787.4h36.9l3,14h-36.5L486.4,787.4z
	 M581,780.4h-49.7l-3.2-16H581V780.4z M591,764.4h53.2l-3.2,16H591V764.4z M581,787.4v14h-44.9l-3-14H581z M581,811.4v15h-39.9
	l-3.2-15H581z M528,811.4l3.2,15h-35.9l-3.6-15H528z M497.4,835.4H533l3.2,15H501L497.4,835.4z M542.9,835.4H581v15h-34.9
	L542.9,835.4z M581,858.4v16h-29.9l-3.2-16H581z M591,858.4h33.5l-3.2,16H591V858.4z M591,826.4v-15h43.5l-3.2,15H591z M591,801.4
	v-14h48.3l-3,14H591z M649.1,787.4h36.3l-3.4,14h-35.9L649.1,787.4z M518.3,764.4l3.2,16H484v-1.3l-3.2-14.7H518.3z M503,858.4h35
	l3.2,16h-34.6L503,858.4z M631.1,874.4l3.2-16h34.4l-3.6,16H631.1z M676.4,826.4h-35.3l3.2-15H680L676.4,826.4z"/>
<path class="st79" d="M544.3,751.4c0,0,0.8-46.1,42-46.1s42,46.1,42,46.1h13.2c0,0,1.6-59.3-55.2-59.3s-55.2,59.3-55.2,59.3H544.3z"
	/>
</svg>
