<svg id="Layer_1" data-name="Layer 1" xmlns="http://www.w3.org/2000/svg" viewBox="0 0 196.99 196.86"><defs><style>.cls-1{fill:#fff;stroke:#262424;stroke-miterlimit:10;}.cls-2{fill:none;}.cls-3{fill:#121313;}.cls-4{fill:#f2cc32;}.cls-5{fill:#dad9d9;}.cls-6{fill:#d5d5d5;}.cls-7{fill:#f2f2f3;}.cls-8{fill:#f4f4f4;}.cls-9{fill:#e8e8e8;}.cls-10{fill:#f1f1f1;}.cls-11{fill:#e1e1e1;}.cls-12{fill:#e2e2e2;}.cls-13{fill:#e0e1e0;}.cls-14{fill:#d4d4d4;}.cls-15{fill:#d1d1d1;}.cls-16{fill:#d6d6d6;}</style></defs><title>selo_proem</title><circle class="cls-1" cx="98.02" cy="97.16" r="85.25"/><path class="cls-2" d="M149.41,139.08l0,0c.09.16-.53.3,0,.38a.36.36,0,0,0,.26-.08A1.17,1.17,0,0,0,149.41,139.08Z" transform="translate(-0.57 -0.54)"/><path class="cls-2" d="M149,137.54l.06-.08c0-.6.63-.57,1.1-.82a1,1,0,0,0-1.48.3,1,1,0,0,0,.2,1.42h0A1.12,1.12,0,0,1,149,137.54Z" transform="translate(-0.57 -0.54)"/><path class="cls-2" d="M99.07,107.5h0Z" transform="translate(-0.57 -0.54)"/><path class="cls-2" d="M152.13,136.93l.07,0a1.11,1.11,0,0,0-.14-.23.88.88,0,0,0-.28-.21c-.18.06-.39.29-.46-.06a1.75,1.75,0,0,0-.62.21c.26.29.71,0,.83.26A2.13,2.13,0,0,1,152.13,136.93Z" transform="translate(-0.57 -0.54)"/><path class="cls-2" d="M143.35,122.6a1.14,1.14,0,0,1,.42-.7c.13-.22.24-.46.5-.56a2.63,2.63,0,0,1,.9-.54h0a.05.05,0,0,1,.09,0h0a.73.73,0,0,1,.57-.19,2.45,2.45,0,0,1,1.87,0l.11,0a5.73,5.73,0,0,0-2.15-.41,3.38,3.38,0,0,0-3.1,3.48,3.72,3.72,0,0,0,1.17,2.76,3.75,3.75,0,0,1-.58-1.12A3.13,3.13,0,0,1,143.35,122.6Z" transform="translate(-0.57 -0.54)"/><path class="cls-2" d="M149.83,138.56c.11-.08.21-.17.18-.3l-.42-.09A.53.53,0,0,0,149.83,138.56Z" transform="translate(-0.57 -0.54)"/><path class="cls-2" d="M145.35,137.82a4.75,4.75,0,0,1,.28-1c.07-.12.16-.28-.07-.35a.29.29,0,0,0-.38.15c-.12.26-.13.56-.27.81l.24.67A.81.81,0,0,0,145.35,137.82Z" transform="translate(-0.57 -0.54)"/><path class="cls-2" d="M142.77,136.92a1.46,1.46,0,0,1,.49.11.93.93,0,0,0-.92-.57,1,1,0,0,0-1.08,1,1,1,0,0,0,.37.86,1.42,1.42,0,0,1-.05-.25A1.11,1.11,0,0,1,142.77,136.92Z" transform="translate(-0.57 -0.54)"/><path class="cls-2" d="M147.66,136.93l.19,0a1,1,0,0,0-.18-.27c-.38-.41-.87-.3-1.46,0,.38.2.73,0,1,.22A2.79,2.79,0,0,1,147.66,136.93Z" transform="translate(-0.57 -0.54)"/><path class="cls-2" d="M144.28,137l.14,0a1,1,0,0,0,0-.15c-.09-.24-.23-.36-.46-.29s-.11.31,0,.42c.28.47.17,1.34.67,1.51-.12-.32-.23-.63-.34-1S144,137.08,144.28,137Z" transform="translate(-0.57 -0.54)"/><path class="cls-2" d="M147.5,137.71s.08-.07.19-.18l-.22-.1c-.22-.12-.68.18-.72-.14-.36.1-.64.29-.63.71a.5.5,0,0,0,.36.51.57.57,0,0,1,0-.07C146.59,137.89,147,137.78,147.5,137.71Z" transform="translate(-0.57 -0.54)"/><path class="cls-2" d="M99.19,107.47a.22.22,0,0,0-.07.07.22.22,0,0,1,.07-.07Z" transform="translate(-0.57 -0.54)"/><path class="cls-2" d="M153.93,134.64a.85.85,0,0,1,.95-.63l.12,0a.7.7,0,0,0-.47-.49.77.77,0,0,0-.94.31s0,.07-.06.1q0,.3,0,.61c0,.11,0,.22,0,.32a.86.86,0,0,0,.08.12.9.9,0,0,0,.29.22A1.08,1.08,0,0,1,153.93,134.64Z" transform="translate(-0.57 -0.54)"/><path class="cls-2" d="M152.49,134c.3,0,.53,0,.48-.38a.48.48,0,0,1,0-.24s0-.09,0-.14.12-.45-.2-.5-.33.19-.31.41c0,.45-.24.32-.5.34a.82.82,0,0,0-.75,1c0,.46.24.64.51.7a1.13,1.13,0,0,1,0-.12C151.65,134.54,151.85,134.06,152.49,134Z" transform="translate(-0.57 -0.54)"/><path class="cls-2" d="M142.38,129.42a18.57,18.57,0,0,0,6.88,1.69c2.15.23,4.31.29,6.63.3.25-.14.5-.3.77-.47a74.08,74.08,0,0,1-8.06-.33,18.77,18.77,0,0,1-6.4-1.53,5.37,5.37,0,0,1-1.33-.9A4.35,4.35,0,0,0,142.38,129.42Z" transform="translate(-0.57 -0.54)"/><path class="cls-2" d="M133.45,128.82q3.94-4,7.86-7.94c0-.2,0-.4-.05-.6-2.77,2.65-5.43,5.35-8.1,8-.26.26-.43.47-.17.83a.49.49,0,0,0,.21.19A.66.66,0,0,1,133.45,128.82Z" transform="translate(-0.57 -0.54)"/><path class="cls-2" d="M151.27,137.93a3.74,3.74,0,0,1,.8-.31l-.13-.15c-.2-.2-.7.16-.74-.17a.85.85,0,0,0-.27.07.65.65,0,0,0-.4.72.56.56,0,0,0,.38.48A.72.72,0,0,1,151.27,137.93Z" transform="translate(-0.57 -0.54)"/><path class="cls-2" d="M137.78,126.87l-.36.26c0,.06,0,.12,0,.18a4.68,4.68,0,0,0,1.08,3.25,5.76,5.76,0,0,1-.71-3C137.78,127.39,137.78,127.21,137.78,126.87Z" transform="translate(-0.57 -0.54)"/><path class="cls-2" d="M98.35,106.74c.21.2.29.59.7.51h0C98.64,107.33,98.56,106.94,98.35,106.74Z" transform="translate(-0.57 -0.54)"/><path class="cls-2" d="M154.44,136.92a1.23,1.23,0,0,1,.4.07.92.92,0,0,0-1-.53c-.66,0-1,.41-1,1.23a.93.93,0,0,0,.48.74,1.29,1.29,0,0,1-.06-.4A1.05,1.05,0,0,1,154.44,136.92Z" transform="translate(-0.57 -0.54)"/><path class="cls-2" d="M98.34,106.53a.53.53,0,0,1-.09.14h0A.53.53,0,0,0,98.34,106.53Z" transform="translate(-0.57 -0.54)"/><path class="cls-2" d="M104.76,111.67c.45.2.91.39,1.36.61-.45-.21-.91-.41-1.36-.61Z" transform="translate(-0.57 -0.54)"/><path class="cls-2" d="M100.08,155.73c0-2.06,0-4.12,0-6.18,0,2.06,0,4.12,0,6.18s0,4.18,0,6.27C100.1,159.92,100.08,157.83,100.08,155.73Z" transform="translate(-0.57 -0.54)"/><path class="cls-2" d="M138.9,133.35h.15c0-.1-.08-.2-.13-.3-.16-.33-.63-.36-.81.11s-.36,1.13-.53,1.7c0,.13-.13.3.08.37a.28.28,0,0,0,.36-.12c.14-.47.3-.94.43-1.42A.42.42,0,0,1,138.9,133.35Z" transform="translate(-0.57 -0.54)"/><path class="cls-2" d="M109.72,109.63h0l-.54-.27h0Z" transform="translate(-0.57 -0.54)"/><path class="cls-2" d="M152,124.17c1.27-1.77,1.27-3.26.07-4.42a2.77,2.77,0,0,1-.1,3.42,5.39,5.39,0,0,0-.72,4l.35-.35A3.43,3.43,0,0,1,152,124.17Z" transform="translate(-0.57 -0.54)"/><path class="cls-2" d="M147.13,135.23a1.55,1.55,0,0,0,.3-.15.9.9,0,0,0-.3-.14C147,135.05,147,135.14,147.13,135.23Z" transform="translate(-0.57 -0.54)"/><path class="cls-2" d="M139.36,116a39.92,39.92,0,0,0,7.93-.18,19.65,19.65,0,0,1,4.41.11,6,6,0,0,1,1.32.37,5.69,5.69,0,0,0-1.54-.55,14.51,14.51,0,0,0-3.56-.22c-3,.1-6,.57-8.94.22a3.31,3.31,0,0,0-2.72.71H137A3.61,3.61,0,0,1,139.36,116Z" transform="translate(-0.57 -0.54)"/><path class="cls-2" d="M95.25,139.38h0c-5.29,0-10.58,0-15.87,0C84.67,139.39,90,139.38,95.25,139.38Z" transform="translate(-0.57 -0.54)"/><path class="cls-2" d="M142.88,133.51a.77.77,0,0,0-.83.52,1.22,1.22,0,0,0-.05.17.66.66,0,0,1,0,.18c0,.12,0,.24,0,.35a.81.81,0,0,0,.13.23.82.82,0,0,0,.23.19,1.25,1.25,0,0,1,0-.15.92.92,0,0,1,.55-.95.8.8,0,0,1,.67,0,.7.7,0,0,0-.25-.39c-.14.07-.32.11-.51.21A1.13,1.13,0,0,1,142.88,133.51Z" transform="translate(-0.57 -0.54)"/><path class="cls-2" d="M71.5,40.82V45.2q0-2.19,0-4.38c0-1.4,0-2.8,0-4.2C71.51,38,71.5,39.42,71.5,40.82Z" transform="translate(-0.57 -0.54)"/><path class="cls-2" d="M148.75,135.11a.51.51,0,0,0,.3.19s0,0,0,0c0-.55.54-.54,1-.72-.26-.35-.59,0-.83-.28a.84.84,0,0,1,.9-.27.65.65,0,0,0-.75-.51c-.44,0-.81.08-.25.56a.56.56,0,0,1-.14.18,1.1,1.1,0,0,0-.2.17c0,.17,0,.35,0,.52S148.74,135.05,148.75,135.11Z" transform="translate(-0.57 -0.54)"/><path class="cls-2" d="M117.23,151.16c-.47.17-.47.62-.48,1.83,0,.51,0,1,0,1.52,0-.51,0-1,0-1.52C116.76,151.78,116.76,151.32,117.23,151.16Z" transform="translate(-0.57 -0.54)"/><path class="cls-2" d="M145.1,134.55s0,0,0,0c0,.23-.19.63.22.65a.38.38,0,0,0,.19,0v-.61C145.3,134.51,145.18,134.5,145.1,134.55Z" transform="translate(-0.57 -0.54)"/><path class="cls-2" d="M146.21,135a1,1,0,0,0,.23.18,1,1,0,0,1,.09-.69.55.55,0,0,1,0-.07c0-.59.61-.42.89-.81a1,1,0,0,0-1.27.33.9.9,0,0,0-.15.45,1.49,1.49,0,0,1,.11.44A.91.91,0,0,0,146.21,135Z" transform="translate(-0.57 -0.54)"/><path class="cls-2" d="M140.48,134.24c.32-.39.72-.19,1.09-.17q0-.24-.07-.47s-.11-.08-.14-.06c-.4.17-.88-.25-1.24.17a1,1,0,0,0-.18,1.09.65.65,0,0,0,.33.37A1,1,0,0,1,140.48,134.24Z" transform="translate(-0.57 -0.54)"/><path class="cls-2" d="M144,135.11l0,.06a.29.29,0,0,0,.25.07l.13,0a.56.56,0,0,0,0-.14,4.2,4.2,0,0,1,0-.62c0-.31.08-.42.21-.42a.26.26,0,0,1,.21-.08.24.24,0,0,1,.25.19.67.67,0,0,1,.53-.14.56.56,0,0,0-.62-.5c-.66,0-1.18.18-1,1a1,1,0,0,1,.09.55A.06.06,0,0,1,144,135.11Z" transform="translate(-0.57 -0.54)"/><path class="cls-2" d="M140.45,135.63c-.16,0-.4-.11-.37.2s.22.16.35.17a1.4,1.4,0,0,0,.74-.09,1.57,1.57,0,0,1-.65-.28Z" transform="translate(-0.57 -0.54)"/><path class="cls-2" d="M109.78,109.67l.2.17-.2-.17Z" transform="translate(-0.57 -0.54)"/><path class="cls-2" d="M159.36,118.84a1.88,1.88,0,0,0,.17-.15.43.43,0,0,0-.09-.21c-.31-.41-.47,0-.63.12-1.07.75-2.13,1.52-3.19,2.28,0,.19,0,.4,0,.65C157,120.55,158.16,119.68,159.36,118.84Z" transform="translate(-0.57 -0.54)"/><path class="cls-2" d="M147.74,134.33a.51.51,0,0,1,0,.1,2.41,2.41,0,0,0,0,.62.2.2,0,0,0,.22.21.28.28,0,0,0,.15,0c0-.29.05-.6,0-.89a.32.32,0,0,1,0-.19c0-.24.18-.57-.19-.58s-.3.24-.26.5a.16.16,0,0,1,.08.11A.25.25,0,0,1,147.74,134.33Z" transform="translate(-0.57 -0.54)"/><path class="cls-2" d="M110.54,110.07a.75.75,0,0,0-.77-.4h0A.75.75,0,0,1,110.54,110.07Z" transform="translate(-0.57 -0.54)"/><path class="cls-3" d="M36.51,156.16A85.71,85.71,0,0,1,29.38,47.59,84.94,84.94,0,0,1,68.72,17.3a83.86,83.86,0,0,1,19.89-4.9,85.83,85.83,0,0,1,90.72,54.74A83.7,83.7,0,0,1,184.22,87a85.69,85.69,0,0,1-27.85,74.35c-.15.14-.29.3-.43.45q2.86,5,5.7,10c.22.39.43.46.85.29,1.32-.54,2.65-1,4-1.53a1.58,1.58,0,0,0,1-.94Q182.4,135.83,197.38,102a1.71,1.71,0,0,0,0-1.43q-13.3-34.38-26.57-68.77a2.08,2.08,0,0,0-1.2-1.29Q136,15.68,102.29.75a1.76,1.76,0,0,0-1.5-.08Q66.38,14,31.94,27.28a2,2,0,0,0-1.2,1.17q-14,31.69-28,63.37A34.16,34.16,0,0,1,.57,96.36v.36A1.91,1.91,0,0,1,.75,97l10.78,27.89q8,20.67,16,41.35a1.68,1.68,0,0,0,1,1c1.56.66,3.11,1.34,4.64,2.06a.92.92,0,0,0,1.32-.31c2.26-2.7,4.56-5.36,6.85-8C39.7,159.39,38.06,157.82,36.51,156.16Z" transform="translate(-0.57 -0.54)"/><path class="cls-4" d="M155.94,161.83c.14-.15.28-.31.43-.45a85.88,85.88,0,0,0,15.17-17.92A85.6,85.6,0,0,0,184.22,87a83.7,83.7,0,0,0-4.89-19.89,85.12,85.12,0,0,0-30.22-39.29A85.52,85.52,0,0,0,88.61,12.4a83.86,83.86,0,0,0-19.89,4.9A85.9,85.9,0,0,0,13.51,91.92a85.74,85.74,0,0,0,23,64.25c1.54,1.66,3.18,3.23,4.78,4.84.14.1.28.22.43.31.7.45.78.81.16,1.54-4.62,5.36-9.18,10.76-13.75,16.17a10,10,0,0,0-1.56,2c4.62.12,9.12.26,13.63.36.87,0,1.35.27,1.52,1.22.52,3,1.13,5.9,1.71,8.85l.92,4.71c.34-.38.57-.61.78-.86l16.23-19.11c1-1.21,1-1.21,2.48-.39,3,1.2,6,2.46,9.08,3.43a86.43,86.43,0,0,0,15.58,3.4,88.1,88.1,0,0,0,14.56.57,85.92,85.92,0,0,0,24.63-4.78c1.88-.66,3.72-1.41,5.58-2.12,1.48-.81,1.48-.81,2.28.58q5.55,9.65,11.11,19.3c.18.31.27.7.65.89a2.21,2.21,0,0,0,.11-.2l4.88-12.47c.24-.61.48-1.17,1.32-1q4.81.77,9.62,1.51c1.4.22,2.8.41,4.33.63-.16-.32-.25-.5-.35-.68l-11.77-20.47C154.59,162.87,154.58,162.88,155.94,161.83ZM98.86,181.5a84.15,84.15,0,1,1,84.07-84.15A84,84,0,0,1,98.86,181.5Z" transform="translate(-0.57 -0.54)"/><path class="cls-3" d="M103.06,183.2a88.1,88.1,0,0,1-14.56-.57,86.43,86.43,0,0,1-15.58-3.4c-3.09-1-6.07-2.23-9.08-3.43-1.29,1.52-2.57,3.06-3.88,4.57-.42.48-.41.68.21,1q18,7.94,36,15.92a1.49,1.49,0,0,0,1.26,0q5.22-2.05,10.45-4.07,14-5.4,28-10.78c.61-.23.76-.42.38-1-1-1.67-2-3.39-3-5.08-1.86.71-3.7,1.46-5.58,2.12A85.92,85.92,0,0,1,103.06,183.2Z" transform="translate(-0.57 -0.54)"/><path class="cls-4" d="M98.78,15a82.36,82.36,0,1,0,82.34,82.34A82.23,82.23,0,0,0,98.78,15Zm.05,164.05A81.71,81.71,0,1,1,180.46,97.4,81.66,81.66,0,0,1,98.84,179.05Z" transform="translate(-0.57 -0.54)"/><path class="cls-4" d="M98.87,16.21a81.14,81.14,0,1,0,81,81.18A81.13,81.13,0,0,0,98.87,16.21Zm71,91.44c1.68,3.26,3.32,6.54,5,9.8.29.55.25.82-.31,1.18-3.07,2-6.09,4-9.16,5.94a1,1,0,0,0-.54,1.3c.77,3.52,1.49,7.05,2.26,10.57.16.7,0,1-.7,1.19-3.46,1.09-6.9,2.26-10.36,3.37a.91.91,0,0,0-.74,1c-.19,3.7-.43,7.39-.63,11.09,0,.54-.2.7-.73.72-3.7.2-7.39.44-11.09.63a.91.91,0,0,0-1,.75c-1.11,3.49-2.28,7-3.39,10.45-.2.63-.49.76-1.09.63-3.52-.77-7-1.49-10.57-2.27a1.15,1.15,0,0,0-1.43.61c-1.94,3-4,6-5.89,9.09-.37.58-.64.58-1.18.3-3.23-1.67-6.49-3.29-9.72-5a1,1,0,0,0-1.39.19c-2.67,2.44-5.39,4.82-8.06,7.26-.5.46-.8.49-1.32,0-2.67-2.44-5.38-4.83-8.05-7.27a1.09,1.09,0,0,0-1.47-.16c-3.17,1.65-6.38,3.24-9.55,4.89-.63.33-.93.27-1.33-.36-1.94-3-4-6-5.89-9.09a1,1,0,0,0-1.31-.52c-3.52.76-7.05,1.48-10.57,2.26-.71.16-1,0-1.18-.71-1.09-3.46-2.26-6.9-3.36-10.36a.9.9,0,0,0-1-.73c-3.7-.19-7.39-.44-11.09-.63-.55,0-.68-.21-.71-.73-.2-3.7-.45-7.39-.64-11.09a.9.9,0,0,0-.75-1c-3.49-1.11-7-2.28-10.45-3.39-.62-.2-.76-.47-.62-1.09.78-3.58,1.51-7.17,2.29-10.75a.91.91,0,0,0-.48-1.14c-3.09-2-6.14-4-9.23-6-.57-.36-.59-.64-.3-1.19,1.65-3.21,3.25-6.44,4.92-9.64a1.14,1.14,0,0,0-.22-1.53c-2.42-2.65-4.79-5.34-7.21-8-.46-.5-.49-.8,0-1.32,2.41-2.62,4.75-5.29,7.16-7.9A1.29,1.29,0,0,0,27,87.3c-1.66-3.17-3.24-6.38-4.88-9.56-.29-.56-.17-.8.32-1.11,3.06-2,6.09-4,9.16-5.94a1.09,1.09,0,0,0,.55-1.37c-.76-3.52-1.48-7.05-2.26-10.57-.15-.68,0-.93.67-1.13,3.43-1.09,6.84-2.25,10.28-3.34a1,1,0,0,0,.87-1.08c.18-3.67.44-7.33.63-11,0-.58.21-.73.77-.76,3.67-.19,7.33-.45,11-.63a1,1,0,0,0,1-.79c1.1-3.46,2.25-6.91,3.39-10.35.11-.32.05-.86.67-.74l5.59,1.17c1.84.39,3.68.75,5.51,1.17a1,1,0,0,0,1.22-.5c2-3.07,4-6.09,5.95-9.16.36-.56.64-.66,1.24-.35,3.23,1.68,6.48,3.3,9.71,5a1,1,0,0,0,1.32-.16c2.65-2.42,5.35-4.78,8-7.22.64-.6,1-.53,1.59,0,2.61,2.41,5.29,4.75,7.92,7.15a1,1,0,0,0,1.39.19c3.23-1.67,6.49-3.29,9.71-5,.57-.29.83-.23,1.19.32,2,3.07,4,6.09,5.95,9.16a1,1,0,0,0,1.29.54c3.52-.77,7.05-1.48,10.57-2.26.73-.16,1,0,1.19.7,1.09,3.43,2.25,6.84,3.35,10.27.18.55.37.8,1,.83,3.7.18,7.39.44,11.09.63.54,0,.69.19.72.72.2,3.7.44,7.39.63,11.09a.9.9,0,0,0,.74,1c3.49,1.11,7,2.28,10.45,3.39.63.2.77.47.63,1.08-.77,3.52-1.49,7-2.27,10.57a1.15,1.15,0,0,0,.59,1.44c3,1.93,6,3.95,9.09,5.89.56.36.6.65.31,1.21-1.67,3.23-3.3,6.48-5,9.72a1,1,0,0,0,.15,1.32c2.42,2.65,4.77,5.35,7.21,8,.59.64.53,1,0,1.59-2.43,2.64-4.79,5.34-7.2,8A.92.92,0,0,0,169.85,107.65Z" transform="translate(-0.57 -0.54)"/><path class="cls-3" d="M111.94,140.21c.07-.67-.14-.85-.83-.85l-7.93,0H95.25c-5.29,0-10.58,0-15.87,0-.68,0-.9.13-.9.87,0,4.12,0,8.25,0,12.37a12.84,12.84,0,0,1-.29,3.11c-.4,1.61-1.17,3-2.9,3.41s-3.51.46-4.92-1a5.81,5.81,0,0,1-1.52-4.27q-.05-6.86,0-13.71c0-.69-.18-.87-.85-.83-1.07.06-2.15,0-3.23,0-.49,0-.68.09-.68.63,0,5,0,10,0,15.06a7.42,7.42,0,0,0,3.1,6.42A9.93,9.93,0,0,0,72.05,163a14.26,14.26,0,0,0,6.1-.56c3.31-1.15,4.87-3.47,5-7.45.14-3.73,0-7.47,0-11.2,0-.64.18-.8.79-.78a33.75,33.75,0,0,0,3.67,0c.83-.06,1,.22,1,1,0,6,0,12,0,17.93,0,.61.12.84.78.81a25.61,25.61,0,0,1,3,0c.7,0,.89-.16.88-.87,0-6,0-12,0-18,0-.67.15-.84.83-.84,5,0,10,0,15.06,0,.89,0,2.09.31,2.59-.14S111.84,141.12,111.94,140.21Z" transform="translate(-0.57 -0.54)"/><path class="cls-4" d="M111.93,144.74c0-.61-.14-.83-.79-.82q-8,0-16,0c-.61,0-.75.19-.75.76q0,2.17,0,4.35t0,4.35c0,1.42,0,2.84,0,4.26s0,2.84,0,4.26c0,.7.21.86.86.83a30.16,30.16,0,0,1,3.14,0c.66,0,.78-.22.78-.82,0-4.33,0-8.67,0-13,0-1.17,0-1.17,1.14-1.17,3.62,0,7.23,0,10.85,0,.67,0,.91-.18.85-.86A15.41,15.41,0,0,1,111.93,144.74Z" transform="translate(-0.57 -0.54)"/><path class="cls-4" d="M94.36,149q0,2.17,0,4.35c0,1.42,0,2.84,0,4.26,0-1.42,0-2.84,0-4.26S94.36,150.48,94.36,149Z" transform="translate(-0.57 -0.54)"/><path class="cls-3" d="M133.22,156.49c.25,0,.36,0,.46-.08,2.18-.58,3.29-2,3.12-4-.19-2.24-1.38-3.34-3.8-3.54-2.21-.18-4.42,0-6.62-.1-.71,0-1,.13-1,.91,0,3.67,0,7.34,0,11,0,2,0,2,2.06,2,.61,0,.76-.18.74-.75,0-1.49,0-3,0-4.48,0-.45.1-.6.58-.62a3,3,0,0,1,2.85,1.47c.82,1.27,1.69,2.52,2.55,3.77.17.25.29.6.71.6H138C136.42,160.46,135.53,158,133.22,156.49Zm-4.61-1.86c-.33,0-.4-.16-.39-.44s0-.6,0-.89c0-.71-.24-1.65.12-2.07s1.4-.08,1.9-.15c.82,0,1.42,0,2,0a1.68,1.68,0,0,1,1.66,1.65,1.61,1.61,0,0,1-1.48,1.78A27.47,27.47,0,0,1,128.61,154.63Z" transform="translate(-0.57 -0.54)"/><path class="cls-3" d="M125.71,131.17c0,1,.5.89,1.13.91s1.11,0,1.09-.93c-.06-2.69,0-5.37,0-8.06s.22-2.34-2.45-2.36a1.35,1.35,0,0,0-1.41,1c-.33.89-.67,1.78-1,2.66l-1.69,4.42c-.87-2.4-1.67-4.6-2.45-6.81a1.63,1.63,0,0,0-1.8-1.26c-.33,0-.66,0-1,0-1.21,0-1.37.13-1.37,1.31,0,3,0,6.09,0,9.14,0,.94.51.89,1.13.89s1.11,0,1.09-.94c-.06-2.71,0-5.43,0-8.15h.16c.93,2.71,1.89,5.41,2.78,8.14a1.26,1.26,0,0,0,1.44,1,1.21,1.21,0,0,0,1.38-.92c.61-1.89,1.31-3.75,2-5.62.31-.86.63-1.72.94-2.57C125.73,125.73,125.77,128.45,125.71,131.17Z" transform="translate(-0.57 -0.54)"/><path class="cls-3" d="M111.2,148.8q-5.2,0-10.4,0c-.59,0-.76.15-.74.75,0,2.06,0,4.12,0,6.18s0,4.18,0,6.27c0,.54.12.74.69.71a26,26,0,0,1,2.87,0c.65,0,.86-.11.85-.81,0-2.87,0-5.74,0-8.6,0-.74.22-.88.9-.87,2,0,3.94,0,5.91,0,.49,0,.7-.12.67-.65a19.27,19.27,0,0,1,0-2.33C112,148.9,111.73,148.8,111.2,148.8Z" transform="translate(-0.57 -0.54)"/><path class="cls-3" d="M120.67,148.8c-2,0-4.06,0-6.08-.07-.55,0-.71.16-.7.71,0,2.09,0,4.18,0,6.26v4.83c0,2.21,0,2.19,2.21,2.15.5,0,.67-.14.66-.65,0-1.34,0-2.68,0-4,0-.5.12-.67.64-.66,1,0,2.09,0,3.13,0a3.93,3.93,0,0,0,3.8-2.6C125.34,152,123.82,148.82,120.67,148.8Zm-.51,6.07a15.9,15.9,0,0,1-2.94.18c-.45,0-.48-.2-.47-.54,0-.51,0-1,0-1.52,0-1.21,0-1.66.48-1.83a5.19,5.19,0,0,1,1.47-.09,5,5,0,0,1,1.6.16,1.92,1.92,0,0,1,1.41,1.84A1.83,1.83,0,0,1,120.17,154.87Z" transform="translate(-0.57 -0.54)"/><path class="cls-3" d="M113.89,149.43c0,2.09,0,4.18,0,6.26q0,2.42,0,4.83V155.7C113.9,153.61,113.92,151.52,113.89,149.43Z" transform="translate(-0.57 -0.54)"/><path class="cls-3" d="M90.72,94.09c0,.47.23.74.71.71a2.77,2.77,0,0,0,2.51-1.23c1.35-2.21,3.11-3.77,5.94-3.84a11.23,11.23,0,0,0,7.69-3.37,33.49,33.49,0,0,1,6.71-4.9,55.31,55.31,0,0,1,6.94-3.16,5.18,5.18,0,0,0-.62,0c-.47.06-.95.12-1.42.21A31.65,31.65,0,0,0,105,85.31a10.81,10.81,0,0,1-6.52,2.5A9.63,9.63,0,0,0,92,90.87,4.17,4.17,0,0,0,90.72,94.09Z" transform="translate(-0.57 -0.54)"/><path class="cls-3" d="M96.23,131.85a6,6,0,0,0,6-.82,5.44,5.44,0,0,0,1.8-4.21c0-3.87-1.17-5.7-3.89-6.17-2.9-.5-5.41.31-6.43,3.25a8.25,8.25,0,0,0-.32,3.79C93.65,129.58,94.3,131.21,96.23,131.85ZM96,124.55a2.76,2.76,0,0,1,2.81-2.15,2.59,2.59,0,0,1,2.68,2.27,7.28,7.28,0,0,1-.08,3.54,2.6,2.6,0,0,1-2.88,2.12,2.48,2.48,0,0,1-2.58-2.23,7.58,7.58,0,0,1-.15-1.53A6.66,6.66,0,0,1,96,124.55Z" transform="translate(-0.57 -0.54)"/><path class="cls-3" d="M76.67,92.53c0-.26-.05-.53-.08-.79-.77-6.76,1.6-12.19,7.21-16s11.35-3.72,17.12-.29c1.37.81,2.64,1.78,4,2.63-2.09-3.57-5.5-5.33-9.34-6.15-6.85-1.46-12.52.83-16.82,6.25A13.94,13.94,0,0,0,76.67,92.53Z" transform="translate(-0.57 -0.54)"/><path class="cls-3" d="M86.86,127.39a1.92,1.92,0,0,1,1.72,1.22c.4.93.77,1.87,1.15,2.8a2.29,2.29,0,0,0,2.49.54.37.37,0,0,0,.07-.48c-.75-1.63-1.09-3.48-2.59-4.7a3,3,0,0,0,2-3.4A2.8,2.8,0,0,0,89,120.82a27.43,27.43,0,0,0-4.47-.07c-.44,0-.6.33-.6.74,0,3.32,0,6.63,0,9.95,0,.41.15.62.56.62s.6,0,.9,0c.65,0,.9-.21.87-.89,0-1.07,0-2.15,0-3.23C86.23,127.47,86.41,127.35,86.86,127.39Zm-.6-3.3c0-.88,0-1.34.26-1.54s.7-.15,1.56,0a1.35,1.35,0,0,1,1.25,1.29,1.5,1.5,0,0,1-1,1.71,5.1,5.1,0,0,1-1.78.13c-.31,0-.31-.2-.31-.42C86.26,124.86,86.26,124.47,86.26,124.08Z" transform="translate(-0.57 -0.54)"/><path class="cls-3" d="M124.74,46.1c2.76.48,5.15-.83,5.8-3.25a8.4,8.4,0,0,0,0-4.42,3.48,3.48,0,0,0-1.75-2.38,5.66,5.66,0,0,0-5.79.17c-1.67,1-2,2.78-2,4.6C121,44.09,122.09,45.64,124.74,46.1ZM123.42,39a2.51,2.51,0,0,1,2.76-1.79,2.31,2.31,0,0,1,2.26,2,6.52,6.52,0,0,1,0,3,2.45,2.45,0,0,1-2.65,2.14,2.33,2.33,0,0,1-2.48-2.19,13,13,0,0,1-.13-1.42A6.08,6.08,0,0,1,123.42,39Z" transform="translate(-0.57 -0.54)"/><path class="cls-3" d="M87.51,61.78a4.05,4.05,0,0,0,3.68,4c2.7.48,5-.73,5.76-3.06a8.91,8.91,0,0,0,.35-2.31c0-3.19-1.15-4.78-3.78-5.26-2.93-.54-5.31.91-5.92,3.66A9.2,9.2,0,0,0,87.51,61.78Zm2.34-2.92a2.48,2.48,0,0,1,2.72-1.95A2.33,2.33,0,0,1,94.93,59a6.47,6.47,0,0,1,0,2.92,2.44,2.44,0,0,1-2.57,2.12A2.31,2.31,0,0,1,89.79,62a10.31,10.31,0,0,1-.14-1.25A7.63,7.63,0,0,1,89.85,58.86Z" transform="translate(-0.57 -0.54)"/><path class="cls-3" d="M91.57,45.83a5.44,5.44,0,0,0,6-1.33,6.23,6.23,0,0,0,1.13-4.22,4.92,4.92,0,0,0-1.51-3.88C94.56,34.12,89.84,35.6,89,39a8.85,8.85,0,0,0-.2,2.49C88.9,43.72,89.85,45.22,91.57,45.83Zm-.26-6.91a2.5,2.5,0,0,1,2.88-1.72,2.33,2.33,0,0,1,2.14,2.16c.07.44.12.88.15,1.09a6.48,6.48,0,0,1-.27,2.09,2.43,2.43,0,0,1-2.64,1.82,2.21,2.21,0,0,1-2.34-1.91A6.35,6.35,0,0,1,91.31,38.92Z" transform="translate(-0.57 -0.54)"/><path class="cls-3" d="M123.44,58.69a7.82,7.82,0,0,0-.19,2.49c.16,1.9.66,3.6,2.67,4.35a5.56,5.56,0,0,0,6-1.18,5.73,5.73,0,0,0,1.24-4c0-2-.51-3.38-1.51-4.24C129,53.86,124.25,55.34,123.44,58.69Zm7.31.36a4.37,4.37,0,0,1,.18,1.2,7.12,7.12,0,0,1-.34,2.14,2.44,2.44,0,0,1-2.64,1.68,2.16,2.16,0,0,1-2.24-1.79,6.22,6.22,0,0,1,.06-3.7,2.5,2.5,0,0,1,2.83-1.67A2.31,2.31,0,0,1,130.75,59.05Z" transform="translate(-0.57 -0.54)"/><path class="cls-3" d="M114.24,55.29c-.72,0-.94.28-.92,1s0,1.4,0,2.1,0,1.4,0,2.1c0,1.46,0,2.92,0,4.39,0,.6.21.88.84.86,1,0,2,0,3,0,2.74-.11,4.31-1.41,4.77-4a8.83,8.83,0,0,0,.06-2.14,4.28,4.28,0,0,0-3.69-4.09A30,30,0,0,0,114.24,55.29Zm5.14,3.17a4.62,4.62,0,0,1-.32,4.61,3.7,3.7,0,0,1-3.45,1c-.32-.14-.19-.4-.2-.61,0-1,0-2,0-3s0-2,0-3c0-.52.16-.64.66-.64C117.43,56.88,118.76,57,119.38,58.46Z" transform="translate(-0.57 -0.54)"/><path class="cls-3" d="M113.34,58.35c0,.7,0,1.4,0,2.1,0,1.46,0,2.92,0,4.39,0-1.46,0-2.92,0-4.39C113.33,59.75,113.34,59.05,113.34,58.35Z" transform="translate(-0.57 -0.54)"/><path class="cls-3" d="M81.26,46c.54,0,1.12.09,1.08-.77s0-1.73,0-2.6.45-1.23,1.36-.76a1.81,1.81,0,0,1,.78.94c.29.65.55,1.31.82,2,.51,1.25.83,1.42,2.14,1.22.45-.07.59-.31.41-.67-.7-1.45-1-3.13-2.33-4.24,1.56-.84,2.06-1.73,1.83-3.22a2.69,2.69,0,0,0-2.68-2.2,38,38,0,0,0-3.85-.05c-.56,0-.65.41-.65.87,0,2.92,0,5.85,0,8.77C80.16,46.12,80.75,46,81.26,46Zm1.92-8.8c1.4.1,2,.46,2,1.43s-.68,1.45-2,1.45c-.83,0-.83,0-.83-1.55C82.52,38.05,81.81,37.07,83.18,37.17Z" transform="translate(-0.57 -0.54)"/><path class="cls-3" d="M77.45,128.09a5.6,5.6,0,0,0,1.86-.17,3.58,3.58,0,0,0,2.86-3.86c0-1.73-1-2.82-2.85-3.21a25.09,25.09,0,0,0-3.83-.13c-.77,0-1.07.29-1.06,1.05,0,1.58,0,3.16,0,4.74s0,3.22,0,4.83c0,.49.15.73.66.71.3,0,.6,0,.89,0,.58,0,.79-.23.77-.81,0-.8,0-1.61,0-2.41C76.7,128.29,76.83,128,77.45,128.09Zm-.71-2.19c0-1,0-2,0-2.94,0-.8.62-.27.85-.43,2.19-.11,2.44,1.5,2,2.75a2.16,2.16,0,0,1-2.6,1C76.72,126.23,76.74,126.07,76.74,125.9Z" transform="translate(-0.57 -0.54)"/><path class="cls-3" d="M128.89,81.38a28.3,28.3,0,0,0-15.81,6.49c-2.79,2.31-5.24,5-7.85,7.47a12.41,12.41,0,0,1-5.68,3.43c-.18,0-.43,0-.55.33a10.45,10.45,0,0,1,2.91,2.43c.6.8.8.5,1.16-.13a47.91,47.91,0,0,1,6.46-8.67,37,37,0,0,1,8.95-7.51,47,47,0,0,1,10.88-3.91C129.2,81.32,129,81.36,128.89,81.38Z" transform="translate(-0.57 -0.54)"/><path class="cls-3" d="M111.93,130.23c-1,.05-2,0-3,0-.47,0-.73-.06-.67-.61.09-.85-.36-2,.19-2.48s1.53-.11,2.33-.13a1.48,1.48,0,0,1,.27,0c.67.11,1-.15,1-.85s-.24-1-1-.94a5.74,5.74,0,0,1-.72,0c-2.24,0-2.23,0-2.1-2.23,0-.4.14-.5.52-.49,1,0,2,0,3,0,.78,0,.78-.4.79-1s-.09-.88-.78-.87c-1.64,0-3.29,0-4.93,0-.69,0-1,.27-1,1,0,1.55,0,3.11,0,4.66s0,3.17,0,4.75c0,.68.28,1,1,1,1.67,0,3.35,0,5,0,.76,0,.71-.44.72-.93S112.66,130.19,111.93,130.23Z" transform="translate(-0.57 -0.54)"/><path class="cls-3" d="M98.23,106.7h0Z" transform="translate(-0.57 -0.54)"/><path class="cls-3" d="M103.24,110.84a2.92,2.92,0,0,1,1.52.84c.45.2.91.39,1.36.61,4,1.9,8,3.57,12,5.34.41.18.94.35,1.19-.15a1,1,0,0,0-.29-1.2,15,15,0,0,1-2.49-2.61,7.12,7.12,0,0,0,1.79,2.57c.21.2.67.35.35.76s-.56,0-.79-.08c-2.14-1-4.26-2-6.41-3A49.45,49.45,0,0,1,98.69,106c-.19-.17-.32-.52-.69-.44a.34.34,0,0,0,0,.16c0,.3.47.52.35.84a.53.53,0,0,1-.09.14l0,0c.44-.15.5.26.69.49l.08.07h0l0,0,.12.19h0l0,0a.27.27,0,0,1,.17.1.26.26,0,0,1,0,.19s-.12,0-.14,0-.16-.13-.13-.22a.22.22,0,0,1,.07-.07h0s-.07.05-.11,0h0a.12.12,0,0,1-.06-.05c-.06-.1,0-.13.05-.18h0c-.41.08-.49-.31-.7-.51l-.07,0h0v0a11.39,11.39,0,0,0-3.37-3.51l2.71,6.08a4.38,4.38,0,0,0,4.95,3,8.15,8.15,0,0,0,2.1-.38C104.32,111.35,103.68,111.38,103.24,110.84Zm-2.4-1.56c-.34-.3-.86-.5-.91-1.06l0,0h0c-.12.16-.21,0-.29-.06s0-.14,0-.15a.23.23,0,0,1,.28.21l0,0s0,0,0,0c1.09.78,2.05,1.72,3.16,2.49A6.9,6.9,0,0,1,100.84,109.27Z" transform="translate(-0.57 -0.54)"/><path class="cls-3" d="M99.21,107.45h0Z" transform="translate(-0.57 -0.54)"/><path class="cls-3" d="M99.91,108.19h0l0,0h0Z" transform="translate(-0.57 -0.54)"/><path class="cls-3" d="M98,105.69c0,.3.46.51.35.84C98.46,106.21,98,106,98,105.69Z" transform="translate(-0.57 -0.54)"/><path class="cls-3" d="M98.24,106.67v0h0v0a11.45,11.45,0,0,0-3.37-3.51A11.39,11.39,0,0,1,98.24,106.67Z" transform="translate(-0.57 -0.54)"/><path class="cls-3" d="M70.41,65.14c.27-.58.16-1.45.75-1.71a5.29,5.29,0,0,1,1.94-.07,3.85,3.85,0,0,0,.63,0c.95-.17,1.5.16,1.63,1.17S76,65.83,77,65.72s1.07-.12.72-1.11c-1-2.71-1.95-5.41-2.84-8.14-.3-.93-.74-1.39-1.75-1.16-.53.07-1.22-.28-1.5.54q-1.59,4.53-3.18,9c-.08.22-.16.47,0,.68C68.74,66,70.19,65.62,70.41,65.14ZM73,57.21l1.51,4.51h-3Z" transform="translate(-0.57 -0.54)"/><path class="cls-3" d="M109,56.48c-.3-.92-.72-1.41-1.74-1.17-.51.1-1.21-.3-1.5.54q-1.59,4.59-3.21,9.16c-.07.2-.17.38,0,.57a1.73,1.73,0,0,0,2-.44c.24-.57.17-1.42.67-1.67a4.76,4.76,0,0,1,1.94-.09,4.17,4.17,0,0,0,.72,0c1-.19,1.52.17,1.63,1.16s.61,1.29,1.58,1.2,1.08-.06.72-1.09C110.87,61.92,109.88,59.21,109,56.48Zm-3.34,5.24,1.49-4.52,1.49,4.52Z" transform="translate(-0.57 -0.54)"/><path class="cls-3" d="M71.5,40.82q0,2.19,0,4.38s0,.06,0,.09c0,.83.59.68,1.07.68s1.08.14,1.07-.68,0-1.55,0-2.32c0-.49.15-.61.61-.58a5.29,5.29,0,0,0,2.28-.33c1.55-.59,2.23-1.83,2.09-3.81A2.82,2.82,0,0,0,76,35.71a24.89,24.89,0,0,0-3.47-.14c-.78-.06-1.07.3-1.06,1C71.51,38,71.5,39.42,71.5,40.82ZM74,37.21a1.86,1.86,0,0,1,2.33,1,2,2,0,0,1-.34,2.09c-.56.65-1.34.53-2.08.5-.31,0-.23-.29-.24-.48,0-.45,0-.89,0-1.34,0-.07,0-.15,0-.23a.68.68,0,0,1,0-.22C73.76,38.06,73.29,37.41,74,37.21Z" transform="translate(-0.57 -0.54)"/><path class="cls-3" d="M80.27,65.69c.49,0,1.07.11,1-.72s0-1.49,0-2.24c0-.53.16-.67.66-.63a5.15,5.15,0,0,0,2.36-.36,3.41,3.41,0,0,0,2-3.73,2.9,2.9,0,0,0-2.55-2.57,17.41,17.41,0,0,0-3.39-.13c-1,0-1.2.14-1.21,1.17,0,1.37,0,2.75,0,4.12s0,2.93,0,4.39C79.12,65.86,79.76,65.68,80.27,65.69Zm1.43-8.77c1.21-.2,2,.19,2.28,1A1.94,1.94,0,0,1,83.56,60c-.55.59-1.31.46-2,.44-.32,0-.24-.28-.24-.48,0-.45,0-.9,0-1.34a1.15,1.15,0,0,1,0-.44C81.49,57.8,80.81,57.07,81.7,56.92Z" transform="translate(-0.57 -0.54)"/><path class="cls-3" d="M79.13,56.47c0,1.37,0,2.75,0,4.12s0,2.93,0,4.39c0-1.46,0-2.93,0-4.39S79.12,57.84,79.13,56.47Z" transform="translate(-0.57 -0.54)"/><path class="cls-3" d="M106.67,46q2.24-.06,4.48,0c.63,0,.76-.29.75-.81s-.07-.87-.73-.83c-.92,0-1.85,0-2.78,0-.44,0-.65-.07-.61-.58a14.88,14.88,0,0,0,0-1.88c0-.44.08-.65.58-.61.65,0,1.32,0,2,0s1-.07,1-.78-.31-.95-1-.85a4.3,4.3,0,0,1-.63,0c-2,0-2,0-1.91-2,0-.42.1-.57.54-.56.89,0,1.79,0,2.69,0,.63,0,.84-.19.82-.8s-.08-.87-.77-.85c-1.46.06-2.93,0-4.39,0-.75,0-1,.3-1,1,0,1.4,0,2.81,0,4.21s0,2.81,0,4.21C105.65,45.69,105.92,46,106.67,46Z" transform="translate(-0.57 -0.54)"/><path class="cls-3" d="M113.56,37.38c.5-.06,1,0,1.52,0s.6.16.59.62c0,1.19,0,2.39,0,3.58s0,2.39,0,3.58c0,.92.53.82,1.11.83s1.1,0,1.08-.87c-.05-1.85,0-3.7,0-5.56,0-.71-.31-1.64.14-2.05s1.3-.16,2-.11.75-.43.77-1-.12-.87-.79-.85c-2.12,0-4.24.05-6.36,0-.76,0-.82.37-.82.92S112.8,37.48,113.56,37.38Z" transform="translate(-0.57 -0.54)"/><path class="cls-3" d="M132.56,75.41c-8.5-1.12-28.36,5.44-31.61,10.51l1.57-1.08a43.62,43.62,0,0,1,16.68-7.12,78.66,78.66,0,0,1,11.93-1.17A1.37,1.37,0,0,0,132.56,75.41Z" transform="translate(-0.57 -0.54)"/><path class="cls-3" d="M103.33,44.24a29.76,29.76,0,0,0,.14-4.11c0-1.3-.05-2.34,0-3.38.06-.87-.18-1.21-1.12-1.21s-1.09.34-1.07,1.16c.05,2.11,0,4.23,0,6.35,0,1.25-.43,1.54-1.6,1.1-.16-.06-.3-.22-.47-.06a2.3,2.3,0,0,0,.22,1.75A2.63,2.63,0,0,0,103.33,44.24Z" transform="translate(-0.57 -0.54)"/><path class="cls-3" d="M95.19,88a7.09,7.09,0,0,1,2.7-.87A1.86,1.86,0,0,0,99.68,85a2.11,2.11,0,0,0-.94-1.74,2.73,2.73,0,0,0-3.44.35A12.19,12.19,0,0,0,93,86.61a.52.52,0,0,0-.11.32A2.87,2.87,0,0,0,95.19,88Z" transform="translate(-0.57 -0.54)"/><path class="cls-3" d="M100.15,65.69c.55,0,1.07,0,1-.8-.06-1.46,0-2.92,0-4.38s0-3,0-4.47c0-.9-.6-.72-1.1-.73S99,55.18,99,56.06q.05,4.43,0,8.86C99,65.86,99.61,65.67,100.15,65.69Z" transform="translate(-0.57 -0.54)"/><path class="cls-3" d="M109.18,109.35c.29-.13.47,0,.54.27l0,0,0,0a.75.75,0,0,1,.77.4,1,1,0,0,1,.06.31l0,0h0c.09-.17.21-.06.32,0s0,.09,0,.14l-.3-.14,0,0s0,0,0,0l-.63-.54-.2-.17h0v0l-.54-.28h0s0,0,0,0a2.24,2.24,0,0,0-1.74-.65c.86,1,2.26,1.32,3.21,2.25a22.59,22.59,0,0,1,2.71,3.22c0-.44.08-.62.43-.73a8.11,8.11,0,0,1,1.85-.29c.24,0,.61.11.6-.32s-.25-.51-.6-.52a5.06,5.06,0,0,0-2.45.4c-.23.11-.39.24-.59,0-.45-.62-.92-1.22-1.38-1.83.91-.27,1.75-.52,2.59-.79.28-.09.59-.26.6-.6s-.37-.43-.64-.5q-2-.48-3.92-.92a1.66,1.66,0,0,0-1.06,0c-.19.08-.41.15-.47.37s.2.31.36.42.5.18.48.51l0,0Z" transform="translate(-0.57 -0.54)"/><path class="cls-3" d="M110.63,110.4v0l0,0h0Z" transform="translate(-0.57 -0.54)"/><path class="cls-3" d="M109.16,109.35l0,0,0,0,0,0h0Z" transform="translate(-0.57 -0.54)"/><path class="cls-3" d="M109.14,109.33h0a2.26,2.26,0,0,0-1.73-.65A2.24,2.24,0,0,1,109.14,109.33Z" transform="translate(-0.57 -0.54)"/><path class="cls-3" d="M109.16,109.35h0s0,0,0,0Z" transform="translate(-0.57 -0.54)"/><path class="cls-3" d="M88.39,104.74c-.11-.45-.2-.94-.87-1.1a14.31,14.31,0,0,1-3.47-1.42,16.86,16.86,0,0,1-5.63-5.3,11.27,11.27,0,0,0,3.1,4.39A14.27,14.27,0,0,0,87.88,105C88.1,105,88.52,105.26,88.39,104.74Z" transform="translate(-0.57 -0.54)"/><path class="cls-3" d="M93.62,98.17A4.14,4.14,0,0,0,94,99.34a.92.92,0,0,0,1.27.54c-.91-.46-1-1.27-1.28-2-.18-.49-.12-1.1-.63-1.43s-1-.08-1.54,0C93.07,96.42,93.49,97.13,93.62,98.17Z" transform="translate(-0.57 -0.54)"/><path class="cls-3" d="M98.2,93.74a3.3,3.3,0,0,1,.89-1.86,2.92,2.92,0,0,0-1.82,2.65C97.6,94.2,98.18,94.16,98.2,93.74Z" transform="translate(-0.57 -0.54)"/><path class="cls-4" d="M103.24,110.84c.44.55,1.08.51,1.39,1,.12,0,.16,0,.13-.14h0A2.92,2.92,0,0,0,103.24,110.84Z" transform="translate(-0.57 -0.54)"/><path class="cls-4" d="M104.63,111.81c.12,0,.16,0,.13-.14h0C104.79,111.79,104.75,111.84,104.63,111.81Z" transform="translate(-0.57 -0.54)"/><path class="cls-3" d="M146.88,132a29.63,29.63,0,0,1,6.79-.07,3.15,3.15,0,0,0,2.22-.47c-2.31,0-4.48-.07-6.63-.3a18.57,18.57,0,0,1-6.88-1.69,4.35,4.35,0,0,1-1.51-1.24c-1.18-1.11-1.25-2.55-.05-4.19a3.94,3.94,0,0,0,.49-3.1q-3.93,4-7.86,7.94a.66.66,0,0,0-.25.51c.21.08.35-.21.49-.3,1.2-.83,2.38-1.69,3.72-2.66,0,.33,0,.56,0,.76l.36-.26c0,.34,0,.52,0,.7a5.76,5.76,0,0,0,.71,3,4.87,4.87,0,0,0,2.84,1.35A23.84,23.84,0,0,0,146.88,132Z" transform="translate(-0.57 -0.54)"/><path class="cls-3" d="M140.82,124c-1.2,1.64-1.13,3.08.05,4.19a2.76,2.76,0,0,1,.21-3.46c.94-1.32.76-2.61.73-4l-.24-.13-.26.27A3.94,3.94,0,0,1,140.82,124Z" transform="translate(-0.57 -0.54)"/><path class="cls-3" d="M153.67,131.88a29.63,29.63,0,0,0-6.79.07,23.84,23.84,0,0,1-5.54,0,4.87,4.87,0,0,1-2.84-1.35c.72,1.18,2,1.82,3.89,2a35,35,0,0,0,5.23-.08,28.69,28.69,0,0,1,6.67,0c1.16.19,1.9-.34,3-1h-1.36A3.15,3.15,0,0,1,153.67,131.88Z" transform="translate(-0.57 -0.54)"/><path class="cls-3" d="M137.42,126.37c-1.35,1-2.53,1.83-3.72,2.66-.14.1-.29.38-.49.3a.6.6,0,0,0,.13.33c.34.45.53,0,.72-.13,1.1-.77,2.2-1.57,3.37-2.41C137.42,126.92,137.42,126.69,137.42,126.37Z" transform="translate(-0.57 -0.54)"/><path class="cls-3" d="M159.53,118.68a1.88,1.88,0,0,1-.17.15c-1.2.85-2.39,1.71-3.75,2.69,0-.26,0-.46,0-.65h0c-.4.29-.66.26-.66-.31,0-.27,0-.54,0-.81a3.8,3.8,0,0,0-1.92-3.46,6,6,0,0,0-1.32-.37,19.65,19.65,0,0,0-4.41-.11,39.92,39.92,0,0,1-7.93.18,3.61,3.61,0,0,0-2.36.45,51.34,51.34,0,0,1,8.43.46,13.56,13.56,0,0,1,5.49,1.74,4.36,4.36,0,0,1,1.17,1.09c1.2,1.16,1.2,2.66-.07,4.42a3.43,3.43,0,0,0-.4,2.64l7.61-7.68C159.36,119,159.56,118.88,159.53,118.68Z" transform="translate(-0.57 -0.54)"/><path class="cls-3" d="M159.53,118.68c0,.2-.17.31-.31.45l-7.61,7.68a7.36,7.36,0,0,1,.06.87c2.87-2.69,5.6-5.45,8.33-8.2a.51.51,0,0,0,0-.79C159.82,118.46,159.67,118.56,159.53,118.68Z" transform="translate(-0.57 -0.54)"/><path class="cls-3" d="M150.91,118.67a13.56,13.56,0,0,0-5.49-1.74,51.34,51.34,0,0,0-8.43-.46,6.8,6.8,0,0,0-.8.52c2.62,0,5.11-.06,7.58.2a20.54,20.54,0,0,1,6.74,1.54,5.77,5.77,0,0,1,1.57,1A4.36,4.36,0,0,0,150.91,118.67Z" transform="translate(-0.57 -0.54)"/><path class="cls-3" d="M154.93,119.77c0,.27,0,.54,0,.81,0,.57.26.6.66.31h0c0-.19,0-.35,0-.52a4.16,4.16,0,0,0-2.6-4.05A3.8,3.8,0,0,1,154.93,119.77Z" transform="translate(-0.57 -0.54)"/><path class="cls-3" d="M143.52,122.9c0-.1-.12-.2-.18-.29a3.13,3.13,0,0,0-.19,2.77l.06-.49.52.55a4.88,4.88,0,0,0,3.33,1.94,3.85,3.85,0,0,0,1.26-.61l-.25,0A4.29,4.29,0,0,1,143.52,122.9Z" transform="translate(-0.57 -0.54)"/><path class="cls-3" d="M148.33,126.76a3.85,3.85,0,0,1-1.26.61h.15a1.09,1.09,0,0,1,.83.27,1.6,1.6,0,0,0,1.11-.65A.82.82,0,0,0,148.33,126.76Z" transform="translate(-0.57 -0.54)"/><path class="cls-3" d="M146.65,122.94a1.41,1.41,0,0,0,1.67.72,1.27,1.27,0,0,0,1.19-1.24.47.47,0,0,1,0-.18,3.19,3.19,0,0,0-1.74-1.59l-.11,0C146.49,121.28,146.16,122.06,146.65,122.94Zm2.13-.71c.05.51-.29.7-.75.72a.74.74,0,0,1-.87-.78.71.71,0,0,1,.77-.79A.75.75,0,0,1,148.78,122.24Z" transform="translate(-0.57 -0.54)"/><path class="cls-3" d="M147.81,120.66a3.19,3.19,0,0,1,1.74,1.59.42.42,0,0,1,.16-.2h0A2.91,2.91,0,0,0,147.81,120.66Z" transform="translate(-0.57 -0.54)"/><path class="cls-3" d="M144.08,123.1c-.07-.4-.21-.8-.32-1.19a1.14,1.14,0,0,0-.42.7c.41,0,.39.31.43.55a4.23,4.23,0,0,0,4.25,3.39,3.41,3.41,0,0,1,.65-.06,4.05,4.05,0,0,0,.41-.44c-.42.05-.84.18-1.26.22C146.17,126.42,144.35,124.6,144.08,123.1Z" transform="translate(-0.57 -0.54)"/><path class="cls-3" d="M149.09,126a4.05,4.05,0,0,1-.41.44c.22,0,.42.14.49.51a1.65,1.65,0,0,0,.72-.9A1.83,1.83,0,0,0,149.09,126Z" transform="translate(-0.57 -0.54)"/><path class="cls-3" d="M148,126.55a4.23,4.23,0,0,1-4.25-3.39c0-.24,0-.58-.43-.55.06.1.16.19.18.29a4.29,4.29,0,0,0,4.56,3.88l.25,0a4.12,4.12,0,0,0,.34-.27A3.41,3.41,0,0,0,148,126.55Z" transform="translate(-0.57 -0.54)"/><path class="cls-3" d="M148.68,126.49a4.12,4.12,0,0,1-.34.27.82.82,0,0,1,.84.24C149.09,126.63,148.9,126.51,148.68,126.49Z" transform="translate(-0.57 -0.54)"/><path class="cls-3" d="M146.41,124.83a3,3,0,0,1-1.35-3.23c.06-.26.08-.53.12-.79h0a2.63,2.63,0,0,0-.9.54c.36,0,.2.27.19.46a3.49,3.49,0,0,0,3.22,4,2.61,2.61,0,0,0,1.82-.39,3.4,3.4,0,0,0,.33-.88l-.11.1A2.64,2.64,0,0,1,146.41,124.83Z" transform="translate(-0.57 -0.54)"/><path class="cls-3" d="M149.5,125.42a2.67,2.67,0,0,0,.7-.63c.09-.17.3-.3.19-.55a.81.81,0,0,0-.56.3A3.4,3.4,0,0,1,149.5,125.42Z" transform="translate(-0.57 -0.54)"/><path class="cls-3" d="M145.57,125.14a3.34,3.34,0,0,0,1.17.66A3.93,3.93,0,0,1,145.57,125.14Z" transform="translate(-0.57 -0.54)"/><path class="cls-3" d="M149.25,125.85l.07-.12a2.43,2.43,0,0,1-.42.18Z" transform="translate(-0.57 -0.54)"/><path class="cls-3" d="M147,125.86c.11,0,.21.06.33.08Z" transform="translate(-0.57 -0.54)"/><path class="cls-3" d="M144.28,122.85l0,.06a4.92,4.92,0,0,1,0-1.56c-.27.1-.37.34-.5.56C144.25,122,144.2,122.5,144.28,122.85Z" transform="translate(-0.57 -0.54)"/><path class="cls-3" d="M145.43,125c-.06-.06-.12-.13-.18-.19Z" transform="translate(-0.57 -0.54)"/><path class="cls-3" d="M149.32,125.73l-.07.12c.36-.05.41,0,.65.25a1.37,1.37,0,0,0,.31-1.31A1.91,1.91,0,0,1,149.32,125.73Z" transform="translate(-0.57 -0.54)"/><path class="cls-3" d="M147.52,126l-.23-.06c-.11,0-.22-.06-.33-.08l-.22-.06a3.34,3.34,0,0,1-1.17-.66l-.14-.12-.18-.19a3.67,3.67,0,0,1-1-1.92l0-.06c-.08-.35,0-.81-.52-.95.11.4.25.79.32,1.19.27,1.51,2.09,3.32,3.74,3.17.42,0,.84-.17,1.26-.22l.16-.2-.35.06A3,3,0,0,1,147.52,126Z" transform="translate(-0.57 -0.54)"/><path class="cls-3" d="M149.25,125.85l-.16.2a1.83,1.83,0,0,1,.81.05C149.66,125.85,149.61,125.8,149.25,125.85Z" transform="translate(-0.57 -0.54)"/><path class="cls-3" d="M147.68,125.81a3.49,3.49,0,0,1-3.22-4c0-.2.16-.43-.19-.46a4.92,4.92,0,0,0,0,1.56,4.36,4.36,0,0,0,1,1.92c.06.06.11.13.18.19l.14.12a3.93,3.93,0,0,0,1.17.66l.22.06.33.08a4.7,4.7,0,0,0,1.6,0h0a2.43,2.43,0,0,0,.42-.18c.07-.1.13-.2.18-.31A2.61,2.61,0,0,1,147.68,125.81Z" transform="translate(-0.57 -0.54)"/><path class="cls-3" d="M149.5,125.42c-.06.11-.12.21-.18.31a1.91,1.91,0,0,0,.89-.94A2.67,2.67,0,0,1,149.5,125.42Z" transform="translate(-0.57 -0.54)"/><path class="cls-3" d="M145.57,125.14l-.14-.12Z" transform="translate(-0.57 -0.54)"/><path class="cls-3" d="M148.9,125.91h0a4.7,4.7,0,0,1-1.6,0l.23.06A3,3,0,0,0,148.9,125.91Z" transform="translate(-0.57 -0.54)"/><path class="cls-3" d="M146.74,125.8l.22.06Z" transform="translate(-0.57 -0.54)"/><path class="cls-3" d="M144.3,122.91a3.67,3.67,0,0,0,1,1.92A4.36,4.36,0,0,1,144.3,122.91Z" transform="translate(-0.57 -0.54)"/><path class="cls-3" d="M146.95,123.86a1.81,1.81,0,0,1-.77-2.52c.21-.47.21-.47.08-.71-.13.21-.34.17-.53.17h0V121a7.77,7.77,0,0,0-.18,2.17l1.08,1.27a2.53,2.53,0,0,0,3.29-.65,4.28,4.28,0,0,0-.1-.79,2.43,2.43,0,0,1-.41.57A1.68,1.68,0,0,1,146.95,123.86Z" transform="translate(-0.57 -0.54)"/><path class="cls-3" d="M149.9,123.77a2.8,2.8,0,0,0,.34-.62.67.67,0,0,0-.2-.54,3.31,3.31,0,0,0-.24.37A4.28,4.28,0,0,1,149.9,123.77Z" transform="translate(-0.57 -0.54)"/><path class="cls-3" d="M146.42,127.48a4.78,4.78,0,0,1-2.53-1.56c-.19-.22-.3-.62-.73-.54a3.75,3.75,0,0,0,.58,1.12,3.64,3.64,0,0,0,2.45,1Z" transform="translate(-0.57 -0.54)"/><path class="cls-3" d="M146.19,127.5a3.64,3.64,0,0,1-2.45-1,3.44,3.44,0,0,0,4.32,1.15,6.21,6.21,0,0,1-1.63-.17Z" transform="translate(-0.57 -0.54)"/><path class="cls-3" d="M143.74,125.43l-.52-.55-.06.49c.43-.08.54.33.73.54a4.78,4.78,0,0,0,2.53,1.56,3.24,3.24,0,0,0,.66-.11A4.88,4.88,0,0,1,143.74,125.43Z" transform="translate(-0.57 -0.54)"/><path class="cls-3" d="M147.08,127.37a3.24,3.24,0,0,1-.66.11,6.21,6.21,0,0,0,1.63.17,1.09,1.09,0,0,0-.83-.27Z" transform="translate(-0.57 -0.54)"/><path class="cls-3" d="M145.29,121.66a2.68,2.68,0,0,0,1.15,2.9l.19.1c-.13-.13-.25-.26-.37-.4a1.39,1.39,0,0,1-.62-.79c-.06-.09-.13-.17-.19-.26a.92.92,0,0,1-.09-.26,3.37,3.37,0,0,1,0-.91h0v-.1a1.69,1.69,0,0,1,0-.25,5.56,5.56,0,0,1,.15-.66.66.66,0,0,1,.14-.23l-.39,0h0a.05.05,0,0,0-.09,0h0C145.41,121.06,145.33,121.35,145.29,121.66Z" transform="translate(-0.57 -0.54)"/><path class="cls-3" d="M147.74,125a2.82,2.82,0,0,1-1.11-.29,2.47,2.47,0,0,0,3-.25,3,3,0,0,1,.27-.19c0-.06,0-.11,0-.17A2.31,2.31,0,0,1,147.74,125Z" transform="translate(-0.57 -0.54)"/><path class="cls-3" d="M149.87,124.24a.44.44,0,0,1,.53,0,1.53,1.53,0,0,0-.16-1.09,1.83,1.83,0,0,1-.35.92C149.88,124.13,149.87,124.18,149.87,124.24Z" transform="translate(-0.57 -0.54)"/><path class="cls-3" d="M146.64,124.67h0l-.19-.1a2.68,2.68,0,0,1-1.15-2.9c0-.3.12-.59-.12-.85,0,.26-.06.53-.12.79a3,3,0,0,0,1.35,3.23,2.64,2.64,0,0,0,3.32-.19l.11-.1c0-.1,0-.2,0-.3a3,3,0,0,0-.27.19A2.47,2.47,0,0,1,146.64,124.67Z" transform="translate(-0.57 -0.54)"/><path class="cls-3" d="M149.87,124.24c0,.1,0,.21,0,.3a.81.81,0,0,1,.56-.3A.44.44,0,0,0,149.87,124.24Z" transform="translate(-0.57 -0.54)"/><path class="cls-3" d="M145.31,122s0-.07,0-.1Z" transform="translate(-0.57 -0.54)"/><path class="cls-3" d="M145.35,123a.92.92,0,0,0,.09.26c.06.09.13.17.19.26a2.68,2.68,0,0,1-.1-.33,3.2,3.2,0,0,1-.22-1.1A3.37,3.37,0,0,0,145.35,123Z" transform="translate(-0.57 -0.54)"/><path class="cls-3" d="M145.65,120.8a.66.66,0,0,0-.14.23,5.56,5.56,0,0,0-.15.66,1.68,1.68,0,0,1,.35-.7v-.18h-.07Z" transform="translate(-0.57 -0.54)"/><path class="cls-3" d="M146.62,124.42a1.39,1.39,0,0,1-.36-.15c.12.13.24.27.37.4h0a2.82,2.82,0,0,0,1.11.29,2.31,2.31,0,0,0,2.14-.89c0-.08,0-.15,0-.23s0,0,0-.07A2.53,2.53,0,0,1,146.62,124.42Z" transform="translate(-0.57 -0.54)"/><path class="cls-3" d="M149.91,123.84c0,.08,0,.15,0,.23a1.83,1.83,0,0,0,.35-.92,2.8,2.8,0,0,1-.34.62S149.91,123.81,149.91,123.84Z" transform="translate(-0.57 -0.54)"/><path class="cls-3" d="M146.64,124.67h0Z" transform="translate(-0.57 -0.54)"/><path class="cls-3" d="M149.19,123.49a1.77,1.77,0,0,1-.38.25,1.74,1.74,0,0,1-1.87-.13,2.19,2.19,0,0,1-.36-.34l0,0A1.71,1.71,0,0,0,149.19,123.49Z" transform="translate(-0.57 -0.54)"/><path class="cls-3" d="M149.74,122.77l0-.14a1.48,1.48,0,0,1-.1.31A1,1,0,0,1,149.74,122.77Z" transform="translate(-0.57 -0.54)"/><path class="cls-3" d="M146.28,120.55c.79.08.26.53.16.74a1.7,1.7,0,0,0,.05,1.82,1.48,1.48,0,0,1-.22-1.25,1.44,1.44,0,0,1,1.43-1.24,2.45,2.45,0,0,0-1.87,0l.29,0Z" transform="translate(-0.57 -0.54)"/><path class="cls-3" d="M149.74,122.77a.6.6,0,0,1,.3-.16.84.84,0,0,0-.33-.56,2,2,0,0,1,0,.58Z" transform="translate(-0.57 -0.54)"/><path class="cls-3" d="M148.32,123.67a1.41,1.41,0,0,1-1.67-.72c-.49-.88-.16-1.66,1-2.32a1.44,1.44,0,0,0-1.43,1.24,1.48,1.48,0,0,0,.22,1.25,1.77,1.77,0,0,0,.1.15,2.19,2.19,0,0,0,.36.34,1.74,1.74,0,0,0,1.87.13,1.77,1.77,0,0,0,.38-.25l0,0a2.43,2.43,0,0,0,.38-.53,1.48,1.48,0,0,0,.1-.31,3.35,3.35,0,0,0-.14-.38.47.47,0,0,0,0,.18A1.27,1.27,0,0,1,148.32,123.67Z" transform="translate(-0.57 -0.54)"/><path class="cls-3" d="M149.56,122.25a3.35,3.35,0,0,1,.14.38,2,2,0,0,0,0-.58h0A.42.42,0,0,0,149.56,122.25Z" transform="translate(-0.57 -0.54)"/><path class="cls-3" d="M149.19,123.49a1.71,1.71,0,0,1-2.58-.19l0,0a1.93,1.93,0,0,1-.15-2c.1-.21.63-.66-.16-.74l-.16.06h.13c.13.24.13.24-.08.71a1.81,1.81,0,0,0,.77,2.52,1.68,1.68,0,0,0,2.45-.31,2.43,2.43,0,0,0,.41-.57c0-.07,0-.14-.07-.21a1,1,0,0,0-.14.17A1.37,1.37,0,0,1,149.19,123.49Z" transform="translate(-0.57 -0.54)"/><path class="cls-3" d="M149.74,122.77c0,.07,0,.14.07.21a3.31,3.31,0,0,1,.24-.37A.6.6,0,0,0,149.74,122.77Z" transform="translate(-0.57 -0.54)"/><path class="cls-3" d="M146.58,123.26a1.77,1.77,0,0,1-.1-.15A1.7,1.7,0,0,0,146.58,123.26Z" transform="translate(-0.57 -0.54)"/><path class="cls-3" d="M149.6,122.94a2.43,2.43,0,0,1-.38.53l0,0A1.37,1.37,0,0,0,149.6,122.94Z" transform="translate(-0.57 -0.54)"/><path class="cls-3" d="M139.54,137c-.93,0-.26.73-.48,1a2,2,0,0,0,0,.34c.07.31-.21.84.35.85s.27-.53.34-.83-.1-.79.35-.8.32.52.37.84a2,2,0,0,1,0,.36c0,.27.06.48.4.45s.31-.23.31-.45,0-.42,0-.63C141.15,137.07,141.07,137,139.54,137Z" transform="translate(-0.57 -0.54)"/><path class="cls-3" d="M142.43,138.56a.69.69,0,0,1-.14-.48c0-.31.08-.64.46-.63s.42.35.44.66v0a1.36,1.36,0,0,0,.21-.61.48.48,0,0,0-.61-.61,1.11,1.11,0,0,0-1.19,1.19,1.42,1.42,0,0,0,.05.25,1.08,1.08,0,0,0,.66.22Z" transform="translate(-0.57 -0.54)"/><path class="cls-3" d="M143.26,137a1.47,1.47,0,0,1,.12.5,1.36,1.36,0,0,1-.21.61c0,.29-.11.6-.5.55a.38.38,0,0,1-.25-.13l-.14,0a1.08,1.08,0,0,1-.66-.22,1.14,1.14,0,0,0,2.24-.27A1,1,0,0,0,143.26,137Z" transform="translate(-0.57 -0.54)"/><path class="cls-3" d="M147.19,138.53a.27.27,0,0,1,0-.13.31.31,0,0,1,.34-.22c.15,0,.17.13.18.25l0,0c.05,0,.09,0,.1-.07a2.09,2.09,0,0,0,0-1.42l-.19,0a2.79,2.79,0,0,0-.47,0,.49.49,0,0,1,.08.1c-.13.23-.32.23-.49.28h0c0,.31.5,0,.72.14l.22.1c-.11.1-.14.17-.19.18-.46.07-.9.18-1,.73a.57.57,0,0,0,0,.07h.72Z" transform="translate(-0.57 -0.54)"/><path class="cls-3" d="M147.27,137a.49.49,0,0,0-.08-.1c-.23,0-.43.08-.44.31a.31.31,0,0,0,0,.07h0C146.95,137.24,147.14,137.24,147.27,137Z" transform="translate(-0.57 -0.54)"/><path class="cls-3" d="M147.84,137a2.09,2.09,0,0,1,0,1.42s0,0-.1.07-.13.24-.29.23-.21-.06-.23-.16h-.72a.62.62,0,0,0,.27.56c.49.38,1.13.13,1.52,0s.15-.91.14-1.4A.72.72,0,0,0,147.84,137Z" transform="translate(-0.57 -0.54)"/><path class="cls-3" d="M151.6,138.53s0,0,0,0c0-.21.17-.27.27-.32s.35.07.33.24a.34.34,0,0,1,0,.09.27.27,0,0,0,.11-.15,1.86,1.86,0,0,0-.05-1.39l-.07,0a2.13,2.13,0,0,0-.61,0,.31.31,0,0,1,0,.1c0,.23-.17.26-.36.29,0,.33.54,0,.74.17l.13.15a3.74,3.74,0,0,0-.8.31.72.72,0,0,0-.36.64.26.26,0,0,0,.17,0A1,1,0,0,1,151.6,138.53Z" transform="translate(-0.57 -0.54)"/><path class="cls-3" d="M152.2,137a1.86,1.86,0,0,1,.05,1.39.27.27,0,0,1-.11.15.32.32,0,0,1-.25.2.23.23,0,0,1-.29-.17,1,1,0,0,0-.53,0,.26.26,0,0,1-.17,0,.72.72,0,0,0,.25.49c.46.42,1.09.16,1.51,0s.19-.83.19-1.28A.82.82,0,0,0,152.2,137Z" transform="translate(-0.57 -0.54)"/><path class="cls-3" d="M151.55,137a.31.31,0,0,0,0-.1c-.17,0-.31.1-.33.27a.4.4,0,0,0,0,.11C151.39,137.27,151.58,137.24,151.55,137Z" transform="translate(-0.57 -0.54)"/><path class="cls-3" d="M154.12,138.54A.8.8,0,0,1,154,138c0-.29.12-.58.47-.53s.36.31.4.53a1.2,1.2,0,0,0,.09-.47.42.42,0,0,0-.52-.59,1.05,1.05,0,0,0-1.15,1.1,1.29,1.29,0,0,0,.06.4,1.16,1.16,0,0,0,.63.15Z" transform="translate(-0.57 -0.54)"/><path class="cls-3" d="M154.84,137a1.24,1.24,0,0,1,.12.52,1.2,1.2,0,0,1-.09.47s0,.08,0,.12c-.1.31-.14.64-.51.58a.4.4,0,0,1-.27-.14l-.14,0a1.16,1.16,0,0,1-.63-.15,1,1,0,0,0,1.09.8,1.16,1.16,0,0,0,.4-2.23Z" transform="translate(-0.57 -0.54)"/><path class="cls-3" d="M142,134.2a.9.9,0,0,0,0,.53c0-.12,0-.24,0-.35A.66.66,0,0,0,142,134.2Z" transform="translate(-0.57 -0.54)"/><path class="cls-3" d="M141.47,135.54a3.83,3.83,0,0,0,.1-1.47c-.37,0-.77-.22-1.09.17a1,1,0,0,0-.21.92.87.87,0,0,0,.58,0,.72.72,0,0,1,0-.34c0-.22.1-.44.36-.41s.28.26.3.47,0,.46-.32.46a.37.37,0,0,1-.17,0,.44.44,0,0,1-.46.3,1.57,1.57,0,0,0,.65.28A.56.56,0,0,0,141.47,135.54Z" transform="translate(-0.57 -0.54)"/><path class="cls-3" d="M141,135.33a.29.29,0,0,1-.13-.14.87.87,0,0,1-.58,0s0,.06,0,.09a.7.7,0,0,0,.24.38A.44.44,0,0,0,141,135.33Z" transform="translate(-0.57 -0.54)"/><path class="cls-3" d="M142,134.2c0-.1-.08-.18-.18-.15a.75.75,0,0,1-.25,0,3.83,3.83,0,0,1-.1,1.47.56.56,0,0,1-.3.36l.24.06a.74.74,0,0,1-.22.14,1.81,1.81,0,0,1-.44,0c-.3,0-.44.13-.2.34a1,1,0,0,0,.95,0,.66.66,0,0,0,.47-.6c0-.39,0-.78,0-1.17A.9.9,0,0,1,142,134.2Z" transform="translate(-0.57 -0.54)"/><path class="cls-3" d="M138.78,134.7c-.16-.26.05-.45.17-.69.06.27.33.47.08.73a.25.25,0,0,1-.23,0,1.58,1.58,0,0,1,.23.35.32.32,0,0,0,.37.17c.17,0,.17-.13.14-.31-.15-.5-.28-1.06-.49-1.59h-.15a.42.42,0,0,0-.44.36c-.13.48-.29.95-.43,1.42v0C138.28,134.58,138.53,134.45,138.78,134.7Z" transform="translate(-0.57 -0.54)"/><path class="cls-3" d="M139.39,135.56c.06.28.28.31.48.23s.08-.31,0-.45c-.15-.54-.35-1.08-.5-1.62a.42.42,0,0,0-.36-.36c.21.52.33,1.09.49,1.59,0,.18,0,.3-.14.31a.32.32,0,0,1-.37-.17,1.58,1.58,0,0,0-.23-.35h0v0c-.25-.25-.49-.12-.73.41v0l-.06.2c0,.15-.18.37.05.46a.32.32,0,0,0,.46-.27c.05-.26.23-.32.46-.31A.39.39,0,0,1,139.39,135.56Z" transform="translate(-0.57 -0.54)"/><path class="cls-3" d="M149.75,139.11c-.29-.3-.09-.42.08-.55a.53.53,0,0,1-.24-.39.62.62,0,0,1-.54-.6.81.81,0,0,1,0-.1l-.06.08a1.12,1.12,0,0,0-.12.82,1.85,1.85,0,0,1,.53.71,1.17,1.17,0,0,1,.28.33C149.79,139.33,149.85,139.21,149.75,139.11Z" transform="translate(-0.57 -0.54)"/><path class="cls-3" d="M149.59,138.17a.62.62,0,0,1,0-.06c0-.44.26-.64.69-.65.21,0,.35-.09.3-.33s-.21-.2-.36-.2a1.22,1.22,0,0,0-1.15.55.81.81,0,0,0,0,.1A.62.62,0,0,0,149.59,138.17Z" transform="translate(-0.57 -0.54)"/><path class="cls-3" d="M150.25,138.68a.82.82,0,0,1-.42-.12c-.17.13-.37.25-.08.55.1.1,0,.22-.06.3a.59.59,0,0,1,.08.33c-.18.17-.4.35,0,.41s.58-.07.54-.42-.26-.4.14-.6C150.74,139,150.59,138.69,150.25,138.68Z" transform="translate(-0.57 -0.54)"/><path class="cls-3" d="M148.88,138.36a1.09,1.09,0,0,0,.36.57l.17.15A1.85,1.85,0,0,0,148.88,138.36Z" transform="translate(-0.57 -0.54)"/><path class="cls-3" d="M145.35,137.82a.81.81,0,0,1-.19.32l-.24-.67a.75.75,0,0,1-.11.17c-.34-.13-.34-.43-.39-.69l-.14,0c-.31.11-.12.34-.06.52s.23.64.34,1a.6.6,0,0,0,.22,0C145.12,138.45,145.26,138.17,145.35,137.82Z" transform="translate(-0.57 -0.54)"/><path class="cls-3" d="M146,137c-.55-.2-.51.36-.67.8s-.23.63-.57.65a.6.6,0,0,1-.22,0l.11.31c.08.22.17.44.48.45s.45-.23.55-.49a1.84,1.84,0,0,0,.15-.42C145.89,137.85,146.54,137.21,146,137Z" transform="translate(-0.57 -0.54)"/><path class="cls-3" d="M144.81,137.63a.75.75,0,0,0,.11-.17l-.08-.22a.39.39,0,0,0-.43-.3C144.47,137.21,144.47,137.5,144.81,137.63Z" transform="translate(-0.57 -0.54)"/><path class="cls-3" d="M152.34,135.24a.54.54,0,0,1-.09-.31c0-.25.11-.48.4-.48s.32.21.32.43a.84.84,0,0,1,0,.29c.22-.14-.05-.49,0-.68s0-.29,0-.44,0-.44,0-.66a.48.48,0,0,0,0,.24c.05.41-.18.36-.48.38-.65,0-.84.52-.78,1.08a1.13,1.13,0,0,0,0,.12A2.33,2.33,0,0,0,152.34,135.24Z" transform="translate(-0.57 -0.54)"/><path class="cls-3" d="M153.53,134.56q0-.3,0-.61a.84.84,0,0,0,0,.93C153.52,134.78,153.53,134.67,153.53,134.56Z" transform="translate(-0.57 -0.54)"/><path class="cls-3" d="M153.52,134c0-.1,0-.19,0-.29s0-.38-.22-.41-.27,0-.31.14,0,.44,0,.66,0,.32,0,.44.18.54,0,.68a.36.36,0,0,1-.28.25.44.44,0,0,1-.32-.18,2.33,2.33,0,0,1-.59,0,.74.74,0,0,0,.9.62c.54,0,1.08,0,.89-.83a.65.65,0,0,1,0-.13A.84.84,0,0,1,153.52,134Z" transform="translate(-0.57 -0.54)"/><path class="cls-3" d="M138.2,136.15c-.26,0-.4.1-.4.36s0,.72,0,1.08h0c0,.42,0,.84,0,1.26a.33.33,0,0,0,.36.33.29.29,0,0,0,.33-.32c0-.78,0-1.56,0-2.35C138.5,136.32,138.44,136.17,138.2,136.15Z" transform="translate(-0.57 -0.54)"/><path class="cls-3" d="M144,135.05h.09a1,1,0,0,0-.09-.55s0,0,0,.07S144,134.9,144,135.05Z" transform="translate(-0.57 -0.54)"/><path class="cls-3" d="M144.06,135l0,.07A.06.06,0,0,0,144.06,135Z" transform="translate(-0.57 -0.54)"/><path class="cls-3" d="M142.89,134.06a.92.92,0,0,0-.55.95,1.25,1.25,0,0,0,0,.15,1,1,0,0,0,.69.12.73.73,0,0,1-.14-.11l.54-.06c-.26-.35-.81.05-.9-.51a3.37,3.37,0,0,0,.42,0h0a.23.23,0,0,1,.19-.17c.13,0,.2.06.27.16s.13-.1.14-.26a.87.87,0,0,0,0-.24A.8.8,0,0,0,142.89,134.06Z" transform="translate(-0.57 -0.54)"/><path class="cls-3" d="M143.45,134.54h0c0,.18-.13.17-.22.16s-.26-.05-.28-.11,0,0,0-.06h0a3.37,3.37,0,0,1-.42,0c.09.56.64.16.9.51l.51-.06c0-.15.06-.35,0-.49s0,0,0-.07a.89.89,0,0,0-.11-.22.8.8,0,0,0-.3-.23.87.87,0,0,1,0,.24C143.59,134.44,143.53,134.51,143.45,134.54Z" transform="translate(-0.57 -0.54)"/><path class="cls-3" d="M142.37,135.16a.72.72,0,0,0,.66.66c.32,0,.81.28.87-.37-.25-.05-.54,0-.85-.17A1,1,0,0,1,142.37,135.16Z" transform="translate(-0.57 -0.54)"/><path class="cls-3" d="M149.18,134.28c.24.31.57-.06.83.28-.42.18-.93.17-1,.72,0,0,0,0,0,0a1.49,1.49,0,0,0,.57,0s0,0,0,0a.42.42,0,0,1,.25-.21c.12,0,.22,0,.22.18.14-.1,0-.43,0-.58s0-.26,0-.38a1,1,0,0,0,0-.22A.84.84,0,0,0,149.18,134.28Z" transform="translate(-0.57 -0.54)"/><path class="cls-3" d="M150.12,134.61c-.07.16.09.48,0,.58h0a.24.24,0,0,1-.28.26.17.17,0,0,1-.18-.19,1.49,1.49,0,0,1-.57,0,.45.45,0,0,0,.3.48c.4.11,1,.16,1.17-.07a1.27,1.27,0,0,0-.11-1.5.85.85,0,0,0-.32-.21,1,1,0,0,1,0,.22C150.12,134.35,150.12,134.47,150.12,134.61Z" transform="translate(-0.57 -0.54)"/><path class="cls-3" d="M154.55,135.27a.61.61,0,0,1-.07-.11,1,1,0,0,1,.45-.07c-.33-.28-.77,0-.94-.42a.58.58,0,0,1,.49-.1s0,0,0,0,.15-.14.19-.18a.36.36,0,0,1,.25.09.44.44,0,0,0,.07-.15.57.57,0,0,0,0-.28l-.12,0a.85.85,0,0,0-.95.63,1.08,1.08,0,0,0,0,.58A1.09,1.09,0,0,0,154.55,135.27Z" transform="translate(-0.57 -0.54)"/><path class="cls-3" d="M154.55,135.27a1.09,1.09,0,0,1-.66-.05.67.67,0,0,0,.4.49c.37.16.9.48,1.16-.23C155.17,135.37,154.79,135.6,154.55,135.27Z" transform="translate(-0.57 -0.54)"/><path class="cls-3" d="M155,134.31a.44.44,0,0,1-.07.15.16.16,0,0,1,.06.12c0,.22-.2.16-.32.15s-.25,0-.19-.16a.58.58,0,0,0-.49.1c.17.44.6.15.94.42.39,0,.79,0,.54-.73A1.23,1.23,0,0,0,155,134,.57.57,0,0,1,155,134.31Z" transform="translate(-0.57 -0.54)"/><path class="cls-3" d="M146.44,135.19a.78.78,0,0,0,.69,0c-.09-.09-.08-.18,0-.29-.27-.08-.54-.11-.59-.44A1,1,0,0,0,146.44,135.19Z" transform="translate(-0.57 -0.54)"/><path class="cls-3" d="M147.74,134.33a.25.25,0,0,0,.06-.16.16.16,0,0,0-.08-.11A1.92,1.92,0,0,1,147.74,134.33Z" transform="translate(-0.57 -0.54)"/><path class="cls-3" d="M146.44,135.19a.84.84,0,0,0,.2.37c.34.37.75.36,1.38.1a3.49,3.49,0,0,1-.88-.43A.78.78,0,0,1,146.44,135.19Z" transform="translate(-0.57 -0.54)"/><path class="cls-3" d="M147.12,134.94a3.8,3.8,0,0,1,.57-.55l0-.06a1.92,1.92,0,0,0,0-.27.38.38,0,0,0-.19-.06,1,1,0,0,0-1,.48v0C146.58,134.83,146.85,134.86,147.12,134.94Z" transform="translate(-0.57 -0.54)"/><path class="cls-3" d="M148.1,135.23a.17.17,0,0,0,.1-.15c0-.21,0-.41,0-.73a.24.24,0,0,1,0-.2.32.32,0,0,0,0,.19C148.15,134.63,148.09,134.93,148.1,135.23Z" transform="translate(-0.57 -0.54)"/><path class="cls-3" d="M148.7,135.06l0,.05c0-.06,0-.12,0-.18s0-.35,0-.52A.49.49,0,0,0,148.7,135.06Z" transform="translate(-0.57 -0.54)"/><path class="cls-3" d="M148.21,134.34c0,.32,0,.53,0,.73a.17.17,0,0,1-.1.15.92.92,0,0,0,.18.56c.09.12.3.07.39-.07a.75.75,0,0,0,.07-.34c0-.09,0-.18,0-.27l0-.05a.49.49,0,0,1,0-.65s0,0,0,0c0-.19-.05-.36-.28-.38a.28.28,0,0,0-.29.14A.24.24,0,0,0,148.21,134.34Z" transform="translate(-0.57 -0.54)"/><path class="cls-3" d="M145.51,134.6c0-.24-.28-.22-.43-.33,0,.09,0,.19,0,.28S145.3,134.51,145.51,134.6Z" transform="translate(-0.57 -0.54)"/><path class="cls-3" d="M144.48,134.58c0-.18,0-.42.1-.54-.13,0-.22.11-.21.42a4.2,4.2,0,0,0,0,.62.56.56,0,0,1,0,.14C144.6,135.12,144.45,134.78,144.48,134.58Z" transform="translate(-0.57 -0.54)"/><path class="cls-3" d="M145,134.18a.92.92,0,0,0-.4-.14c-.11.12-.07.37-.1.54s.12.54-.1.63c0,.25-.13.56.25.58s.28-.42.31-.67,0-.5.16-.58c0-.09,0-.18,0-.28A.23.23,0,0,1,145,134.18Z" transform="translate(-0.57 -0.54)"/><path class="cls-3" d="M146.09,134.84a1.49,1.49,0,0,0-.11-.44A.77.77,0,0,0,146.09,134.84Z" transform="translate(-0.57 -0.54)"/><path class="cls-3" d="M145.05,134.15a.47.47,0,0,1,0,.07c.21,0,.56-.08.43.38v.61c.22-.11,0-.45.11-.63a4.14,4.14,0,0,0,0-.57A.67.67,0,0,0,145.05,134.15Z" transform="translate(-0.57 -0.54)"/><path class="cls-3" d="M145.51,135.21c0,.1,0,.2,0,.29s0,.31.23.31.22,0,.24-.07a2.28,2.28,0,0,0,.1-.91.77.77,0,0,1-.11-.44l0,0a.57.57,0,0,0-.38-.35,4.14,4.14,0,0,1,0,.57C145.53,134.76,145.73,135.1,145.51,135.21Z" transform="translate(-0.57 -0.54)"/><path class="cls-3" d="M145.07,134.22a.47.47,0,0,0,0-.07l-.06,0Z" transform="translate(-0.57 -0.54)"/><path class="cls-3" d="M145.51,134.6c.12-.46-.23-.33-.43-.38,0,0,0,0,0,.05S145.47,134.36,145.51,134.6Z" transform="translate(-0.57 -0.54)"/><path class="cls-3" d="M145.08,134.27s0,0,0-.05l-.08,0A.23.23,0,0,0,145.08,134.27Z" transform="translate(-0.57 -0.54)"/><path class="cls-5" d="M155.32,135.21c-.21.16.18.13.13.27.17-.37.43-.74,0-1.12C155.59,134.67,155.66,135,155.32,135.21Z" transform="translate(-0.57 -0.54)"/><path class="cls-5" d="M154.55,135.27l.47-.11-.08-.07a1,1,0,0,0-.45.07A.61.61,0,0,0,154.55,135.27Z" transform="translate(-0.57 -0.54)"/><path class="cls-5" d="M155.32,135.21c.34-.25.27-.54.15-.86.24.73-.15.73-.54.73l.08.07-.47.11c.24.33.63.09.9.21C155.5,135.34,155.11,135.37,155.32,135.21Z" transform="translate(-0.57 -0.54)"/><path class="cls-3" d="M151.78,136.51a.82.82,0,0,0-.46-.06C151.39,136.8,151.6,136.56,151.78,136.51Z" transform="translate(-0.57 -0.54)"/><path class="cls-3" d="M151.78,136.51h.09l.35-.32-.44-.1c-.3-.06-.53.1-.47.37h0A.82.82,0,0,1,151.78,136.51Z" transform="translate(-0.57 -0.54)"/><path class="cls-6" d="M144,135.14l0,0,0-.06Z" transform="translate(-0.57 -0.54)"/><path class="cls-6" d="M143.9,135.45l.11-.29,0,0C143.86,135.2,143.6,135.22,143.9,135.45Z" transform="translate(-0.57 -0.54)"/><path class="cls-6" d="M143.45,135.11l-.54.06a.73.73,0,0,0,.14.11l.47-.07A.43.43,0,0,0,143.45,135.11Z" transform="translate(-0.57 -0.54)"/><path class="cls-6" d="M144,135.11l0-.07H144a.23.23,0,0,0,0,.08Z" transform="translate(-0.57 -0.54)"/><path class="cls-6" d="M144,135.14a.23.23,0,0,1,0-.08l-.51.06a.43.43,0,0,1,.06.1l-.47.07c.3.22.59.12.85.17C143.6,135.22,143.86,135.2,144,135.14Z" transform="translate(-0.57 -0.54)"/><path class="cls-3" d="M143.06,133.53l-.18,0a1.13,1.13,0,0,0-.09.35c.19-.1.37-.14.51-.21A.73.73,0,0,0,143.06,133.53Z" transform="translate(-0.57 -0.54)"/><path class="cls-3" d="M143.52,133.46c0-.11-.12-.2-.23-.2a.38.38,0,0,0-.4.25l.18,0a.73.73,0,0,1,.25.12A.39.39,0,0,0,143.52,133.46Z" transform="translate(-0.57 -0.54)"/><path class="cls-3" d="M148.72,133.47c-.07-.06-.14-.16-.24-.19a.23.23,0,0,0-.31.23c0,.16.15.14.26.14S148.67,133.67,148.72,133.47Z" transform="translate(-0.57 -0.54)"/><path class="cls-3" d="M151.87,136.5c.28.11.55.14.62-.22,0-.16-.1-.27-.27-.1C152.32,136.51,152,136.38,151.87,136.5Z" transform="translate(-0.57 -0.54)"/><path class="cls-3" d="M152.22,136.17l-.35.32C152,136.38,152.32,136.51,152.22,136.17Z" transform="translate(-0.57 -0.54)"/><path class="cls-3" d="M145.68,120.78l.27-.11a.3.3,0,0,1-.12-.09.73.73,0,0,0-.57.19A.48.48,0,0,1,145.68,120.78Z" transform="translate(-0.57 -0.54)"/><path class="cls-3" d="M145.95,120.68l-.27.11,0,0c.19,0,.41,0,.53-.17h0A.32.32,0,0,1,145.95,120.68Z" transform="translate(-0.57 -0.54)"/><path class="cls-3" d="M145.65,120.8h0a.48.48,0,0,0-.42,0h0Z" transform="translate(-0.57 -0.54)"/><path class="cls-3" d="M145.65,120.8h.06l0,0Z" transform="translate(-0.57 -0.54)"/><path class="cls-3" d="M146.11,120.62l-.29,0a.3.3,0,0,0,.12.09Z" transform="translate(-0.57 -0.54)"/><path class="cls-3" d="M146.25,120.63h-.13l-.17.06A.32.32,0,0,0,146.25,120.63Z" transform="translate(-0.57 -0.54)"/><path class="cls-3" d="M147.16,122.18a.74.74,0,0,0,.87.78c.47,0,.81-.21.75-.72a.75.75,0,0,0-.85-.84A.71.71,0,0,0,147.16,122.18Z" transform="translate(-0.57 -0.54)"/><path class="cls-3" d="M145.53,123.15a7.77,7.77,0,0,1,.18-2.17A3.07,3.07,0,0,0,145.53,123.15Z" transform="translate(-0.57 -0.54)"/><path class="cls-3" d="M145.31,122h0Z" transform="translate(-0.57 -0.54)"/><path class="cls-3" d="M145.32,121.93c0-.08,0-.16,0-.25A1.69,1.69,0,0,0,145.32,121.93Z" transform="translate(-0.57 -0.54)"/><path class="cls-3" d="M145.32,121.93s0,.07,0,.1h0a3.2,3.2,0,0,0,.22,1.1,3.07,3.07,0,0,1,.18-2.17,1.68,1.68,0,0,0-.35.7C145.35,121.77,145.33,121.85,145.32,121.93Z" transform="translate(-0.57 -0.54)"/><path class="cls-3" d="M146.62,124.42l-1.08-1.27A3,3,0,0,0,146.62,124.42Z" transform="translate(-0.57 -0.54)"/><path class="cls-3" d="M146.25,124.27a7.06,7.06,0,0,1-.62-.79A1.39,1.39,0,0,0,146.25,124.27Z" transform="translate(-0.57 -0.54)"/><path class="cls-3" d="M146.25,124.27a1.39,1.39,0,0,0,.36.15,3,3,0,0,1-1.08-1.27,2.68,2.68,0,0,0,.1.33A7.06,7.06,0,0,0,146.25,124.27Z" transform="translate(-0.57 -0.54)"/><path class="cls-7" d="M142.74,137.45c-.38,0-.45.32-.46.63a.69.69,0,0,0,.14.48.92.92,0,0,0,.74-.43v0C143.16,137.8,143.12,137.46,142.74,137.45Z" transform="translate(-0.57 -0.54)"/><path class="cls-7" d="M142.43,138.56a.38.38,0,0,0,.25.13c.39,0,.46-.26.5-.55A.92.92,0,0,1,142.43,138.56Z" transform="translate(-0.57 -0.54)"/><path class="cls-8" d="M147.55,138.19a.31.31,0,0,0-.34.22.27.27,0,0,0,0,.13,2,2,0,0,0,.52-.06l0,0C147.72,138.31,147.7,138.19,147.55,138.19Z" transform="translate(-0.57 -0.54)"/><path class="cls-8" d="M147.42,138.69c.16,0,.24-.09.29-.23a2,2,0,0,1-.52.06C147.21,138.63,147.3,138.68,147.42,138.69Z" transform="translate(-0.57 -0.54)"/><path class="cls-9" d="M151.85,138.17c-.1,0-.28.11-.27.32,0,0,0,0,0,0a.8.8,0,0,0,.53,0,.34.34,0,0,0,0-.09C152.21,138.24,152.1,138.15,151.85,138.17Z" transform="translate(-0.57 -0.54)"/><path class="cls-9" d="M151.6,138.53a.23.23,0,0,0,.29.17.32.32,0,0,0,.25-.2A.8.8,0,0,1,151.6,138.53Z" transform="translate(-0.57 -0.54)"/><path class="cls-10" d="M154.47,137.45c-.35,0-.45.24-.47.53a.8.8,0,0,0,.12.56.92.92,0,0,0,.75-.56C154.83,137.76,154.8,137.49,154.47,137.45Z" transform="translate(-0.57 -0.54)"/><path class="cls-10" d="M154.12,138.54a.4.4,0,0,0,.27.14c.36.05.41-.27.51-.58,0,0,0-.08,0-.12A.92.92,0,0,1,154.12,138.54Z" transform="translate(-0.57 -0.54)"/><path class="cls-11" d="M141,135.33a.37.37,0,0,0,.17,0c.28,0,.29-.25.32-.46s0-.45-.3-.47-.35.19-.36.41a.72.72,0,0,0,0,.34l.2,0A1,1,0,0,1,141,135.33Z" transform="translate(-0.57 -0.54)"/><path class="cls-11" d="M141,135.33a1,1,0,0,0,.07-.19l-.2,0A.29.29,0,0,0,141,135.33Z" transform="translate(-0.57 -0.54)"/><path class="cls-12" d="M139,134.73c.25-.26,0-.46-.08-.73-.12.24-.33.43-.17.69l0,0A.25.25,0,0,0,139,134.73Z" transform="translate(-0.57 -0.54)"/><path class="cls-12" d="M138.78,134.7v0h0Z" transform="translate(-0.57 -0.54)"/><path class="cls-13" d="M152.66,134.45c-.29,0-.4.23-.4.48a.54.54,0,0,0,.09.31h.28a.57.57,0,0,0,.32-.06.84.84,0,0,0,0-.29C153,134.66,152.92,134.45,152.66,134.45Z" transform="translate(-0.57 -0.54)"/><path class="cls-13" d="M152.34,135.24a.44.44,0,0,0,.32.18.36.36,0,0,0,.28-.25.57.57,0,0,1-.32.06Z" transform="translate(-0.57 -0.54)"/><path class="cls-14" d="M143.45,134.54c-.07-.1-.14-.18-.27-.16a.23.23,0,0,0-.19.17C143.13,134.52,143.32,134.59,143.45,134.54Z" transform="translate(-0.57 -0.54)"/><path class="cls-14" d="M143.25,134.72c.09,0,.25,0,.22-.16h0c-.13,0-.32,0-.46,0s0,0,0,.06S143.15,134.72,143.25,134.72Z" transform="translate(-0.57 -0.54)"/><path class="cls-15" d="M150.07,135.19c0-.15-.09-.22-.22-.18a.42.42,0,0,0-.25.21s0,0,0,0a1.23,1.23,0,0,1,.31,0A.21.21,0,0,0,150.07,135.19Z" transform="translate(-0.57 -0.54)"/><path class="cls-15" d="M149.8,135.45a.24.24,0,0,0,.28-.26h0a.21.21,0,0,1-.15,0,1.23,1.23,0,0,0-.31,0A.17.17,0,0,0,149.8,135.45Z" transform="translate(-0.57 -0.54)"/><path class="cls-16" d="M154.93,134.46a.36.36,0,0,0-.25-.09s-.15.09-.19.18,0,0,0,0C154.66,134.58,154.83,134.6,154.93,134.46Z" transform="translate(-0.57 -0.54)"/><path class="cls-16" d="M154.68,134.73c.12,0,.32.07.32-.15a.16.16,0,0,0-.06-.12c-.1.14-.27.13-.44.11C154.43,134.73,154.59,134.73,154.68,134.73Z" transform="translate(-0.57 -0.54)"/></svg>